<?xml version="1.0" encoding="utf-8"?>
<!-- Generator: Adobe Illustrator 27.5.0, SVG Export Plug-In . SVG Version: 6.00 Build 0)  -->
<svg version="1.1" id="rainbow" xmlns="http://www.w3.org/2000/svg" xmlns:xlink="http://www.w3.org/1999/xlink" x="0px" y="0px"
	 viewBox="0 0 1922.7 2041.9" enable-background="new 0 0 1922.7 2041.9" xml:space="preserve">
<path fill="none" d="M1643.8,2041.9H0V1.5h618.8c0,0,0,0,0,0H1920v2040.3h-271"/>
<path fill="#DE0000" d="M1922.7,192c-0.9-0.5-1.8-1.1-2.7-1.6v1086.4c-164.8-255.5-363.3-474.6-584.9-634.4c0,0,0,0,0,0
	c-135.8-97.9-280.2-173.6-430.8-221.6c-35.3-11.2-70.3-21.5-105.6-30.7c-94-23.7-190-38.8-286.7-45c-60.8-3.9-121-4.2-180.4-0.9
	c0,0,0,0,0,0C217.8,350.4,106.8,369.7,0,400.9c0,0,0,0,0,0V167.2c0,0,0,0,0,0c10.7-6.1,21.4-12,32.2-17.9c0,0,0,0,0.1,0
	c3.1-1.5,6.3-2.9,9.4-4.3c3.1-1.4,6.2-2.9,9.3-4.3c1.3-0.6,2.7-1.2,4-1.8c9-4.1,17.9-8.2,26.7-12.1c6.3-2.8,12.6-5.6,18.8-8.4
	c5.1-2.3,10.2-4.5,15.3-6.7c2.7-1.2,5.5-2.4,8.2-3.6c2.3-1,4.6-2,6.9-3c2.5-1.1,5-2.2,7.5-3.2c2-0.9,4.1-1.8,6.1-2.6
	c16.9-7.2,33.5-14.2,49.6-20.8c1.8-0.7,3.6-1.5,5.3-2.2c12-4.9,23.9-9.7,35.5-14.3c1-0.4,2.1-0.8,3.1-1.2c4.8-1.9,9.5-3.7,14.2-5.6
	c2.7-1,5.3-2.1,8-3.1c13.9-5.4,27.5-10.6,40.7-15.5c1.9-0.7,3.8-1.4,5.6-2.1c16-6,31.5-11.6,46.4-16.9c1.3-0.5,2.6-0.9,3.9-1.4
	c3.4-1.2,6.9-2.4,10.2-3.6c2.2-0.8,4.5-1.6,6.7-2.3c0.5-0.2,1-0.3,1.5-0.5c2.8-1,5.7-2,8.4-2.9c1.6-0.6,3.2-1.1,4.8-1.6
	c3.4-1.2,6.8-2.3,10.1-3.5c0.3-0.1,0.6-0.2,0.9-0.3c1.1-0.4,2.2-0.7,3.3-1.1c-1.1,0.4-2.2,0.7-3.3,1.1h219.5c0,0,0,0,0,0h876.8
	c-1.6-0.5-3.3-1-4.9-1.5c1.6,0.5,3.3,1,4.9,1.5c0.3,0.1,0.7,0.2,1,0.3c3.7,1.2,7.4,2.3,11.2,3.6c7.3,2.3,14.7,4.8,22,7.2
	c3.7,1.2,7.3,2.5,11,3.7c3.7,1.2,7.3,2.5,11,3.8c3.7,1.3,7.3,2.6,11,3.9c3.7,1.3,7.3,2.6,11,3.9c3.7,1.3,7.3,2.7,11,4
	s7.3,2.7,11,4.1c3.7,1.4,7.3,2.8,11,4.2c3.7,1.4,7.3,2.8,11,4.2c3.6,1.4,7.2,2.8,10.8,4.2c0.1,0,0.2,0.1,0.4,0.1
	c1.1,0.4,2.2,0.9,3.3,1.3c0,0,0,0,0,0l0,0c2.5,1,5,2,7.5,3c1.9,0.8,3.9,1.6,5.8,2.3c3.9,1.6,7.7,3.2,11.6,4.7
	c1.9,0.8,3.9,1.6,5.8,2.4c5.8,2.4,11.6,4.8,17.4,7.3c1.9,0.8,3.9,1.7,5.8,2.5c3.9,1.7,7.7,3.3,11.6,5c1.9,0.8,3.9,1.7,5.8,2.5
	c3.9,1.7,7.7,3.4,11.6,5.2c5.8,2.6,11.6,5.2,17.4,7.9c3.9,1.8,7.7,3.5,11.6,5.3c1.9,0.9,3.9,1.8,5.8,2.7c5.8,2.7,11.6,5.5,17.3,8.2
	c3.9,1.8,7.7,3.7,11.6,5.6c1.9,0.9,3.8,1.9,5.8,2.8c1.9,1,3.8,1.9,5.8,2.8c3.8,1.9,7.7,3.8,11.5,5.8c1.9,1,3.8,1.9,5.8,2.9
	c7.7,3.9,15.4,7.9,23,11.9c1.9,1,3.8,2,5.8,3s3.8,2,5.8,3c3.8,2,7.7,4.1,11.5,6.1c3.8,2.1,7.7,4.1,11.5,6.2c1.8,1,3.6,1.9,5.3,2.9
	c4,2.2,7.9,4.4,11.9,6.6c1.9,1.1,3.8,2.1,5.7,3.2c3.8,2.2,7.7,4.3,11.5,6.5c5.4,3.1,10.9,6.2,16.3,9.4c0.4,0.2,0.8,0.5,1.2,0.7
	c0.9,0.5,1.8,1,2.7,1.5C1920.9,190.9,1921.8,191.4,1922.7,192z"/>
<path fill="#0040A8" d="M0,1.5h306.7c-0.5,0.1-0.9,0.2-1.4,0.3c-1.2,0.3-2.4,0.5-3.6,0.8c-1.8,0.4-3.6,0.8-5.4,1.2
	c-4.2,1-8.4,1.9-12.5,2.9c-3.5,0.8-7,1.6-10.4,2.4c-3.6,0.8-7.2,1.7-10.7,2.5c-2.6,0.6-5.2,1.2-7.8,1.8c-4.8,1.1-9.7,2.3-14.5,3.5
	c-0.1,0-0.2,0-0.3,0.1c-1.8,0.4-3.5,0.8-5.2,1.3c-3.8,0.9-7.7,1.9-11.5,2.8c-3.9,1-7.8,1.9-11.7,2.9c-3,0.8-6.1,1.5-9.1,2.3
	c-2.2,0.5-4.5,1.1-6.7,1.7c-2.2,0.5-4.5,1.1-6.7,1.7c-4.8,1.2-9.6,2.4-14.4,3.7c-3.6,0.9-7.2,1.8-10.8,2.8c-2.3,0.6-4.6,1.2-6.9,1.8
	c-3.3,0.9-6.7,1.7-10,2.6c-5.1,1.3-10.2,2.7-15.3,4c-2.5,0.7-5,1.3-7.5,2c-8.8,2.4-17.6,4.7-26.4,7.1c-2.7,0.7-5.3,1.5-8,2.2
	c-0.3,0.1-0.7,0.2-1,0.3c-4.1,1.1-8.3,2.3-12.4,3.5c-0.9,0.2-1.7,0.5-2.5,0.7c-3,0.8-5.9,1.6-8.9,2.5c-5,1.4-10,2.8-14.9,4.2
	c-8.4,2.4-16.7,4.8-25,7.2c-3.2,0.9-6.5,1.9-9.8,2.8c-2.4,0.7-4.9,1.4-7.3,2.1c-2.4,0.7-4.8,1.4-7.3,2.2c-0.3,0.1-0.5,0.1-0.8,0.2
	c0,0,0,0,0,0V1.9h0V1.5z"/>
<path fill="#0040A8" d="M1922.7,192c-0.9-0.5-1.8-1.1-2.7-1.6c-0.9-0.5-1.8-1-2.7-1.6c-0.4-0.2-0.8-0.4-1.2-0.7
	c-5.4-3.1-10.9-6.3-16.3-9.4c-3.8-2.2-7.7-4.3-11.5-6.5c-1.9-1.1-3.8-2.1-5.7-3.2c-4-2.2-7.9-4.4-11.9-6.6c-1.8-1-3.6-2-5.3-2.9
	c-3.8-2.1-7.7-4.2-11.5-6.2c-3.8-2.1-7.7-4.1-11.5-6.1c-1.9-1-3.8-2-5.8-3s-3.8-2-5.8-3c-7.7-4-15.3-8-23-11.9
	c-1.9-1-3.8-1.9-5.8-2.9c-3.9-1.9-7.7-3.9-11.5-5.8c-1.9-0.9-3.9-1.9-5.8-2.8c-1.9-1-3.9-1.9-5.8-2.8c-3.8-1.9-7.7-3.8-11.6-5.6
	c-5.8-2.8-11.6-5.5-17.3-8.2c-1.9-0.9-3.8-1.8-5.8-2.7c-3.9-1.8-7.7-3.6-11.6-5.3c-5.8-2.7-11.6-5.3-17.4-7.9
	c-3.9-1.7-7.7-3.5-11.6-5.2c-1.9-0.8-3.9-1.7-5.8-2.5c-3.9-1.7-7.7-3.4-11.6-5c-1.9-0.8-3.9-1.6-5.8-2.5c-5.8-2.5-11.6-4.9-17.4-7.3
	c-1.9-0.8-3.9-1.6-5.8-2.4c-3.9-1.6-7.7-3.2-11.6-4.7c-1.9-0.8-3.9-1.6-5.8-2.3c-2.5-1-5-2-7.5-3l0,0c-1.1-0.4-2.2-0.9-3.3-1.3
	c-0.1-0.1-0.2-0.1-0.4-0.1c-3.6-1.4-7.2-2.8-10.8-4.2c-3.7-1.4-7.3-2.8-11-4.2c-3.7-1.4-7.3-2.8-11-4.2c-3.7-1.4-7.3-2.7-11-4.1
	s-7.3-2.7-11-4c-3.7-1.3-7.3-2.6-11-3.9c-3.7-1.3-7.3-2.6-11-3.9c-3.7-1.3-7.3-2.5-11-3.8c-3.7-1.2-7.3-2.5-11-3.7
	c-7.3-2.5-14.7-4.9-22-7.2c-3.7-1.2-7.5-2.4-11.2-3.6c-0.3-0.1-0.7-0.2-1-0.3c-1.6-0.5-3.3-1-4.9-1.5c1.6,0.5,3.3,1,4.9,1.5H1920
	v188.8C1920.9,190.9,1921.8,191.4,1922.7,192z"/>
<path fill="#FFA500" d="M402.6,0.5c-1.1,0.4-2.2,0.7-3.3,1.1c-0.3,0.1-0.6,0.2-1,0.3h0c-3.3,1.1-6.7,2.3-10.1,3.5
	c-1.6,0.5-3.2,1.1-4.8,1.6c-2.8,0.9-5.6,1.9-8.4,2.9c-0.5,0.2-1,0.3-1.5,0.5c-2.2,0.8-4.5,1.5-6.7,2.3c-3.4,1.2-6.8,2.4-10.2,3.6
	c-1.3,0.5-2.6,0.9-3.9,1.4c-14.9,5.3-30.3,10.9-46.4,16.9c-1.9,0.7-3.7,1.4-5.6,2.1c-13.2,4.9-26.7,10.1-40.7,15.5
	c-2.7,1-5.3,2.1-8,3.1c-4.7,1.8-9.4,3.7-14.2,5.6c-1,0.4-2,0.8-3.1,1.2c-11.6,4.6-23.4,9.4-35.5,14.3c-1.8,0.7-3.5,1.5-5.3,2.2
	c-16.2,6.6-32.7,13.6-49.6,20.8c-2,0.9-4.1,1.7-6.1,2.6c-2.5,1.1-5,2.1-7.5,3.2c-2.3,1-4.6,2-6.9,3c-2.7,1.2-5.5,2.4-8.2,3.6
	c-5.1,2.2-10.2,4.4-15.3,6.7c-6.2,2.8-12.5,5.5-18.8,8.4c-8.8,4-17.7,8-26.7,12.1c-1.3,0.6-2.7,1.2-4,1.8c-3.1,1.4-6.2,2.8-9.3,4.3
	c-3.1,1.4-6.2,2.9-9.4,4.3c0,0,0,0-0.1,0c-10.6,4.9-21.4,10-32.2,15.2c0,0,0,0,0,0V81.6c0,0,0,0,0,0c0.2-0.1,0.5-0.1,0.8-0.2
	C3.2,80.7,5.6,80,8,79.2c2.4-0.7,4.9-1.4,7.3-2.1c3.2-0.9,6.5-1.9,9.8-2.8c8.3-2.4,16.7-4.8,25-7.2c5-1.4,9.9-2.8,14.9-4.2
	c3-0.8,5.9-1.7,8.9-2.5c0.8-0.2,1.7-0.5,2.5-0.7c4.1-1.2,8.3-2.3,12.4-3.5c0.3-0.1,0.7-0.2,1-0.3c2.7-0.7,5.3-1.5,8-2.2
	c8.8-2.4,17.6-4.8,26.4-7.1c2.5-0.7,5-1.3,7.5-2c5.1-1.4,10.2-2.7,15.3-4c3.3-0.9,6.7-1.7,10-2.6c2.3-0.6,4.6-1.2,6.9-1.8
	c3.6-0.9,7.2-1.8,10.8-2.8c4.8-1.2,9.6-2.4,14.4-3.7c2.2-0.6,4.4-1.1,6.7-1.7c2.2-0.6,4.4-1.1,6.7-1.7c3-0.8,6.1-1.5,9.1-2.3
	c3.9-1,7.8-1.9,11.7-2.9c3.8-0.9,7.7-1.9,11.5-2.8c1.8-0.4,3.5-0.9,5.2-1.3c0.1,0,0.2,0,0.3-0.1c4.8-1.2,9.7-2.3,14.5-3.5
	c2.6-0.6,5.2-1.2,7.8-1.8c3.6-0.8,7.1-1.7,10.7-2.5c3.5-0.8,7-1.6,10.4-2.4c4.2-1,8.3-1.9,12.5-2.9c3-0.7,6-1.4,9-2
	c0.5-0.1,1-0.2,1.4-0.3h92.6C400.4,1.2,401.5,0.8,402.6,0.5z"/>
<path fill="#0094DA" d="M1649,2041.9c-0.6-2.1-1.2-4.2-1.7-6.3c-0.3-1.1-0.6-2.1-0.9-3.2c-0.8-3-1.7-6-2.5-9
	c-0.9-3.1-1.7-6.1-2.6-9.2c-0.9-3.4-1.9-6.7-2.9-10.1c-1.3-4.7-2.7-9.3-4.1-14c-0.3-0.9-0.5-1.9-0.8-2.8c-0.2-0.7-0.4-1.4-0.6-2.1
	c-0.8-2.6-1.5-5.2-2.3-7.8c-0.9-3-1.8-6.1-2.7-9.2c-0.1-0.3-0.2-0.5-0.2-0.8c-2.2-7.3-4.5-14.7-6.7-22c-0.1-0.3-0.2-0.5-0.2-0.8
	c-1.1-3.6-2.2-7.2-3.4-10.8c-1.2-3.7-2.3-7.5-3.5-11.2c-0.1-0.2-0.2-0.5-0.2-0.7c-2.8-8.9-5.7-17.7-8.5-26.6
	c-0.1-0.2-0.1-0.5-0.2-0.7c-1.4-4.4-2.9-8.9-4.4-13.3c-1.5-4.4-2.9-8.8-4.4-13.3c-1-3-2-6-3-9.1c-2-6-4.1-12.1-6.2-18.1
	c-1-3-2.1-6-3.1-9c-0.1-0.2-0.1-0.4-0.2-0.6c-3.1-8.8-6.2-17.6-9.3-26.4c-2.2-6.2-4.4-12.3-6.7-18.5c-1.6-4.4-3.2-8.8-4.8-13.2
	c-1.6-4.4-3.2-8.8-4.9-13.2c-2.2-6-4.5-11.9-6.7-17.9c-1.4-3.7-2.8-7.4-4.3-11.2c-1.4-3.7-2.9-7.4-4.3-11.1
	c-1.4-3.7-2.9-7.4-4.3-11.1c-1.4-3.7-2.9-7.4-4.4-11.1c-1.2-2.9-2.4-5.9-3.5-8.9c-1.2-2.9-2.4-5.9-3.6-8.9
	c-2.4-5.9-4.8-11.8-7.2-17.7c-4.8-11.8-9.7-23.5-14.7-35.2c-1.3-3-2.6-6-3.8-9c-2.2-5.1-4.4-10.2-6.6-15.2
	c-2.2-5.1-4.4-10.1-6.7-15.2c-2.2-5.1-4.5-10.1-6.7-15.2c-2.3-5.1-4.5-10.1-6.8-15.1c0,0,0-0.1-0.1-0.1c-1.9-4.1-3.8-8.2-5.6-12.4
	c-0.2-0.4-0.4-0.8-0.6-1.3c-1.9-4.1-3.8-8.1-5.6-12.2c-2.7-5.8-5.4-11.5-8.1-17.3c-2.4-5.1-4.8-10.2-7.3-15.3
	c-0.4-0.8-0.8-1.6-1.2-2.4c-1.8-3.8-3.6-7.6-5.5-11.3c-2.2-4.6-4.4-9.1-6.7-13.7c-4.2-8.5-8.4-17-12.7-25.5c-2.3-4.7-4.7-9.3-7.1-14
	c-0.3-0.6-0.7-1.3-1-1.9c-2.2-4.2-4.3-8.5-6.5-12.7c-0.2-0.3-0.3-0.6-0.5-0.9c-2.2-4.3-4.5-8.7-6.8-13c-0.2-0.4-0.4-0.8-0.6-1.1
	c-1-1.9-2-3.9-3.1-5.8c-1.5-2.8-2.9-5.6-4.4-8.4c-2-3.8-4.1-7.7-6.1-11.5c-1.3-2.4-2.5-4.7-3.8-7.1c-1.3-2.4-2.6-4.9-3.9-7.3
	c0-0.1-0.1-0.1-0.1-0.2c-2.6-4.8-5.2-9.6-7.9-14.4c-2.5-4.6-5.1-9.2-7.6-13.8c-0.3-0.5-0.5-0.9-0.8-1.4c0-0.1-0.1-0.2-0.1-0.2
	c-2.2-3.9-4.3-7.7-6.5-11.6c-0.5-1-1.1-1.9-1.6-2.9c-2.6-4.5-5.1-9-7.7-13.5c-1.6-2.7-3.1-5.5-4.7-8.2c-0.5-0.9-1-1.7-1.5-2.6
	c-0.5-0.9-1-1.8-1.5-2.7c-0.6-1-1.1-1.9-1.7-2.9c-3.2-5.4-6.3-10.9-9.5-16.3c-2.4-4.1-4.8-8.1-7.2-12.1c-2.4-4-4.8-8.1-7.3-12.1v0
	c-1.8-2.9-3.6-5.9-5.3-8.8c-2.7-4.5-5.5-9-8.3-13.5c-0.1-0.1-0.1-0.2-0.2-0.3c-2.7-4.4-5.4-8.7-8.1-13.1c-0.1-0.2-0.3-0.4-0.4-0.7
	c-1.6-2.5-3.1-4.9-4.7-7.4c-1.8-2.9-3.7-5.8-5.5-8.7c-1.8-2.9-3.7-5.8-5.5-8.7c-1.4-2.2-2.8-4.4-4.3-6.6c-0.8-1.3-1.7-2.6-2.5-3.8
	c-1.5-2.3-2.9-4.5-4.4-6.8c-1.9-2.9-3.7-5.7-5.6-8.6c-1.8-2.7-3.5-5.4-5.3-8.1s-3.6-5.4-5.4-8.1c-1.9-2.8-3.8-5.7-5.7-8.5
	c-0.4-0.6-0.7-1.1-1.1-1.6c-1.2-1.9-2.5-3.7-3.8-5.6c-4.6-6.9-9.3-13.7-14.1-20.6c-1.4-2-2.8-4-4.2-6c-5.5-7.9-11.1-15.9-16.7-23.8
	c-1.5-2.1-3-4.2-4.6-6.4c-1.4-1.9-2.7-3.8-4.1-5.8c-1.6-2.3-3.3-4.6-4.9-6.8c-2-2.7-3.9-5.4-5.9-8.1c-2-2.7-4-5.4-6-8.1
	c-2.5-3.4-5-6.8-7.5-10.2c-1.6-2.1-3.2-4.2-4.8-6.4c0-0.1-0.1-0.1-0.1-0.2c-0.2-0.3-0.4-0.6-0.6-0.8c-1.7-2.3-3.4-4.5-5.1-6.8
	c-1.7-2.3-3.5-4.6-5.2-6.9c-1.7-2.3-3.5-4.5-5.2-6.8c-2.1-2.7-4.1-5.4-6.2-8.1c-1.5-1.9-2.9-3.8-4.4-5.7c-1.5-2-3.1-3.9-4.6-5.9
	c-2.4-3.1-4.8-6.1-7.2-9.2c-2.4-3-4.8-6.1-7.2-9.1c-2.4-3-4.8-6.1-7.3-9.1c-2.4-3-4.9-6-7.3-9c-3.9-4.8-7.8-9.6-11.8-14.4v0
	c-1.8-2.2-3.6-4.4-5.5-6.6c-0.9-1.1-1.8-2.2-2.7-3.2c-0.5-0.6-1-1.2-1.4-1.7c-0.6-0.8-1.3-1.6-1.9-2.3c-1.7-2-3.4-4.1-5.1-6.1
	c-0.4-0.5-0.7-0.9-1.1-1.3c-1.5-1.8-3-3.5-4.5-5.3c-1.5-1.8-3-3.5-4.5-5.3c-1.5-1.8-3-3.5-4.5-5.3c-1.5-1.8-3-3.5-4.5-5.3
	c-1.9-2.2-3.8-4.4-5.7-6.5c-1.4-1.6-2.8-3.2-4.2-4.8c-1.3-1.5-2.6-3-3.9-4.4c-1.5-1.7-3-3.4-4.5-5.2c-3.1-3.5-6.1-6.9-9.2-10.4
	c-3.1-3.5-6.2-6.9-9.3-10.3c0,0,0,0,0,0c-2.6-2.9-5.2-5.7-7.8-8.6c-1-1.1-1.9-2.1-2.9-3.2c-2.7-2.9-5.3-5.8-8-8.7
	c-3.1-3.4-6.3-6.8-9.5-10.1c-1.6-1.7-3.2-3.4-4.8-5c-9-9.5-18-19-27.2-28.3c-1-1-1.9-2-2.9-3c-2.2-2.3-4.5-4.6-6.8-6.9
	c-1.6-1.6-3.2-3.3-4.9-4.9c-0.5-0.6-1.1-1.1-1.6-1.6c-3.3-3.3-6.5-6.5-9.8-9.8c-3.3-3.2-6.5-6.5-9.8-9.7c-1.8-1.7-3.5-3.4-5.3-5.2
	c-1.2-1.2-2.5-2.4-3.7-3.6c-1.5-1.5-3-3-4.6-4.4c-0.2-0.2-0.4-0.4-0.5-0.5c-1.9-1.8-3.8-3.7-5.8-5.5c-1.9-1.9-3.9-3.7-5.8-5.6
	c-1.3-1.2-2.6-2.5-4-3.8c-0.4-0.4-0.8-0.8-1.2-1.1c-2.2-2.1-4.4-4.1-6.6-6.2c-1.6-1.5-3.3-3-4.9-4.6c-2.9-2.7-5.9-5.4-8.8-8.1
	c-1.3-1.2-2.7-2.5-4-3.7c-9.3-8.5-18.7-17-28.2-25.4c-2.1-1.9-4.2-3.7-6.3-5.6c-0.5-0.4-1-0.9-1.5-1.3c-2-1.7-4-3.5-5.9-5.2
	c-2.9-2.5-5.9-5.1-8.8-7.6c-2.6-2.2-5.2-4.5-7.9-6.7c-1.3-1.1-2.6-2.2-3.9-3.3c-1.3-1.1-2.6-2.2-4-3.3c-5-4.2-10-8.4-15-12.5
	c-0.3-0.2-0.6-0.5-0.9-0.7c-5.3-4.4-10.7-8.8-16-13.1c-2.7-2.2-5.4-4.3-8-6.5c-2.6-2.1-5.2-4.1-7.8-6.2c0,0,0,0,0,0
	c-0.2-0.1-0.4-0.3-0.5-0.4c0,0,0,0-0.1,0c-2.6-2.1-5.2-4.1-7.8-6.2c-2.7-2.1-5.4-4.2-8.2-6.4c-3-2.3-6-4.6-9-6.9
	c-1.1-0.8-2.1-1.6-3.2-2.5c-2.9-2.2-5.8-4.5-8.8-6.7c-2.1-1.6-4.3-3.2-6.4-4.8c-6.4-4.8-12.9-9.6-19.4-14.4
	c-2.2-1.6-4.3-3.2-6.5-4.7c-2.2-1.6-4.3-3.2-6.5-4.7c-2.5-1.8-5-3.6-7.5-5.4c-2-1.4-4-2.9-6-4.3c-0.3-0.2-0.6-0.5-1-0.7
	c-1.9-1.4-3.9-2.7-5.8-4.1c-0.7-0.5-1.5-1-2.2-1.5c-1.5-1.1-3-2.1-4.5-3.1c-0.1,0-0.1-0.1-0.2-0.1c-0.5-0.3-1-0.7-1.4-1
	c-2.4-1.6-4.7-3.3-7.1-4.9s-4.7-3.2-7.1-4.9c-2.4-1.6-4.8-3.2-7.1-4.8c-4.8-3.2-9.5-6.4-14.3-9.6c-2.4-1.6-4.8-3.2-7.2-4.8
	c-2.4-1.5-4.7-3.1-7.1-4.6c-0.1-0.1-0.2-0.2-0.4-0.2c-2.3-1.5-4.7-3-7-4.5c-2.4-1.6-4.8-3.1-7.3-4.7c-2.4-1.5-4.9-3.1-7.3-4.6
	c-2.4-1.5-4.9-3.1-7.3-4.6c-3.2-2-6.3-4-9.5-5.9c-3-1.8-5.9-3.7-8.9-5.5c-0.4-0.3-0.8-0.5-1.2-0.8c-0.3-0.2-0.6-0.4-0.9-0.6
	c-2.7-1.7-5.4-3.3-8.1-4.9c-3.2-1.9-6.4-3.9-9.6-5.8h0c-5.3-3.2-10.6-6.3-15.9-9.4c-2.7-1.6-5.3-3.1-8-4.6
	c-10.7-6.2-21.4-12.2-32.2-18.2c-5.4-3-10.8-5.9-16.3-8.9s-10.9-5.8-16.4-8.7c-2.7-1.4-5.5-2.9-8.2-4.3c-2.8-1.4-5.5-2.8-8.2-4.3
	c-2.8-1.4-5.5-2.8-8.3-4.2c-5.8-3-11.7-5.9-17.5-8.8c-3.9-1.9-7.8-3.8-11.7-5.7c-1.3-0.6-2.6-1.3-3.9-1.9c-0.2-0.1-0.3-0.1-0.5-0.2
	c-0.5-0.2-0.9-0.5-1.4-0.7c-2.2-1.1-4.5-2.2-6.7-3.2c-2.1-1-4.1-2-6.2-2.9c-0.1-0.1-0.2-0.1-0.3-0.2c-2.4-1.1-4.8-2.3-7.2-3.4
	c-1.2-0.5-2.3-1.1-3.5-1.6c-2.7-1.3-5.4-2.5-8.1-3.8c-2.8-1.3-5.7-2.6-8.5-3.9c-3.1-1.4-6.2-2.8-9.2-4.2c0,0,0,0,0,0
	c-2.1-0.9-4.2-1.9-6.4-2.8c-1.8-0.8-3.6-1.6-5.4-2.4c-0.5-0.2-1.1-0.5-1.7-0.7c-1.8-0.8-3.6-1.6-5.3-2.3c-0.4-0.2-0.8-0.3-1.2-0.5
	c-1.6-0.7-3.3-1.4-4.9-2.1c-2.4-1-4.7-2-7.1-3c-2.1-0.9-4.3-1.8-6.4-2.7c-2-0.8-3.9-1.7-5.9-2.5c-0.2-0.1-0.3-0.1-0.5-0.2
	c-3.1-1.3-6.1-2.5-9.2-3.8c-1.3-0.6-2.7-1.1-4-1.6c-3.1-1.3-6.2-2.5-9.4-3.8c-2.8-1.1-5.7-2.3-8.5-3.4c-9.2-3.6-18.4-7.2-27.6-10.7
	c-3-1.1-5.9-2.2-8.9-3.3c-3-1.1-5.9-2.2-8.9-3.3c-2.2-0.8-4.5-1.6-6.8-2.5c-1.2-0.4-2.4-0.9-3.5-1.3c-5.5-2-10.9-3.9-16.4-5.8
	c-3.1-1.1-6.1-2.1-9.2-3.2c-2.5-0.8-4.9-1.7-7.4-2.5c-3.1-1-6.2-2.1-9.3-3.1c-1.1-0.4-2.1-0.7-3.2-1.1c-2.2-0.7-4.5-1.5-6.7-2.2
	c-0.8-0.3-1.6-0.5-2.4-0.8c-2.5-0.8-5.1-1.7-7.6-2.5c-0.1,0-0.2-0.1-0.3-0.1c-2.6-0.8-5.1-1.6-7.7-2.5c-3-0.9-6-1.9-9-2.8
	c-3.5-1.1-7.1-2.2-10.6-3.3c-0.3-0.1-0.7-0.2-1-0.3c-2.2-0.7-4.3-1.3-6.5-2c-4.5-1.4-9.1-2.7-13.6-4c-1.3-0.4-2.6-0.8-3.9-1.1
	c-3.6-1-7.1-2.1-10.7-3.1c-2.7-0.8-5.4-1.5-8.1-2.3c-3-0.9-6.1-1.7-9.1-2.5c-2.1-0.6-4.2-1.1-6.3-1.7c-0.3-0.1-0.6-0.2-1-0.3
	c-1.2-0.3-2.3-0.6-3.5-0.9c-0.3-0.1-0.7-0.2-1-0.3c-1.2-0.3-2.4-0.6-3.6-1c-1.3-0.4-2.7-0.7-4-1.1c-1.3-0.3-2.5-0.7-3.8-1
	c-0.4-0.1-0.7-0.2-1.1-0.3c-1.3-0.3-2.5-0.7-3.8-1c-3.3-0.9-6.7-1.7-10-2.5c-1.7-0.4-3.5-0.9-5.2-1.3c-1.9-0.5-3.8-0.9-5.7-1.4
	c-1.3-0.3-2.6-0.6-3.9-1L0,231.2h0V1.9h0V1.5h399.3c1.1-0.4,2.2-0.7,3.3-1.1c-1.1,0.4-2.2,0.7-3.3,1.1h70.9c0.3,0.1,0.6,0.2,0.9,0.3
	c15.5,5.7,31.1,11.7,46.5,17.8c1.9,0.8,3.9,1.5,5.8,2.3c2.2,0.9,4.3,1.7,6.5,2.6c1.7,0.7,3.4,1.4,5.2,2.1c1.7,0.7,3.4,1.4,5.2,2.1
	c5.2,2.2,10.5,4.4,15.7,6.6c1.6,0.7,3.2,1.4,4.9,2.1c2.8,1.2,5.6,2.4,8.3,3.6c2.1,0.9,4.2,1.8,6.2,2.7c1.7,0.7,3.4,1.5,5.1,2.2
	c3.3,1.5,6.7,2.9,10,4.4c1.5,0.6,2.9,1.3,4.4,2c16.1,7.2,32.1,14.7,48.1,22.5c1.7,0.8,3.4,1.6,5,2.5c1.6,0.8,3.2,1.6,4.8,2.4
	c8.5,4.2,17.1,8.5,25.6,12.8c2.7,1.4,5.4,2.8,8.1,4.2c2,1,4,2.1,6.1,3.1c2.4,1.2,4.7,2.5,7.1,3.7c2.5,1.3,5,2.6,7.5,4
	c2.2,1.2,4.4,2.4,6.6,3.5c2.3,1.3,4.7,2.5,7,3.8c2.3,1.3,4.7,2.6,7,3.9c4.7,2.6,9.4,5.2,14,7.8c2.3,1.3,4.7,2.6,7,4
	c2.3,1.3,4.7,2.7,7,4c4.7,2.7,9.3,5.4,14,8.1c4.7,2.7,9.3,5.5,14,8.2c2.3,1.4,4.7,2.8,7,4.2c2.3,1.4,4.6,2.8,6.9,4.2
	c2.3,1.4,4.6,2.8,6.9,4.2c4.6,2.8,9.2,5.7,13.9,8.6c9.2,5.8,18.4,11.7,27.6,17.6c4.6,3,9.2,6,13.8,9c2.3,1.5,4.6,3,6.9,4.6
	c2.2,1.5,4.4,3,6.6,4.5c0.1,0.1,0.2,0.2,0.4,0.2c2.1,1.4,4.1,2.8,6.2,4.2c4.7,3.2,9.5,6.5,14.2,9.8c2.3,1.6,4.7,3.2,7,4.9
	c2.2,1.5,4.4,3.1,6.6,4.7c2.3,1.6,4.5,3.2,6.8,4.8c4.5,3.2,9,6.5,13.5,9.8c2.6,1.9,5.1,3.8,7.7,5.6c1.9,1.4,3.9,2.9,5.8,4.3
	c2.2,1.7,4.5,3.4,6.7,5c4.5,3.4,9,6.8,13.4,10.2c2.2,1.7,4.5,3.4,6.7,5.2c2.2,1.7,4.5,3.4,6.7,5.2c2.2,1.7,4.5,3.5,6.7,5.2
	s4.5,3.5,6.7,5.3c4.5,3.5,8.9,7.1,13.3,10.6c2.2,1.8,4.4,3.6,6.6,5.4c3.8,3.1,7.7,6.3,11.5,9.4c0.6,0.5,1.2,1,1.8,1.5
	c1.5,1.2,3,2.5,4.5,3.8c5.1,4.2,10.2,8.5,15.3,12.8c2.2,1.9,4.4,3.7,6.6,5.6c2,1.8,4.1,3.5,6.1,5.3c2.8,2.4,5.6,4.9,8.4,7.3
	c1.7,1.5,3.4,3,5.1,4.5c2.2,1.9,4.4,3.8,6.5,5.8c2.2,1.9,4.4,3.9,6.5,5.8c2.1,1.9,4.2,3.8,6.3,5.7c10.9,9.8,21.7,19.9,32.5,30.1
	c2.4,2.3,4.8,4.5,7.2,6.8c1.6,1.6,3.2,3.1,4.9,4.7c2.4,2.3,4.8,4.6,7.2,6.9c4.3,4.1,8.5,8.3,12.8,12.5c2.1,2.1,4.2,4.2,6.4,6.3
	c5.7,5.7,11.4,11.4,17.1,17.2c1.3,1.3,2.5,2.6,3.8,3.9c1.4,1.4,2.8,2.9,4.2,4.3c4.3,4.4,8.6,8.9,12.9,13.4c2.1,2.2,4.2,4.4,6.3,6.6
	c2.1,2.2,4.2,4.4,6.3,6.6c6.3,6.7,12.5,13.4,18.7,20.2c2.1,2.3,4.1,4.5,6.2,6.8c2,2.2,4,4.4,6,6.6c0.1,0.1,0.3,0.3,0.4,0.5
	c1.9,2.2,3.9,4.3,5.8,6.5c0.1,0.1,0.2,0.2,0.2,0.3c1.9,2.1,3.8,4.3,5.7,6.4c2.2,2.4,4.3,4.9,6.5,7.4c2.1,2.3,4.1,4.7,6.1,7
	c14.3,16.5,28.5,33.3,42.6,50.5c1.6,2,3.2,4,4.9,6c4.3,5.3,8.6,10.6,12.8,15.9c1.4,1.8,2.9,3.6,4.3,5.4c2.1,2.7,4.3,5.4,6.4,8.1
	c0,0,0,0,0,0c1.3,1.6,2.6,3.3,3.9,4.9c2.5,3.2,5,6.4,7.4,9.6c1.4,1.8,2.8,3.6,4.1,5.3c2.2,2.8,4.4,5.7,6.5,8.5
	c6.9,9.1,13.9,18.3,20.8,27.6c1.8,2.5,3.7,4.9,5.5,7.4c5.9,8.1,11.9,16.3,17.8,24.5c1.9,2.7,3.8,5.4,5.8,8.1c1.5,2,2.9,4.1,4.3,6.1
	c12,17,23.9,34.2,35.6,51.8c1.7,2.6,3.4,5.2,5.2,7.7c0.2,0.4,0.5,0.8,0.7,1.1c1.8,2.7,3.6,5.4,5.4,8.1c1.9,2.9,3.8,5.7,5.6,8.6
	c1.7,2.7,3.5,5.3,5.2,8c0.4,0.7,0.9,1.4,1.3,2c4.8,7.5,9.7,15,14.5,22.6c0.4,0.7,0.9,1.4,1.3,2c1.9,2.9,3.7,5.8,5.5,8.8
	c0.1,0.2,0.2,0.4,0.4,0.6c1.7,2.7,3.4,5.5,5.1,8.2c1.8,2.9,3.6,5.8,5.4,8.7c1.3,2.1,2.6,4.2,3.8,6.3c1.1,1.7,2.1,3.4,3.2,5.2
	c7.3,12,14.6,24.2,21.9,36.5c1.8,3.1,3.7,6.2,5.5,9.3c1.1,1.8,2.1,3.6,3.2,5.4c2.2,3.8,4.5,7.7,6.7,11.6c1.5,2.7,3,5.3,4.5,8
	c1.3,2.3,2.6,4.6,3.9,6.9c0.1,0.1,0.2,0.3,0.2,0.4c1.1,1.8,2.1,3.7,3.2,5.6c2.4,4.3,4.8,8.5,7.2,12.8c1.1,2.1,2.3,4.1,3.4,6.2
	c5.8,10.5,11.6,21.1,17.3,31.7c1,1.9,2.1,3.8,3.1,5.7c5.7,10.7,11.4,21.5,17.1,32.4c1,1.9,2,3.9,3,5.8
	c11.2,21.6,22.2,43.6,33.2,65.9c1,2,2,4.1,3,6.1c1.1,2.3,2.2,4.5,3.3,6.8c1.5,3.1,3,6.2,4.5,9.3c6,12.5,12,25.1,17.9,37.9
	c1.1,2.3,2.1,4.6,3.2,6.9c13.7,29.7,27.2,60,40.4,90.9c1,2.4,2,4.8,3,7.2c2.1,5,4.3,10,6.4,15.1c0.9,2.2,1.8,4.3,2.7,6.5
	c0.3,0.6,0.5,1.2,0.8,1.9c0.9,2.2,1.8,4.3,2.7,6.5c4.9,11.7,9.7,23.5,14.5,35.3c1.3,3.2,2.6,6.4,3.9,9.7c2.6,6.4,5.1,12.8,7.6,19.3
	c0.1,0.2,0.2,0.4,0.3,0.7c0.8,1.9,1.5,3.9,2.3,5.8c1.2,3,2.4,6.1,3.6,9.1c1.4,3.7,2.8,7.3,4.2,11c1.5,3.9,3,7.7,4.5,11.6
	c1.2,3.2,2.4,6.4,3.6,9.6c1.1,2.9,2.2,5.8,3.2,8.7c2.6,7,5.1,14,7.6,20.9c1,2.9,2,5.7,3.1,8.6c0.1,0.3,0.2,0.6,0.3,1
	c1,2.9,2,5.7,3,8.6c1.1,3,2.1,6.1,3.2,9.1c1.1,3.3,2.3,6.7,3.4,10c1,2.9,2,5.9,2.9,8.8c1.2,3.5,2.3,7,3.4,10.5
	c0.8,2.6,1.7,5.2,2.5,7.8c0.2,0.6,0.4,1.1,0.6,1.7c1,3.1,2,6.3,3,9.4c0.8,2.4,1.5,4.8,2.2,7.2c0.3,1,0.6,2,1,3.1
	c1,3.4,2.1,6.9,3.1,10.3c1,3.4,2.1,6.8,3.1,10.3c0.7,2.3,1.3,4.6,2,6.8c0.1,0.5,0.3,0.9,0.4,1.4c0.8,2.9,1.7,5.7,2.5,8.6
	c2,6.8,3.9,13.6,5.8,20.4c0.8,2.8,1.5,5.6,2.3,8.4c2,7.4,3.9,14.7,5.9,22c0.6,2.2,1.1,4.4,1.7,6.6c0.8,3.2,1.6,6.4,2.4,9.5
	c0.8,3.2,1.6,6.4,2.4,9.5c0.8,3.1,1.5,6.3,2.3,9.4c0.8,3.4,1.6,6.7,2.4,10.1c0.7,3,1.4,6,2.1,9c0.7,3.2,1.5,6.3,2.2,9.5
	c0.7,3,1.4,6.1,2,9.1c0,0.1,0.1,0.2,0.1,0.4c0.7,3.2,1.4,6.3,2.1,9.5c0.7,3.2,1.4,6.3,2,9.5c1.2,5.7,2.4,11.3,3.5,17
	c0.1,0.7,0.3,1.4,0.4,2c3.2,15.8,6.2,31.6,9,47.4c1.1,6.3,2.2,12.6,3.3,18.9c0.9,5.4,1.8,10.7,2.6,16.1c0.2,1.4,0.4,2.8,0.7,4.2
	c0.3,2,0.6,4,0.9,5.9c0.2,1.1,0.3,2.2,0.5,3.2c0.4,2.8,0.8,5.5,1.3,8.3c1.2,7.7,2.3,15.4,3.3,23c0.4,2.5,0.7,5,1,7.5
	c0.3,2.4,0.6,4.7,0.9,7.1c0.4,3.1,0.8,6.2,1.2,9.3c0.5,4.3,1.1,8.6,1.6,12.9c0.3,2.7,0.7,5.3,1,8c0.1,0.4,0.1,0.9,0.2,1.3
	c0.4,3.1,0.7,6.2,1.1,9.3c0.2,1.5,0.3,2.9,0.5,4.4c0.4,3.2,0.7,6.5,1.1,9.7c0.2,2,0.4,4.1,0.6,6.1c0.2,1.5,0.3,3.1,0.5,4.6
	c0.3,2.9,0.6,5.8,0.9,8.7c0,0.3,0.1,0.6,0.1,1c0.2,1.9,0.4,3.8,0.5,5.6c0.2,1.9,0.4,3.9,0.5,5.8c0.2,2.1,0.4,4.3,0.6,6.4
	c0.3,3.3,0.6,6.7,0.9,10c0.3,3.6,0.6,7.2,0.9,10.8c0.3,3.5,0.6,7,0.8,10.5c0.2,2.8,0.4,5.7,0.6,8.5c0.2,2.1,0.3,4.3,0.5,6.4
	c0,0.2,0,0.4,0,0.6H1649"/>
<path fill="#FC4A6A" d="M1920,299.9v655.6c-2.2-3.1-4.4-6.3-6.6-9.4c-0.8-1.1-1.6-2.3-2.4-3.4c-1.5-2.2-3.1-4.3-4.6-6.5
	c-0.1-0.2-0.2-0.4-0.4-0.5c-2.2-3.1-4.4-6.2-6.6-9.2c-1-1.4-2-2.8-3.1-4.2c-2.2-3.1-4.5-6.2-6.8-9.4c-6.1-8.3-12.2-16.6-18.4-24.8
	c-12.3-16.5-24.8-32.8-37.5-49c-3.2-4-6.4-8.1-9.6-12.1c-2.4-3-4.8-6-7.2-9.1c-0.2-0.3-0.4-0.5-0.7-0.8c-0.9-1.1-1.8-2.2-2.7-3.4
	c-0.6-0.8-1.2-1.6-1.9-2.3c-2.3-2.8-4.6-5.7-6.9-8.5c-4.2-5.2-8.5-10.4-12.8-15.6c-1.3-1.6-2.7-3.3-4-4.9c0,0,0,0-0.1-0.1
	c-1.5-1.8-3-3.6-4.5-5.4c-2.7-3.2-5.4-6.5-8.1-9.7c-2.9-3.4-5.8-6.9-8.7-10.3c-0.7-0.8-1.3-1.6-2-2.4c-2.5-2.9-4.9-5.8-7.4-8.7
	c-0.9-1.1-1.9-2.2-2.9-3.4c-3-3.5-6.1-7-9.1-10.5c-3.4-3.9-6.8-7.8-10.2-11.6c-6.8-7.7-13.6-15.4-20.5-23
	c-3.4-3.8-6.9-7.6-10.4-11.4c-6.9-7.6-13.9-15.1-21-22.7c-3.5-3.8-7-7.5-10.6-11.2c-3.5-3.7-7.1-7.5-10.7-11.2
	c-3.5-3.7-7.1-7.4-10.7-11.1c-3.6-3.7-7.2-7.4-10.8-11c0,0,0,0,0,0c-3.6-3.7-7.2-7.3-10.8-11c-3.6-3.7-7.3-7.3-10.9-10.9
	c-3.5-3.5-7.1-7.1-10.7-10.6c-0.5-0.5-0.9-0.9-1.4-1.4c-3-3-6-5.9-9.1-8.8c-0.3-0.3-0.6-0.6-0.8-0.8c-3.1-3-6.2-6-9.2-8.9
	c-2.5-2.4-5-4.8-7.5-7.1c-0.5-0.5-0.9-0.9-1.4-1.3c-1.4-1.3-2.8-2.7-4.2-4c-0.2-0.1-0.3-0.3-0.4-0.4c-2.7-2.6-5.5-5.2-8.2-7.7
	c-0.9-0.8-1.7-1.6-2.6-2.4c-3.5-3.3-7-6.5-10.5-9.8c-0.3-0.3-0.6-0.5-0.8-0.8c-3.6-3.3-7.3-6.7-10.9-10c-2.1-1.9-4.1-3.8-6.2-5.6
	c-13.4-12.1-26.9-24.1-40.5-36c-1.9-1.6-3.7-3.2-5.6-4.9c-13.8-11.9-27.7-23.6-41.7-35.1c-2.6-2.2-5.3-4.3-7.9-6.5
	c-2.1-1.7-4.2-3.4-6.3-5.1c-7.8-6.3-15.6-12.5-23.4-18.7c-1.8-1.4-3.6-2.9-5.4-4.3c-12-9.4-24-18.7-36.2-27.9
	c-3.4-2.6-6.9-5.2-10.4-7.8c-3.4-2.5-6.7-5-10.1-7.5c-2.7-2-5.3-3.9-8-5.9c-2-1.4-3.9-2.9-5.9-4.3c-2.9-2.1-5.8-4.2-8.7-6.3
	c-2.4-1.7-4.7-3.4-7.1-5.1c-5.2-3.7-10.5-7.4-15.7-11.1c-2-1.4-3.9-2.7-5.9-4.1c-5.6-3.9-11.1-7.8-16.8-11.6
	c-4.3-2.9-8.6-5.9-12.9-8.8c-0.3-0.2-0.7-0.5-1-0.7c-2.5-1.7-5-3.4-7.5-5.1c-2.5-1.7-5-3.4-7.6-5c-2.4-1.6-4.8-3.2-7.2-4.8
	c-5.3-3.5-10.5-6.9-15.8-10.3c-2.4-1.6-4.9-3.2-7.3-4.7c-2.5-1.6-5.1-3.3-7.7-4.9s-5.1-3.2-7.7-4.9c-2.6-1.6-5.1-3.2-7.7-4.8
	c-2.4-1.5-4.8-3-7.1-4.4c-1.7-1.1-3.5-2.2-5.2-3.2c-3.5-2.1-6.9-4.3-10.4-6.4c-2.5-1.5-5-3-7.5-4.5c-1.8-1.1-3.6-2.2-5.4-3.3
	c-2.8-1.7-5.6-3.4-8.5-5.1c-3.5-2.1-7-4.1-10.5-6.2c-1.9-1.1-3.7-2.2-5.6-3.2c-4.4-2.6-8.9-5.2-13.4-7.8c-1.8-1-3.5-2-5.3-3.1
	c-7.8-4.4-15.6-8.8-23.4-13.2c-2.7-1.5-5.3-3-8-4.4c-5-2.8-10.1-5.5-15.1-8.3c-2.1-1.1-4.1-2.2-6.2-3.3c-9.1-4.9-18.2-9.7-27.3-14.4
	c-2.7-1.4-5.5-2.8-8.2-4.2c-0.1-0.1-0.2-0.1-0.3-0.2c-4.7-2.4-9.4-4.8-14.2-7.2c-1.4-0.7-2.9-1.5-4.3-2.2c-2-1-3.9-2-5.9-3
	c-2.8-1.4-5.5-2.8-8.3-4.1c-1.9-1-3.9-1.9-5.8-2.9c-6.3-3.1-12.7-6.2-19.1-9.3c-2.8-1.3-5.6-2.7-8.4-4c-2.9-1.4-5.7-2.7-8.6-4.1
	c-3.8-1.8-7.6-3.6-11.5-5.4c-3-1.4-5.9-2.8-8.9-4.1c-8.8-4.1-17.7-8.1-26.6-12c-1.2-0.5-2.4-1.1-3.6-1.6c-2.8-1.2-5.5-2.5-8.3-3.6
	c-2.9-1.3-5.8-2.6-8.8-3.8c-1.7-0.7-3.3-1.4-5-2.2c-3.9-1.7-7.8-3.3-11.7-5c-3.8-1.6-7.5-3.2-11.3-4.8c-0.3-0.1-0.5-0.2-0.8-0.3
	c-3.6-1.5-7.2-3-10.8-4.5c-0.4-0.2-0.9-0.4-1.3-0.5c-3.6-1.5-7.3-3-10.9-4.4c-1.3-0.5-2.6-1-3.9-1.6c-1.3-0.5-2.6-1-3.9-1.5
	c-1.1-0.5-2.3-0.9-3.4-1.4c-2.3-0.9-4.6-1.8-6.9-2.7c-2.3-0.9-4.6-1.8-6.8-2.7c-1.9-0.7-3.8-1.5-5.7-2.2c-1.5-0.6-2.9-1.1-4.4-1.7
	c-1.5-0.6-3-1.2-4.5-1.7c-1.5-0.6-3-1.1-4.5-1.7c-3-1.1-6-2.3-9-3.4c-1.7-0.7-3.4-1.3-5.2-1.9c-4.1-1.5-8.3-3.1-12.4-4.6
	c-3.9-1.4-7.9-2.9-11.8-4.3c-3.9-1.4-7.8-2.8-11.7-4.2c-0.1,0-0.1-0.1-0.2-0.1c-4-1.4-7.9-2.8-11.9-4.2c-2.9-1-5.9-2-8.8-3.1
	c-3.3-1.1-6.5-2.2-9.8-3.3c-3.2-1.1-6.4-2.2-9.6-3.2c-3.1-1-6.2-2.1-9.4-3.1c-3.5-1.2-7.1-2.3-10.6-3.5c-2-0.7-4-1.3-6-1.9
	c-3.9-1.2-7.8-2.5-11.7-3.7c-3.9-1.2-7.9-2.5-11.8-3.7c-4-1.2-7.9-2.4-11.9-3.6c-4-1.2-8-2.4-12-3.6c-2.2-0.7-4.4-1.3-6.6-2
	c-0.4-0.1-0.7-0.2-1.1-0.3h0c-0.4-0.1-0.7-0.2-1.1-0.3h876.8c-1.6-0.5-3.3-1-4.9-1.5c1.6,0.5,3.3,1,4.9,1.5h71.9
	c0.1,0.1,0.3,0.2,0.4,0.3c21.7,15.8,43.2,31.9,64.4,48.2c0,0,0,0,0,0l0,0C1733.7,128,1829.7,211.5,1920,299.9z"/>
<path fill="#DE0000" d="M1639.9,2031.5c1.3,3.5,2.6,6.9,3.8,10.4H816.4c-62.1-172.9-142-337.8-236.5-487.6c0,0,0,0,0,0
	C421.9,1303.9,223.4,1096,0,963.9h0V470.8h0c5.6,0.8,11.2,1.7,16.9,2.6c3.4,0.5,6.7,1.1,10.1,1.7c1.8,0.3,3.6,0.6,5.4,0.9
	c3.6,0.6,7.2,1.2,10.8,1.9c7.2,1.3,14.4,2.6,21.6,4c1.3,0.2,2.5,0.5,3.8,0.8c7.4,1.4,14.8,2.9,22.1,4.5c2.5,0.5,5.1,1.1,7.6,1.6
	c1.4,0.3,2.8,0.6,4.2,0.9c1.8,0.4,3.7,0.8,5.5,1.2c1.8,0.4,3.6,0.8,5.3,1.2c2.8,0.6,5.7,1.3,8.5,2c4.4,1,8.8,2.1,13.1,3.1
	c1.8,0.4,3.6,0.9,5.4,1.3c1.8,0.4,3.6,0.9,5.4,1.3c1.8,0.5,3.6,0.9,5.4,1.4c1.8,0.5,3.6,0.9,5.4,1.4c2.4,0.6,4.8,1.2,7.1,1.9
	c1.4,0.4,2.8,0.7,4.2,1.1c1.6,0.4,3.3,0.9,4.9,1.3c1.4,0.4,2.9,0.8,4.3,1.2c2.7,0.7,5.4,1.5,8.1,2.2c1.4,0.4,2.9,0.8,4.3,1.2
	c1.6,0.5,3.3,0.9,4.9,1.4c1.4,0.4,2.9,0.8,4.3,1.2c2.3,0.7,4.6,1.3,6.9,2c1.3,0.4,2.7,0.8,4,1.2c1.4,0.4,2.8,0.8,4.1,1.2
	c0.8,0.2,1.5,0.5,2.3,0.7c5.1,1.5,10.2,3.1,15.3,4.7c2.1,0.7,4.2,1.3,6.3,2c1.7,0.5,3.5,1.1,5.2,1.7c2.6,0.8,5.2,1.7,7.8,2.5
	c0.9,0.3,1.8,0.6,2.7,0.9c2.1,0.7,4.2,1.4,6.3,2.1c1.6,0.5,3.2,1.1,4.8,1.6c1.8,0.6,3.5,1.2,5.3,1.8c1.3,0.4,2.6,0.9,4,1.4
	c1.3,0.4,2.6,0.9,3.9,1.4c4.5,1.6,9.1,3.2,13.6,4.8c2.2,0.8,4.3,1.5,6.4,2.3c0.9,0.3,1.8,0.6,2.7,1c1.2,0.4,2.4,0.9,3.5,1.3
	c4.9,1.8,9.8,3.6,14.7,5.5c1.6,0.6,3.2,1.2,4.9,1.9c0.3,0.1,0.6,0.2,1,0.4c1.6,0.6,3.3,1.3,5,1.9c5.4,2.1,10.8,4.2,16.2,6.4
	c392.8,157.6,776.1,490.7,1092.6,1040.3c3.4,6,6.8,11.9,10.2,17.9c1.9,3.3,3.7,6.6,5.6,9.8c1.3,2.4,2.7,4.8,4,7.1c1.7,3,3.4,6,5,9
	c9.2,16.5,18.1,32.9,26.8,49.3c0.8,1.5,1.6,3,2.4,4.5c1.6,3,3.1,6,4.7,8.9c1.6,3.1,3.2,6.2,4.8,9.2c1.6,3.1,3.2,6.2,4.8,9.2
	c0.9,1.8,1.8,3.5,2.7,5.3c0.9,1.8,1.8,3.6,2.8,5.4c1.3,2.6,2.7,5.3,4,7.9c1.3,2.6,2.7,5.3,4,7.9c2,3.9,4,7.9,5.9,11.8
	c1.6,3.3,3.3,6.6,4.9,9.9c1.1,2.3,2.2,4.6,3.4,6.9c2.2,4.6,4.5,9.1,6.7,13.7c1.1,2.3,2.2,4.6,3.3,6.8c5.5,11.4,10.8,22.8,16.1,34.1
	c1,2.3,2.1,4.5,3.1,6.8c1.1,2.3,2.1,4.5,3.1,6.8c1,2.2,2,4.4,3,6.6c1.6,3.4,3.1,6.9,4.6,10.3c1.5,3.4,3.1,6.8,4.6,10.3
	c1,2.3,2,4.5,3,6.8c2,4.5,4,9,5.9,13.5c2,4.5,3.9,9,5.8,13.5c1.3,3.1,2.6,6.2,3.9,9.2c1.6,3.7,3.1,7.3,4.6,11
	c0.9,2.2,1.9,4.5,2.8,6.7c2.8,6.7,5.5,13.5,8.2,20.2c1.4,3.4,2.7,6.7,4,10.1c1.3,3.4,2.7,6.7,4,10.1c1,2.4,1.9,4.9,2.9,7.3
	c0.8,2,1.6,4,2.3,6c0.9,2.2,1.7,4.5,2.6,6.7c1,2.6,2,5.2,3,7.8c1.6,4.1,3.1,8.1,4.6,12.2C1637.6,2025.1,1638.8,2028.3,1639.9,2031.5
	z"/>
<path fill="#0040A8" d="M1643.8,2041.9c-1.3-3.5-2.5-6.9-3.8-10.4c-1.2-3.2-2.4-6.4-3.6-9.6c-1.5-4-3-8.1-4.6-12.2
	c-1-2.6-2-5.2-3-7.8c-0.9-2.2-1.7-4.5-2.6-6.7c-0.8-2-1.6-4-2.3-6c-1-2.4-1.9-4.9-2.9-7.3c-1.3-3.4-2.6-6.7-4-10.1
	c-1.3-3.3-2.7-6.7-4-10.1c-2.7-6.7-5.5-13.4-8.2-20.2c-0.9-2.2-1.8-4.5-2.8-6.7c-1.5-3.7-3.1-7.3-4.6-11c-1.3-3.1-2.6-6.2-3.9-9.2
	c-1.9-4.5-3.9-9-5.8-13.5c-1.9-4.5-3.9-9-5.9-13.5c-1-2.3-2-4.5-3-6.8c-1.5-3.4-3-6.8-4.6-10.3c-1.5-3.4-3.1-6.9-4.6-10.3
	c-1-2.2-2-4.4-3-6.6c-1-2.3-2.1-4.5-3.1-6.8c-1-2.3-2.1-4.5-3.1-6.8c-5.3-11.4-10.6-22.7-16.1-34.1c-1.1-2.3-2.2-4.6-3.3-6.8
	c-2.2-4.6-4.4-9.1-6.7-13.7c-1.1-2.3-2.2-4.6-3.4-6.9c-1.6-3.3-3.2-6.6-4.9-9.9c-2-3.9-3.9-7.8-5.9-11.8c-1.3-2.6-2.7-5.3-4-7.9
	c-1.3-2.6-2.7-5.3-4-7.9c-0.9-1.8-1.8-3.6-2.8-5.4c-0.9-1.8-1.8-3.5-2.7-5.3c-1.6-3.1-3.2-6.2-4.8-9.2c-1.6-3.1-3.2-6.2-4.8-9.2
	c-1.6-3-3.1-6-4.7-8.9c-0.8-1.5-1.6-3-2.4-4.5c-8.7-16.4-17.6-32.8-26.8-49.3c-1.6-3-3.3-6-5-9c-1.3-2.4-2.6-4.7-4-7.1
	c-1.8-3.3-3.7-6.6-5.6-9.8c-3.4-6-6.8-11.9-10.2-17.9C1121.7,1055.6,738.3,722.4,345.5,564.8c-5.4-2.2-10.8-4.3-16.2-6.4
	c-1.7-0.6-3.3-1.3-5-1.9c-0.3-0.1-0.6-0.2-1-0.4c-1.6-0.6-3.2-1.2-4.9-1.9c-4.9-1.9-9.8-3.7-14.7-5.5c-1.2-0.4-2.4-0.9-3.5-1.3
	c-0.9-0.3-1.8-0.7-2.7-1c-2.1-0.8-4.3-1.6-6.4-2.3c-4.5-1.6-9.1-3.2-13.6-4.8c-1.3-0.5-2.6-0.9-3.9-1.4c-1.3-0.5-2.7-0.9-4-1.4
	c-1.8-0.6-3.5-1.2-5.3-1.8c-1.6-0.5-3.2-1.1-4.8-1.6c-2.1-0.7-4.2-1.4-6.3-2.1c-0.9-0.3-1.8-0.6-2.7-0.9c-2.6-0.9-5.2-1.7-7.8-2.5
	c-1.7-0.6-3.5-1.1-5.2-1.7c-2.1-0.7-4.2-1.3-6.3-2c-5.1-1.6-10.2-3.2-15.3-4.7c-0.8-0.2-1.5-0.5-2.3-0.7c-1.4-0.4-2.8-0.8-4.1-1.2
	c-1.3-0.4-2.7-0.8-4-1.2c-2.3-0.7-4.6-1.4-6.9-2c-1.4-0.4-2.8-0.8-4.3-1.2c-1.6-0.5-3.3-0.9-4.9-1.4c-1.4-0.4-2.9-0.8-4.3-1.2
	c-2.7-0.8-5.4-1.5-8.1-2.2c-1.4-0.4-2.9-0.8-4.3-1.2c-1.6-0.5-3.3-0.9-4.9-1.3c-1.4-0.4-2.8-0.7-4.2-1.1c-2.4-0.6-4.8-1.2-7.1-1.9
	c-1.8-0.5-3.6-0.9-5.4-1.4s-3.6-0.9-5.4-1.4c-1.8-0.5-3.6-0.9-5.4-1.3c-1.8-0.5-3.6-0.9-5.4-1.3c-4.4-1.1-8.8-2.1-13.1-3.1
	c-2.8-0.7-5.7-1.3-8.5-2c-1.8-0.4-3.5-0.8-5.3-1.2c-1.8-0.4-3.6-0.8-5.5-1.2c-1.4-0.3-2.8-0.6-4.2-0.9c-2.5-0.6-5.1-1.1-7.6-1.6
	c-7.4-1.6-14.8-3.1-22.1-4.5c-1.3-0.3-2.5-0.5-3.8-0.8c-7.2-1.4-14.4-2.7-21.6-4c-3.6-0.6-7.2-1.3-10.8-1.9
	c-1.8-0.3-3.6-0.6-5.4-0.9c-3.4-0.6-6.7-1.1-10.1-1.7c-5.6-0.9-11.2-1.8-16.9-2.6h0V231.2h0l4.5,1.1c1.3,0.3,2.6,0.6,3.9,1
	c1.9,0.5,3.8,0.9,5.7,1.4c1.7,0.4,3.4,0.9,5.2,1.3c3.3,0.8,6.7,1.7,10,2.5c1.3,0.3,2.5,0.7,3.8,1c1.6,0.4,3.3,0.9,4.9,1.3
	c1.3,0.3,2.7,0.7,4,1.1c1.5,0.4,3.1,0.8,4.6,1.2c1.2,0.3,2.3,0.6,3.5,0.9c0.3,0.1,0.6,0.2,1,0.3c2.1,0.6,4.2,1.1,6.3,1.7
	c3,0.8,6.1,1.7,9.1,2.5c2.7,0.8,5.4,1.5,8.1,2.3c3.6,1,7.2,2,10.7,3.1c1.3,0.4,2.6,0.8,3.9,1.1c4.5,1.3,9.1,2.7,13.6,4
	c2.2,0.7,4.3,1.3,6.5,2c0.3,0.1,0.7,0.2,1,0.3c3.5,1.1,7.1,2.2,10.6,3.3c3,0.9,6,1.9,9,2.8c2.6,0.8,5.1,1.6,7.7,2.5
	c0.1,0,0.2,0.1,0.3,0.1c2.5,0.8,5.1,1.6,7.6,2.5c0.8,0.3,1.6,0.5,2.4,0.8c2.2,0.7,4.5,1.5,6.7,2.2c1.1,0.3,2.1,0.7,3.2,1.1
	c3.1,1,6.2,2.1,9.3,3.1c2.5,0.8,4.9,1.7,7.4,2.5c3.1,1.1,6.1,2.1,9.2,3.2c5.5,1.9,11,3.9,16.4,5.8c1.2,0.4,2.4,0.9,3.5,1.3
	c2.3,0.8,4.5,1.6,6.8,2.5c3,1.1,5.9,2.2,8.9,3.3c3,1.1,5.9,2.2,8.9,3.3c9.2,3.5,18.5,7.1,27.6,10.7c2.8,1.1,5.7,2.2,8.5,3.4
	c3.1,1.2,6.2,2.5,9.4,3.8c1.3,0.5,2.7,1.1,4,1.6c3.1,1.2,6.1,2.5,9.2,3.8c0.1,0.1,0.3,0.1,0.5,0.2c2,0.8,3.9,1.6,5.9,2.5
	c2.1,0.9,4.3,1.8,6.4,2.7c2.4,1,4.7,2,7.1,3c1.6,0.7,3.3,1.4,4.9,2.1c0.4,0.2,0.8,0.3,1.2,0.5c1.8,0.8,3.6,1.5,5.3,2.3
	c0.6,0.2,1.1,0.5,1.7,0.7c1.8,0.8,3.6,1.6,5.4,2.4c2.1,0.9,4.2,1.9,6.4,2.8c0,0,0,0,0,0c3.1,1.4,6.2,2.8,9.2,4.2
	c2.8,1.3,5.7,2.6,8.5,3.9c2.7,1.2,5.4,2.5,8.1,3.8c1.2,0.5,2.3,1.1,3.5,1.6c2.4,1.1,4.8,2.3,7.2,3.4c0.1,0,0.2,0.1,0.3,0.2
	c2.1,1,4.1,1.9,6.2,2.9c2.2,1.1,4.5,2.1,6.7,3.2c0.5,0.2,1,0.5,1.4,0.7c1.5,0.7,2.9,1.4,4.4,2.1c3.9,1.9,7.8,3.8,11.7,5.7
	c5.9,2.9,11.7,5.8,17.5,8.8c2.8,1.4,5.5,2.8,8.3,4.2c2.8,1.4,5.5,2.8,8.2,4.3c2.7,1.4,5.5,2.9,8.2,4.3c5.5,2.9,10.9,5.8,16.4,8.7
	s10.9,5.9,16.3,8.9c10.8,6,21.5,12,32.2,18.2c2.7,1.5,5.3,3.1,8,4.6c5.3,3.1,10.6,6.2,15.9,9.4h0c3.2,1.9,6.4,3.8,9.6,5.8
	c2.7,1.6,5.4,3.3,8.1,4.9c0.3,0.2,0.6,0.4,0.9,0.6c0.4,0.2,0.8,0.5,1.2,0.8c3,1.8,5.9,3.6,8.9,5.5c3.2,2,6.4,3.9,9.5,5.9
	c2.4,1.5,4.9,3.1,7.3,4.6c2.4,1.5,4.9,3.1,7.3,4.6c2.4,1.5,4.8,3.1,7.3,4.7c2.4,1.5,4.7,3,7,4.5c0.1,0.1,0.2,0.2,0.4,0.2
	c2.4,1.5,4.7,3.1,7.1,4.6c2.4,1.6,4.8,3.2,7.2,4.8c4.8,3.2,9.6,6.4,14.3,9.6c2.4,1.6,4.8,3.2,7.1,4.8c2.4,1.6,4.7,3.2,7.1,4.9
	s4.7,3.3,7.1,4.9c0.5,0.3,1,0.7,1.4,1c0.1,0,0.1,0.1,0.2,0.1c1.5,1,3,2.1,4.5,3.1c0.7,0.5,1.5,1,2.2,1.5c1.9,1.4,3.9,2.7,5.8,4.1
	c0.3,0.2,0.6,0.5,1,0.7c2,1.4,4,2.9,6,4.3c2.5,1.8,5,3.6,7.5,5.4c2.2,1.6,4.3,3.1,6.5,4.7c2.2,1.6,4.3,3.2,6.5,4.7
	c6.5,4.8,12.9,9.5,19.4,14.4c2.1,1.6,4.3,3.2,6.4,4.8c2.9,2.2,5.9,4.5,8.8,6.7c1.1,0.8,2.1,1.6,3.2,2.5c3,2.3,6,4.6,9,6.9
	c2.7,2.1,5.4,4.2,8.2,6.4c2.6,2,5.2,4.1,7.8,6.2c0,0,0,0,0.1,0c0.2,0.1,0.4,0.3,0.5,0.4c0,0,0,0,0,0c2.6,2.1,5.2,4.1,7.8,6.2
	c2.7,2.2,5.4,4.3,8,6.5c5.4,4.3,10.7,8.7,16,13.1c0.3,0.2,0.6,0.5,0.9,0.7c5,4.1,10,8.3,15,12.5c1.3,1.1,2.6,2.2,4,3.3
	c1.3,1.1,2.6,2.2,3.9,3.3c2.6,2.2,5.2,4.5,7.9,6.7c3,2.5,5.9,5.1,8.8,7.6c2,1.7,4,3.4,5.9,5.2c0.5,0.4,1,0.9,1.5,1.3
	c2.1,1.8,4.2,3.7,6.3,5.6c9.5,8.4,18.9,16.8,28.2,25.4c1.3,1.2,2.7,2.5,4,3.7c3,2.7,5.9,5.4,8.8,8.1c1.6,1.5,3.3,3.1,4.9,4.6
	c2.2,2.1,4.4,4.1,6.6,6.2c0.4,0.4,0.8,0.7,1.2,1.1c1.3,1.2,2.7,2.5,4,3.8c1.9,1.8,3.9,3.7,5.8,5.6c1.9,1.8,3.8,3.7,5.8,5.5
	c0.2,0.2,0.4,0.3,0.5,0.5c1.5,1.5,3.1,2.9,4.6,4.4c1.2,1.2,2.5,2.4,3.7,3.6c1.8,1.7,3.5,3.5,5.3,5.2c3.3,3.2,6.6,6.5,9.8,9.7
	c3.3,3.2,6.5,6.5,9.8,9.8c0.5,0.5,1.1,1.1,1.6,1.6c1.6,1.6,3.2,3.3,4.9,4.9c2.3,2.3,4.5,4.6,6.8,6.9c1,1,1.9,2,2.9,3
	c9.1,9.4,18.2,18.8,27.2,28.3c1.6,1.7,3.2,3.4,4.8,5c3.2,3.4,6.3,6.8,9.5,10.1c2.7,2.9,5.4,5.8,8,8.7c1,1.1,1.9,2.1,2.9,3.2
	c2.6,2.8,5.2,5.7,7.8,8.6c0,0,0,0,0,0c3.1,3.4,6.2,6.9,9.3,10.3c3.1,3.5,6.2,6.9,9.2,10.4c1.5,1.7,3,3.4,4.5,5.2
	c1.3,1.5,2.6,3,3.9,4.4c1.4,1.6,2.8,3.2,4.2,4.8c1.9,2.2,3.8,4.4,5.7,6.5c1.5,1.8,3,3.5,4.5,5.3c1.5,1.8,3,3.5,4.5,5.3
	c1.5,1.8,3,3.5,4.5,5.3c1.9,2.2,3.8,4.4,5.6,6.7c1.7,2,3.4,4.1,5.1,6.1c0.7,0.8,1.3,1.5,1.9,2.3c0.5,0.6,1,1.1,1.4,1.7
	c0.9,1.1,1.8,2.2,2.7,3.2c1.8,2.2,3.6,4.4,5.5,6.6v0c3.9,4.8,7.9,9.6,11.8,14.4c2.4,3,4.9,6,7.3,9c2.4,3,4.8,6,7.3,9.1
	c2.4,3,4.8,6.1,7.2,9.1c2.4,3,4.8,6.1,7.2,9.2c1.5,2,3.1,3.9,4.6,5.9c1.5,1.9,2.9,3.8,4.4,5.7c2.1,2.7,4.2,5.4,6.2,8.1
	c1.7,2.3,3.5,4.5,5.2,6.8c1.8,2.3,3.5,4.6,5.2,6.9c1.7,2.3,3.4,4.5,5.1,6.8c0.3,0.3,0.5,0.7,0.8,1c1.6,2.1,3.2,4.2,4.8,6.4
	c2.5,3.4,5,6.8,7.5,10.2c2,2.7,4,5.4,6,8.1c2,2.7,3.9,5.4,5.9,8.1c1.6,2.3,3.3,4.5,4.9,6.8c1.4,1.9,2.8,3.8,4.1,5.8
	c1.5,2.1,3,4.2,4.6,6.4c5.6,7.9,11.2,15.8,16.7,23.8c1.4,2,2.8,4,4.2,6c4.7,6.8,9.4,13.7,14.1,20.6c1.2,1.8,2.5,3.7,3.8,5.6
	c0.4,0.5,0.7,1.1,1.1,1.6c1.9,2.8,3.8,5.7,5.7,8.5c1.8,2.7,3.6,5.4,5.4,8.1s3.5,5.4,5.3,8.1c1.9,2.9,3.8,5.7,5.6,8.6
	c1.5,2.3,2.9,4.5,4.4,6.8c0.8,1.3,1.7,2.6,2.5,3.8c1.4,2.2,2.8,4.4,4.3,6.6c1.8,2.9,3.7,5.8,5.5,8.7c1.8,2.9,3.7,5.8,5.5,8.7
	c1.6,2.5,3.1,4.9,4.7,7.4c0.1,0.2,0.3,0.4,0.4,0.7c2.7,4.4,5.4,8.7,8.1,13.1c0.1,0.1,0.1,0.2,0.2,0.3c2.8,4.5,5.5,9,8.3,13.5
	c1.8,2.9,3.6,5.9,5.3,8.8v0c2.4,4,4.8,8.1,7.3,12.1c2.4,4,4.8,8.1,7.2,12.1c3.2,5.4,6.4,10.8,9.5,16.3c1.6,2.7,3.2,5.4,4.7,8.2
	c1.6,2.7,3.2,5.4,4.7,8.2c2.6,4.5,5.1,9,7.7,13.5c0.5,1,1.1,1.9,1.6,2.9c2.2,3.8,4.3,7.7,6.5,11.6c0,0.1,0.1,0.2,0.1,0.2
	c0.3,0.5,0.5,0.9,0.8,1.4c2.5,4.6,5.1,9.2,7.6,13.8c2.6,4.8,5.2,9.6,7.9,14.4c0,0.1,0.1,0.1,0.1,0.2c1.3,2.4,2.6,4.8,3.9,7.3
	c1.3,2.4,2.5,4.7,3.8,7.1c2.1,3.8,4.1,7.6,6.1,11.5c1.5,2.8,2.9,5.6,4.4,8.4c1,1.9,2,3.9,3.1,5.8c0.2,0.4,0.4,0.7,0.6,1.1
	c2.3,4.3,4.5,8.7,6.8,13c0.2,0.3,0.3,0.6,0.5,0.9c2.2,4.2,4.4,8.5,6.5,12.7c0.3,0.6,0.7,1.3,1,1.9c2.4,4.7,4.8,9.3,7.1,14
	c4.3,8.5,8.5,17,12.7,25.5c2.2,4.6,4.5,9.1,6.7,13.7c1.8,3.8,3.7,7.6,5.5,11.3c0.4,0.8,0.8,1.6,1.2,2.4c2.5,5.1,4.9,10.2,7.3,15.3
	c2.7,5.8,5.4,11.5,8.1,17.3c1.9,4.1,3.8,8.1,5.6,12.2c0.2,0.4,0.4,0.8,0.6,1.3c1.9,4.1,3.8,8.2,5.6,12.4c0,0,0,0.1,0.1,0.1
	c2.3,5,4.6,10.1,6.8,15.1c2.2,5,4.5,10.1,6.7,15.2c2.2,5.1,4.5,10.1,6.7,15.2c2.2,5.1,4.4,10.2,6.6,15.2c1.3,3,2.6,6,3.8,9
	c5,11.7,9.9,23.4,14.7,35.2c2.4,5.9,4.8,11.8,7.2,17.7c1.2,2.9,2.4,5.9,3.6,8.9c1.2,3,2.4,5.9,3.5,8.9c1.5,3.7,2.9,7.4,4.4,11.1
	c1.5,3.7,2.9,7.4,4.3,11.1c1.4,3.7,2.9,7.4,4.3,11.1c1.4,3.7,2.8,7.4,4.3,11.2c2.3,5.9,4.5,11.9,6.7,17.9c1.6,4.4,3.3,8.8,4.9,13.2
	c1.6,4.4,3.2,8.8,4.8,13.2c2.2,6.1,4.5,12.3,6.7,18.5c3.1,8.8,6.2,17.6,9.3,26.4c0.1,0.2,0.1,0.4,0.2,0.6c1,3,2.1,6,3.1,9
	c2.1,6,4.1,12.1,6.2,18.1c1,3,2,6,3,9.1c1.5,4.4,2.9,8.8,4.4,13.3c1.4,4.4,2.9,8.8,4.4,13.3c0.1,0.2,0.1,0.5,0.2,0.7
	c2.9,8.8,5.7,17.7,8.5,26.6c0.1,0.2,0.2,0.5,0.2,0.7c1.2,3.7,2.3,7.5,3.5,11.2c1.1,3.6,2.2,7.2,3.4,10.8c0.1,0.3,0.2,0.5,0.2,0.8
	c2.2,7.3,4.5,14.7,6.7,22c0.1,0.3,0.2,0.5,0.2,0.8c0.9,3.1,1.8,6.1,2.7,9.2c0.8,2.6,1.5,5.2,2.3,7.8c0.2,0.7,0.4,1.4,0.6,2.1
	c0.3,0.9,0.5,1.8,0.8,2.8c1.4,4.6,2.7,9.3,4.1,14c1,3.4,1.9,6.7,2.9,10.1c0.9,3.1,1.7,6.1,2.6,9.2c0.8,3,1.7,6,2.5,9
	c0.3,1.1,0.6,2.1,0.9,3.2c0.6,2.1,1.2,4.2,1.7,6.3"/>
<path fill="#FFA500" d="M1920,955.5v1086.3h-17.3c0-0.2,0-0.4,0-0.6c-0.1-2.1-0.3-4.3-0.5-6.4c-0.2-2.8-0.4-5.7-0.6-8.5
	c-0.3-3.5-0.5-7-0.8-10.5c-0.3-3.6-0.6-7.2-0.9-10.8c-0.3-3.3-0.6-6.7-0.9-10c-0.2-2.1-0.4-4.3-0.6-6.4c-0.2-1.9-0.4-3.9-0.5-5.8
	c-0.2-1.9-0.3-3.8-0.5-5.6c0-0.3-0.1-0.6-0.1-1c-0.3-2.9-0.6-5.8-0.9-8.7c-0.2-1.5-0.3-3.1-0.5-4.6c-0.2-2-0.4-4.1-0.6-6.1
	c-0.3-3.2-0.7-6.4-1.1-9.7c-0.2-1.5-0.3-2.9-0.5-4.4c-0.3-3.1-0.7-6.2-1.1-9.3c0-0.4-0.1-0.9-0.2-1.3c-0.3-2.7-0.6-5.3-1-8
	c-0.5-4.3-1.1-8.6-1.6-12.9c-0.4-3.1-0.8-6.2-1.2-9.3c-0.3-2.4-0.6-4.7-0.9-7.1c-0.3-2.5-0.7-5-1-7.5c-1.1-7.7-2.2-15.3-3.3-23
	c-0.4-2.8-0.8-5.5-1.3-8.3c-0.2-1.1-0.3-2.1-0.5-3.2c-0.3-2-0.6-4-0.9-5.9c-0.2-1.4-0.4-2.8-0.7-4.2c-0.9-5.4-1.7-10.7-2.6-16.1
	c-1.1-6.3-2.2-12.6-3.3-18.9c-2.8-15.8-5.8-31.6-9-47.4c-0.1-0.7-0.3-1.3-0.4-2c-1.1-5.7-2.3-11.3-3.5-17c-0.7-3.2-1.3-6.3-2-9.5
	c-0.7-3.2-1.4-6.3-2.1-9.5c0-0.1-0.1-0.3-0.1-0.4c-0.7-3.1-1.4-6.1-2-9.1c-0.7-3.2-1.4-6.3-2.2-9.5c-0.7-3-1.4-6-2.1-9
	c-0.8-3.4-1.6-6.7-2.4-10.1c-0.8-3.1-1.5-6.3-2.3-9.4c-0.8-3.2-1.6-6.4-2.4-9.5c-0.8-3.2-1.6-6.4-2.4-9.5c-0.6-2.2-1.1-4.4-1.7-6.6
	c-1.9-7.3-3.9-14.7-5.9-22c-0.8-2.8-1.5-5.6-2.3-8.4c-1.9-6.8-3.8-13.6-5.8-20.4c-0.8-2.9-1.7-5.7-2.5-8.6c-0.1-0.5-0.3-0.9-0.4-1.4
	c-0.7-2.3-1.3-4.6-2-6.8c-1-3.4-2-6.9-3.1-10.3c-1-3.4-2.1-6.8-3.1-10.3c-0.3-1-0.6-2-1-3.1c-0.7-2.4-1.5-4.8-2.2-7.2
	c-1-3.1-2-6.3-3-9.4c-0.2-0.6-0.4-1.1-0.6-1.7c-0.8-2.6-1.7-5.2-2.5-7.8c-1.1-3.5-2.3-7-3.4-10.5c-1-2.9-2-5.9-2.9-8.8
	c-1.1-3.3-2.2-6.7-3.4-10c-1-3-2.1-6.1-3.2-9.1c-1-2.9-2-5.7-3-8.6c-0.1-0.3-0.2-0.6-0.3-1c-1-2.9-2-5.7-3.1-8.6
	c-2.5-7-5.1-14-7.6-20.9c-1.1-2.9-2.2-5.8-3.2-8.7c-1.2-3.2-2.4-6.4-3.6-9.6c-1.5-3.9-3-7.7-4.5-11.6c-1.4-3.7-2.8-7.3-4.2-11
	c-1.2-3-2.4-6.1-3.6-9.1c-0.8-1.9-1.5-3.9-2.3-5.8c-0.1-0.2-0.2-0.4-0.3-0.7c-2.5-6.5-5.1-12.9-7.6-19.3c-1.3-3.2-2.6-6.5-3.9-9.7
	c-4.8-11.9-9.6-23.6-14.5-35.3c-0.9-2.2-1.8-4.4-2.7-6.5c-0.3-0.6-0.5-1.3-0.8-1.9c-0.9-2.2-1.8-4.3-2.7-6.5
	c-2.1-5-4.2-10.1-6.4-15.1c-1-2.4-2-4.8-3-7.2c-13.2-30.9-26.7-61.2-40.4-90.9c-1-2.3-2.1-4.6-3.2-6.9
	c-5.9-12.7-11.9-25.3-17.9-37.9c-1.5-3.1-3-6.2-4.5-9.3c-1.1-2.3-2.2-4.6-3.3-6.8c-1-2-2-4.1-3-6.1c-10.9-22.3-22-44.3-33.2-65.9
	c-1-1.9-2-3.8-3-5.8c-5.7-10.9-11.4-21.7-17.1-32.4c-1-1.9-2-3.8-3.1-5.7c-5.7-10.7-11.5-21.2-17.3-31.7c-1.1-2.1-2.3-4.1-3.4-6.2
	c-2.4-4.3-4.8-8.6-7.2-12.8c-1-1.9-2.1-3.7-3.2-5.6c-0.1-0.1-0.1-0.3-0.2-0.4c-1.3-2.3-2.6-4.6-3.9-6.9c-1.5-2.7-3-5.3-4.5-8
	c-2.2-3.9-4.5-7.8-6.7-11.6c-1-1.8-2.1-3.6-3.2-5.4c-1.8-3.1-3.6-6.2-5.5-9.3c-7.2-12.3-14.5-24.5-21.9-36.5c-1-1.7-2.1-3.4-3.2-5.2
	c-1.3-2.1-2.6-4.2-3.8-6.3c-1.8-2.9-3.6-5.8-5.4-8.7c-1.7-2.8-3.4-5.5-5.1-8.2c-0.1-0.2-0.2-0.4-0.4-0.6c-1.8-2.9-3.7-5.9-5.5-8.8
	c-0.4-0.7-0.8-1.4-1.3-2c-4.8-7.6-9.6-15.1-14.5-22.6c-0.4-0.7-0.9-1.4-1.3-2c-1.7-2.7-3.5-5.3-5.2-8c-1.9-2.9-3.8-5.7-5.6-8.6
	c-1.8-2.7-3.6-5.4-5.4-8.1c-0.2-0.4-0.5-0.8-0.7-1.1c-1.7-2.6-3.4-5.2-5.2-7.7c-11.8-17.6-23.7-34.8-35.6-51.8
	c-1.4-2-2.9-4.1-4.3-6.1c-1.9-2.7-3.8-5.4-5.8-8.1c-5.9-8.2-11.8-16.4-17.8-24.5c-1.8-2.5-3.6-5-5.5-7.4
	c-6.9-9.3-13.8-18.5-20.8-27.6c-2.2-2.9-4.4-5.7-6.5-8.5c-1.4-1.8-2.8-3.6-4.1-5.3c-2.5-3.2-5-6.4-7.4-9.6c-1.3-1.6-2.6-3.3-3.9-4.9
	c0,0,0,0,0,0c-2.1-2.7-4.3-5.4-6.4-8.1c-1.4-1.8-2.9-3.6-4.3-5.4c-4.3-5.3-8.5-10.6-12.8-15.9c-1.6-2-3.2-4-4.9-6
	c-14.1-17.2-28.3-34-42.6-50.5c-2-2.3-4.1-4.7-6.1-7c-2.2-2.5-4.3-4.9-6.5-7.4c-1.9-2.1-3.8-4.3-5.7-6.4c-0.1-0.1-0.2-0.2-0.2-0.3
	c-1.9-2.2-3.9-4.4-5.8-6.5c-0.1-0.2-0.3-0.3-0.4-0.5c-2-2.2-4-4.4-6-6.6c-2.1-2.3-4.1-4.5-6.2-6.8c-6.2-6.8-12.4-13.5-18.7-20.2
	c-2.1-2.2-4.2-4.4-6.3-6.6c-2.1-2.2-4.2-4.4-6.3-6.6c-4.3-4.5-8.6-9-12.9-13.4c-1.4-1.4-2.8-2.9-4.2-4.3c-1.3-1.3-2.5-2.6-3.8-3.9
	c-5.7-5.8-11.4-11.5-17.1-17.2c-2.1-2.1-4.2-4.2-6.4-6.3c-4.2-4.2-8.5-8.4-12.8-12.5c-2.4-2.3-4.8-4.6-7.2-6.9
	c-1.6-1.6-3.2-3.1-4.9-4.7c-2.4-2.3-4.8-4.6-7.2-6.8c-10.8-10.2-21.6-20.2-32.5-30.1c-2.1-1.9-4.2-3.8-6.3-5.7
	c-2.2-2-4.3-3.9-6.5-5.8c-2.2-1.9-4.3-3.9-6.5-5.8c-1.7-1.5-3.4-3-5.1-4.5c-2.8-2.5-5.6-4.9-8.4-7.3c-2-1.8-4.1-3.5-6.1-5.3
	c-2.2-1.9-4.4-3.8-6.6-5.6c-5.1-4.3-10.2-8.6-15.3-12.8c-1.5-1.3-3-2.5-4.5-3.8c-0.6-0.5-1.2-1-1.8-1.5c-3.8-3.2-7.6-6.3-11.5-9.4
	c-2.2-1.8-4.4-3.6-6.6-5.4c-4.4-3.6-8.9-7.1-13.3-10.6c-2.2-1.8-4.4-3.5-6.7-5.3c-2.2-1.8-4.5-3.5-6.7-5.2c-2.2-1.7-4.5-3.5-6.7-5.2
	c-2.2-1.7-4.5-3.4-6.7-5.2c-4.5-3.4-9-6.8-13.4-10.2c-2.2-1.7-4.5-3.4-6.7-5c-1.9-1.4-3.9-2.9-5.8-4.3c-2.6-1.9-5.1-3.8-7.7-5.6
	c-4.5-3.3-9-6.5-13.5-9.8c-2.3-1.6-4.5-3.2-6.8-4.8c-2.2-1.6-4.4-3.1-6.6-4.7c-2.3-1.6-4.7-3.3-7-4.9c-4.7-3.3-9.4-6.5-14.2-9.8
	c-2-1.4-4.1-2.8-6.2-4.2c-0.1-0.1-0.2-0.2-0.4-0.2c-2.2-1.5-4.4-3-6.6-4.5c-2.3-1.5-4.6-3.1-6.9-4.6c-4.6-3-9.2-6.1-13.8-9
	c-9.2-6-18.4-11.9-27.6-17.6c-4.6-2.9-9.2-5.8-13.9-8.6c-2.3-1.4-4.6-2.8-6.9-4.2c-2.3-1.4-4.6-2.8-6.9-4.2c-2.3-1.4-4.6-2.8-7-4.2
	c-4.6-2.8-9.3-5.5-14-8.2c-4.6-2.7-9.3-5.4-14-8.1c-2.3-1.3-4.7-2.7-7-4c-2.3-1.3-4.7-2.6-7-4c-4.7-2.6-9.4-5.2-14-7.8
	c-2.3-1.3-4.7-2.6-7-3.9c-2.4-1.3-4.7-2.6-7-3.8c-2.2-1.2-4.4-2.4-6.6-3.5c-2.5-1.3-5-2.7-7.5-4c-2.4-1.2-4.7-2.5-7.1-3.7
	c-2-1.1-4-2.1-6.1-3.1c-2.7-1.4-5.4-2.8-8.1-4.2c-8.5-4.4-17-8.6-25.6-12.8c-1.6-0.8-3.2-1.6-4.8-2.4c-1.7-0.8-3.4-1.6-5-2.5
	c-16-7.8-32-15.2-48.1-22.5c-1.5-0.7-2.9-1.3-4.4-2c-3.3-1.5-6.7-3-10-4.4c-1.7-0.7-3.4-1.5-5.1-2.2c-2.1-0.9-4.2-1.8-6.2-2.7
	c-2.8-1.2-5.6-2.4-8.3-3.6c-1.6-0.7-3.2-1.4-4.9-2.1c-5.2-2.2-10.5-4.4-15.7-6.6c-1.7-0.7-3.4-1.4-5.2-2.1c-1.7-0.7-3.4-1.4-5.2-2.1
	c-2.2-0.9-4.3-1.8-6.5-2.6c-1.9-0.8-3.9-1.5-5.8-2.3c-15.5-6.2-31-12.1-46.5-17.8c-0.3-0.1-0.6-0.2-0.9-0.3h148.6c0,0,0,0,0,0
	c0.4,0.1,0.7,0.2,1.1,0.3h0c0.4,0.1,0.7,0.2,1.1,0.3c2.2,0.6,4.4,1.3,6.6,2c4,1.2,8,2.4,12,3.6c4,1.2,7.9,2.4,11.9,3.6
	c4,1.2,7.9,2.5,11.8,3.7c3.9,1.2,7.8,2.5,11.7,3.7c2,0.6,4,1.3,6,1.9c3.5,1.1,7.1,2.3,10.6,3.5c3.1,1,6.2,2.1,9.4,3.1
	c3.2,1.1,6.4,2.1,9.6,3.2c3.3,1.1,6.5,2.2,9.8,3.3c3,1,5.9,2,8.8,3.1c4,1.4,8,2.8,11.9,4.2c0.1,0,0.1,0,0.2,0.1
	c3.9,1.4,7.8,2.8,11.7,4.2c3.9,1.4,7.9,2.8,11.8,4.3c4.2,1.5,8.3,3,12.4,4.6c1.7,0.6,3.4,1.3,5.2,1.9c3,1.1,6,2.3,9,3.4
	c1.5,0.6,3,1.1,4.5,1.7c1.5,0.6,3,1.1,4.5,1.7c1.5,0.6,2.9,1.1,4.4,1.7c1.9,0.7,3.8,1.5,5.7,2.2c2.3,0.9,4.6,1.8,6.8,2.7
	c2.3,0.9,4.6,1.8,6.9,2.7c1.1,0.4,2.3,0.9,3.4,1.4c1.3,0.5,2.6,1,3.9,1.5c1.3,0.5,2.6,1,3.9,1.6c3.6,1.5,7.3,3,10.9,4.4
	c0.4,0.2,0.9,0.4,1.3,0.5c3.6,1.5,7.2,3,10.8,4.5c0.3,0.1,0.5,0.2,0.8,0.3c3.8,1.6,7.6,3.2,11.3,4.8c3.9,1.6,7.8,3.3,11.7,5
	c1.7,0.7,3.3,1.4,5,2.2c2.9,1.3,5.9,2.5,8.8,3.8c2.8,1.2,5.5,2.4,8.3,3.6c1.2,0.5,2.4,1.1,3.6,1.6c8.9,3.9,17.8,7.9,26.6,12
	c3,1.4,6,2.7,8.9,4.1c3.8,1.8,7.7,3.6,11.5,5.4c2.9,1.3,5.7,2.7,8.6,4.1c2.8,1.3,5.6,2.7,8.4,4c6.4,3.1,12.8,6.2,19.1,9.3
	c2,1,3.9,1.9,5.8,2.9c2.8,1.4,5.5,2.7,8.3,4.1c2,1,3.9,2,5.9,3c1.4,0.7,2.9,1.4,4.3,2.2c4.7,2.4,9.5,4.8,14.2,7.2
	c0.1,0.1,0.2,0.1,0.3,0.2c2.7,1.4,5.5,2.8,8.2,4.2c9.1,4.8,18.2,9.6,27.3,14.4c2.1,1.1,4.1,2.2,6.2,3.3c5.1,2.7,10.1,5.5,15.1,8.3
	c2.7,1.5,5.3,3,8,4.4c7.8,4.4,15.6,8.8,23.4,13.2c1.8,1,3.6,2,5.3,3.1c4.5,2.6,8.9,5.2,13.4,7.8c1.9,1.1,3.7,2.2,5.6,3.2
	c3.5,2.1,7,4.1,10.5,6.2c2.8,1.7,5.6,3.4,8.5,5.1c1.8,1.1,3.6,2.2,5.4,3.3c2.5,1.5,5,3,7.5,4.5c3.5,2.1,6.9,4.2,10.4,6.4
	c1.7,1.1,3.5,2.2,5.2,3.2c2.4,1.5,4.8,2.9,7.1,4.4c2.6,1.6,5.1,3.2,7.7,4.8c2.6,1.6,5.1,3.2,7.7,4.9s5.1,3.3,7.7,4.9
	c2.5,1.6,4.9,3.1,7.3,4.7c5.3,3.4,10.6,6.9,15.8,10.3c2.4,1.6,4.8,3.2,7.2,4.8c2.5,1.7,5,3.4,7.6,5c2.5,1.7,5,3.4,7.5,5.1
	c0.3,0.2,0.7,0.4,1,0.7c4.3,2.9,8.6,5.8,12.9,8.8c5.6,3.9,11.2,7.7,16.8,11.6c2,1.4,3.9,2.7,5.9,4.1c5.3,3.7,10.5,7.4,15.7,11.1
	c2.4,1.7,4.7,3.4,7.1,5.1c2.9,2.1,5.8,4.2,8.7,6.3c2,1.4,3.9,2.9,5.9,4.3c2.7,2,5.3,3.9,8,5.9c3.4,2.5,6.7,5,10.1,7.5
	c3.5,2.6,6.9,5.2,10.4,7.8c12.2,9.2,24.2,18.5,36.2,27.9c1.8,1.4,3.6,2.9,5.4,4.3c7.8,6.2,15.6,12.4,23.4,18.7
	c2.1,1.7,4.2,3.4,6.3,5.1c2.6,2.2,5.3,4.3,7.9,6.5c14,11.6,27.9,23.3,41.7,35.1c1.9,1.6,3.8,3.2,5.6,4.9
	c13.7,11.8,27.2,23.8,40.5,36c2.1,1.9,4.1,3.7,6.2,5.6c3.6,3.3,7.3,6.7,10.9,10c0.3,0.2,0.6,0.5,0.8,0.8c3.5,3.2,7,6.5,10.5,9.8
	c0.9,0.8,1.8,1.6,2.6,2.4c2.7,2.6,5.5,5.1,8.2,7.7c0.1,0.1,0.3,0.3,0.4,0.4c1.4,1.3,2.8,2.7,4.2,4c0.5,0.4,0.9,0.9,1.4,1.3
	c2.5,2.4,5,4.8,7.5,7.1c3.1,3,6.2,5.9,9.2,8.9c0.3,0.3,0.6,0.5,0.8,0.8c3,2.9,6.1,5.9,9.1,8.8c0.5,0.5,1,0.9,1.4,1.4
	c3.6,3.5,7.1,7,10.7,10.6c3.7,3.6,7.3,7.3,10.9,10.9c3.6,3.6,7.2,7.3,10.8,11c0,0,0,0,0,0c3.6,3.7,7.2,7.3,10.8,11
	c3.6,3.7,7.2,7.4,10.7,11.1c3.6,3.7,7.1,7.4,10.7,11.2c3.5,3.7,7.1,7.5,10.6,11.2c7,7.5,14,15.1,21,22.7c3.5,3.8,6.9,7.6,10.4,11.4
	c6.9,7.6,13.7,15.3,20.5,23c3.4,3.9,6.8,7.7,10.2,11.6c3,3.5,6.1,7,9.1,10.5c1,1.1,1.9,2.2,2.9,3.4c2.5,2.9,5,5.8,7.4,8.7
	c0.7,0.8,1.3,1.6,2,2.4c2.9,3.4,5.8,6.8,8.7,10.3c2.7,3.2,5.4,6.4,8.1,9.7c1.5,1.8,3,3.6,4.5,5.4c0,0,0,0.1,0.1,0.1
	c1.4,1.6,2.7,3.3,4,4.9c4.3,5.2,8.6,10.4,12.8,15.6c2.3,2.8,4.6,5.6,6.9,8.5c0.6,0.8,1.3,1.6,1.9,2.3c0.9,1.1,1.8,2.2,2.7,3.4
	c0.2,0.3,0.5,0.5,0.7,0.8c2.4,3,4.8,6,7.2,9.1c3.2,4,6.4,8.1,9.6,12.1c12.7,16.2,25.2,32.5,37.5,49c6.2,8.2,12.3,16.5,18.4,24.8
	c2.3,3.1,4.6,6.2,6.8,9.4c1,1.4,2,2.8,3.1,4.2c2.2,3.1,4.4,6.1,6.6,9.2c0.1,0.2,0.2,0.3,0.4,0.5c1.6,2.2,3.1,4.3,4.6,6.5
	c0.8,1.1,1.6,2.2,2.4,3.4C1915.6,949.3,1917.8,952.4,1920,955.5z"/>
<path fill="#0094DA" d="M255.4,2036.4c1,1.8,2,3.7,3,5.5H150.1c-0.8-0.7-1.6-1.5-2.4-2.2c0,0,0,0,0,0c-1.1-1.1-2.3-2.1-3.4-3.1
	c-1.1-1-2.1-2-3.2-2.9c-0.7-0.7-1.5-1.4-2.2-2c-0.6-0.5-1.2-1.1-1.8-1.6c-1.6-1.4-3.2-2.9-4.8-4.3c-1.7-1.5-3.4-3-5.1-4.5
	c-1.2-1.1-2.5-2.2-3.7-3.3c-1.3-1.2-2.7-2.3-4-3.5c-1.5-1.3-3-2.6-4.5-3.9c-1.5-1.3-3-2.6-4.5-3.8c-1.2-1.1-2.5-2.1-3.7-3.1
	c-2-1.7-4-3.4-6-5c0,0,0,0,0,0c-1.3-1.1-2.6-2.1-3.9-3.2c-3.1-2.5-6.1-5-9.2-7.4c-1.1-0.9-2.2-1.8-3.4-2.7c-1.7-1.4-3.5-2.7-5.2-4.1
	c-0.4-0.3-0.8-0.6-1.2-0.9c-1.6-1.3-3.2-2.5-4.9-3.8c-2.2-1.7-4.5-3.5-6.8-5.2c-0.2-0.2-0.4-0.3-0.6-0.5c-0.3-0.2-0.5-0.4-0.8-0.6
	c-1.8-1.4-3.7-2.8-5.5-4.1c-1.3-1-2.7-2-4.1-3c-0.2-0.2-0.4-0.3-0.6-0.5c-0.4-0.3-0.8-0.6-1.3-0.9c-1.7-1.3-3.5-2.5-5.2-3.8
	c-0.5-0.3-0.9-0.7-1.4-1c-2.2-1.6-4.5-3.2-6.7-4.8c-1.6-1.2-3.3-2.3-4.9-3.5c-1.6-1.2-3.3-2.3-4.9-3.4c-3.3-2.3-6.6-4.5-9.9-6.8
	c-1.7-1.1-3.3-2.2-5-3.3c-1.5-1-3-2-4.5-3c-3.5-2.3-7.1-4.6-10.7-6.9h0v-249.5c0,0,0,0,0,0c0.2,0.2,0.4,0.4,0.5,0.6
	c1.2,1.3,2.5,2.6,3.7,3.9c0,0,0.1,0.1,0.1,0.1c0,0.1,0.1,0.1,0.2,0.2c2.3,2.5,4.6,4.9,6.9,7.4c0.1,0.1,0.1,0.2,0.2,0.2
	c2,2.2,4,4.4,6,6.6c1.5,1.7,3.1,3.4,4.6,5.1c1.5,1.7,3,3.4,4.5,5.1c2.1,2.3,4.1,4.7,6.2,7c1.2,1.3,2.3,2.6,3.5,4
	c0.2,0.3,0.5,0.6,0.8,0.9c2,2.3,3.9,4.5,5.9,6.8c0.1,0.1,0.2,0.3,0.3,0.4c0.1,0.1,0.2,0.3,0.4,0.4c2,2.3,4,4.7,6,7
	c0.1,0.1,0.1,0.2,0.2,0.3c1.3,1.5,2.6,3.1,3.9,4.6c1.4,1.6,2.7,3.2,4,4.8c0,0,0.1,0.1,0.1,0.1c2.2,2.7,4.5,5.4,6.7,8.1
	c2.2,2.7,4.5,5.5,6.7,8.2c1.1,1.4,2.3,2.8,3.4,4.3c1.1,1.4,2.3,2.8,3.4,4.3c0,0,0,0,0,0.1c2,2.5,4,5,6,7.5c2,2.5,4,5.1,5.9,7.6
	c1.3,1.7,2.6,3.4,3.9,5.1c1.3,1.7,2.6,3.4,3.9,5.1c1.3,1.7,2.6,3.4,3.9,5.1s2.6,3.4,3.9,5.1c2.6,3.4,5.1,6.8,7.7,10.2
	c1.2,1.6,2.4,3.2,3.6,4.9c2.6,3.5,5.2,7.1,7.7,10.6c1.2,1.7,2.5,3.5,3.7,5.2c2.5,3.5,4.9,6.9,7.4,10.4c1.2,1.7,2.5,3.5,3.7,5.2
	c6.1,8.7,12.1,17.4,18,26.2c1.2,1.8,2.4,3.5,3.5,5.3c2.4,3.5,4.7,7,7,10.6c1.2,1.8,2.3,3.5,3.5,5.3c4.6,7.1,9.2,14.1,13.7,21.2
	c2.3,3.6,4.5,7.1,6.7,10.7c2.3,3.8,4.7,7.5,7,11.3c1,1.6,2,3.2,2.9,4.8c1.1,1.8,2.2,3.6,3.3,5.4c1.3,2.2,2.6,4.4,4,6.5
	c0.8,1.4,1.7,2.8,2.5,4.2c1,1.8,2.1,3.5,3.1,5.2c1.1,1.8,2.2,3.7,3.3,5.5c1.1,1.8,2.1,3.6,3.2,5.4c0.5,0.8,1,1.7,1.5,2.5
	c0.2,0.4,0.5,0.8,0.7,1.2c1.4,2.4,2.8,4.7,4.1,7.1c1,1.8,2.1,3.6,3.1,5.4c1.2,2.1,2.4,4.2,3.6,6.3c4.5,7.8,8.9,15.7,13.2,23.5
	c0.7,1.3,1.5,2.7,2.2,4c1.3,2.4,2.6,4.8,3.9,7.2C254,2033.8,254.8,2035.1,255.4,2036.4z"/>
<path fill="#FC4A6A" d="M1078.5,2041.9H910.1c-0.8-1.7-1.6-3.3-2.4-5c-2.9-6-5.8-12-8.7-17.9c-0.9-1.8-1.8-3.6-2.7-5.4
	c-0.5-1-1-2-1.5-3.1c-0.9-1.8-1.7-3.5-2.6-5.3c-0.7-1.4-1.4-2.9-2.2-4.3c-0.1-0.3-0.3-0.6-0.4-0.8c-0.8-1.6-1.6-3.2-2.4-4.8
	c-1.4-2.8-2.8-5.5-4.2-8.2c-3-5.8-6-11.7-9.1-17.5c-1.3-2.4-2.5-4.8-3.8-7.1c-1.3-2.5-2.7-5-4-7.5c-2.1-3.9-4.2-7.7-6.3-11.6
	c-1-1.8-1.9-3.5-2.9-5.3c-1.8-3.2-3.6-6.5-5.4-9.7s-3.6-6.5-5.4-9.7c-1.2-2.1-2.4-4.3-3.6-6.4c0,0,0,0,0-0.1
	c-1.2-2.1-2.4-4.2-3.6-6.3c-1.5-2.7-3.1-5.3-4.6-8c-1.5-2.7-3.1-5.3-4.7-8c-2.5-4.3-5-8.5-7.6-12.8c-0.3-0.5-0.7-1.1-1-1.6
	c-2.1-3.4-4.1-6.9-6.2-10.3c-0.1-0.1-0.1-0.2-0.2-0.3c-0.9-1.5-1.8-3-2.8-4.5c-0.2-0.4-0.5-0.8-0.7-1.2c-0.3-0.5-0.6-0.9-0.9-1.4
	c-0.1-0.1-0.2-0.3-0.2-0.4c-1.4-2.3-2.8-4.6-4.2-6.9c-1.6-2.6-3.2-5.2-4.9-7.8c-3.2-5.2-6.5-10.4-9.8-15.5c-1.6-2.6-3.3-5.1-5-7.7
	c-1.6-2.5-3.2-5-4.8-7.4c-0.1-0.1-0.2-0.2-0.2-0.4c-0.1-0.1-0.2-0.3-0.3-0.4c-1.6-2.4-3.1-4.8-4.7-7.2c-1.6-2.5-3.3-5-5-7.5
	c0,0,0,0,0,0c-0.1-0.1-0.1-0.2-0.2-0.2c-1.6-2.5-3.3-5-5-7.4c-1.7-2.5-3.4-5.1-5.1-7.6c-1.7-2.5-3.4-5-5.2-7.6
	c-1.5-2.1-2.9-4.2-4.4-6.3c-0.5-0.7-1-1.4-1.5-2.1c-1.5-2.2-3-4.4-4.6-6.6c-1.6-2.4-3.3-4.7-5-7.1c0,0-0.1-0.1-0.1-0.2
	c-0.2-0.3-0.5-0.7-0.7-1c-0.1-0.2-0.3-0.4-0.5-0.7c-1.4-2-2.9-4-4.3-6c-1.8-2.5-3.5-4.9-5.3-7.4c-3.6-4.9-7.1-9.8-10.8-14.7
	c-1.8-2.4-3.6-4.9-5.4-7.3c-1.7-2.2-3.3-4.5-5-6.7c-0.4-0.5-0.8-1-1.2-1.5c-1.5-2-3-3.9-4.4-5.9c0,0-0.1-0.1-0.1-0.1
	c-0.3-0.4-0.6-0.8-0.9-1.2c-2.2-2.9-4.5-5.9-6.7-8.8c-3.4-4.4-6.8-8.8-10.2-13.1c-3.4-4.4-6.8-8.7-10.3-13c-1.9-2.4-3.8-4.7-5.7-7.1
	c-0.9-1.2-1.9-2.4-2.8-3.5c-0.9-1.2-1.9-2.4-2.9-3.5c-3.8-4.7-7.7-9.4-11.5-14c-1.9-2.3-3.9-4.7-5.8-7c-1.9-2.3-3.9-4.6-5.8-6.9
	c-1.9-2.3-3.9-4.6-5.9-6.9c-1.9-2.3-3.9-4.6-5.9-6.9c-3.9-4.6-7.9-9.1-11.9-13.7c-2-2.3-4-4.5-6-6.8c-2-2.2-4-4.5-6-6.7
	c-2-2.2-4-4.5-6-6.7c-1-1.1-2-2.2-3-3.3s-2-2.2-3-3.3c-2-2.2-4.1-4.4-6.1-6.7c-2-2.2-4.1-4.4-6.1-6.6c0,0,0,0,0,0
	c-0.2-0.2-0.4-0.4-0.5-0.6c-1.8-2-3.6-3.9-5.5-5.9c-1.8-1.9-3.7-3.9-5.5-5.8c-1.7-1.9-3.5-3.7-5.3-5.6c-1.9-2-3.9-4-5.8-6
	c-1.9-1.9-3.7-3.8-5.6-5.8c-1.9-1.9-3.7-3.8-5.6-5.7c-3.7-3.8-7.5-7.6-11.2-11.4c-4.1-4.1-8.2-8.2-12.3-12.2
	c-0.2-0.2-0.5-0.5-0.7-0.7c-2.9-2.8-5.7-5.6-8.6-8.4c-1.5-1.5-3-2.9-4.5-4.4c-1.1-1-2.1-2-3.2-3.1c-1.6-1.5-3.2-3-4.8-4.5
	c-0.4-0.4-0.7-0.7-1.1-1.1c-0.2-0.2-0.5-0.5-0.7-0.7c-2-1.9-3.9-3.7-5.9-5.6c-0.1-0.1-0.2-0.2-0.3-0.3c-0.5-0.5-1-0.9-1.5-1.4
	c-1.3-1.2-2.6-2.4-3.9-3.7c-0.3-0.3-0.5-0.5-0.8-0.8c-1-1-2.1-1.9-3.1-2.9c-2-1.9-4-3.8-6.1-5.6c-1.8-1.7-3.6-3.3-5.5-5
	c-0.2-0.2-0.4-0.4-0.7-0.6c-1-0.9-2-1.8-3-2.8c-1.4-1.3-2.8-2.5-4.2-3.8c-0.3-0.2-0.6-0.5-0.8-0.8c-0.5-0.5-1.1-1-1.7-1.5
	c-1.7-1.5-3.4-3-5.1-4.5c-1.2-1-2.3-2.1-3.5-3.1c-0.2-0.2-0.4-0.4-0.6-0.6c-1.5-1.4-3-2.7-4.6-4c-3.4-3-6.8-5.9-10.2-8.9
	c-0.3-0.3-0.7-0.6-1-0.9c-1.2-1.1-2.5-2.2-3.8-3.2c-5-4.3-10.1-8.6-15.1-12.9c-5.4-4.5-10.8-9-16.3-13.5
	c-5.4-4.5-10.9-8.9-16.4-13.3c-5.5-4.4-11-8.8-16.5-13.1c0,0,0,0,0,0c-5.5-4.3-11.1-8.6-16.7-12.9c-2.2-1.7-4.4-3.3-6.6-5
	c-1.4-1-2.8-2.1-4.2-3.1c-1.2-0.9-2.4-1.8-3.6-2.7c-1.2-0.9-2.4-1.8-3.5-2.7c-0.2-0.2-0.4-0.3-0.6-0.5c-2.2-1.6-4.4-3.3-6.7-4.9
	c-2.2-1.7-4.5-3.3-6.8-4.9c0,0-0.1,0-0.1-0.1c-1.2-0.9-2.5-1.8-3.8-2.7c-3.8-2.8-7.7-5.5-11.5-8.3c-1.5-1.1-3-2.1-4.5-3.2
	c-1.8-1.3-3.6-2.5-5.4-3.8c-1.3-0.9-2.6-1.8-3.9-2.7c-2.3-1.6-4.6-3.2-6.9-4.8c-5.8-4-11.5-7.9-17.3-11.8
	c-5.8-3.9-11.6-7.7-17.5-11.6c-5.8-3.8-11.7-7.6-17.6-11.3c-2.4-1.5-4.8-3.1-7.2-4.6c0,0-0.1-0.1-0.1-0.1c-1.5-1-3.1-1.9-4.6-2.9
	c-0.4-0.3-0.8-0.5-1.3-0.8c-1.3-0.8-2.7-1.7-4-2.5c-0.5-0.3-1-0.6-1.5-0.9c-1.8-1.1-3.5-2.2-5.3-3.2c-1.2-0.8-2.5-1.5-3.7-2.3
	c-2.4-1.4-4.8-2.9-7.2-4.3c-2.3-1.4-4.6-2.8-6.9-4.1c-1.3-0.8-2.6-1.6-4-2.4c-0.1-0.1-0.3-0.2-0.4-0.2c-2.2-1.3-4.4-2.6-6.6-3.9
	c0,0,0,0,0,0c-0.3-0.2-0.7-0.4-1-0.6c-2.9-1.7-5.7-3.3-8.6-5c-2.3-1.3-4.6-2.6-6.9-3.9c-0.4-0.2-0.7-0.4-1.1-0.6
	c-1.6-0.9-3.2-1.8-4.8-2.7c-0.4-0.2-0.8-0.5-1.2-0.7c-0.6-0.3-1.2-0.7-1.8-1c-1.5-0.8-2.9-1.7-4.4-2.5c-2.2-1.2-4.3-2.4-6.5-3.6
	c0,0,0,0-0.1,0c-0.2-0.1-0.4-0.2-0.6-0.4c-2.5-1.4-5.1-2.8-7.7-4.2c-0.5-0.3-1.1-0.6-1.6-0.9c-0.3-0.1-0.5-0.3-0.8-0.4
	c-2.3-1.2-4.5-2.4-6.8-3.6c-0.4-0.2-0.8-0.5-1.3-0.7c-0.4-0.2-0.8-0.4-1.3-0.7c-1.4-0.8-2.8-1.5-4.3-2.3c-0.4-0.2-0.9-0.4-1.3-0.7
	c-1.4-0.7-2.8-1.5-4.1-2.2c-1.7-0.9-3.4-1.8-5.2-2.7c-1.3-0.7-2.6-1.4-3.9-2c-2.1-1.1-4.2-2.2-6.3-3.2c-2.1-1.1-4.2-2.2-6.3-3.2
	c-0.9-0.5-1.9-0.9-2.8-1.4c-1.6-0.8-3.2-1.6-4.8-2.4l-0.4-0.2c-2.4-1.2-4.7-2.4-7.1-3.5c-1.6-0.8-3.2-1.6-4.8-2.4
	c-2.6-1.3-5.3-2.6-7.9-3.9c-0.7-0.4-1.5-0.7-2.2-1.1c-2.9-1.4-5.8-2.8-8.7-4.1c-1.7-0.8-3.5-1.7-5.2-2.5c-1.7-0.8-3.5-1.6-5.2-2.4
	c-1.4-0.7-2.8-1.3-4.3-2c-1.1-0.5-2.2-1-3.4-1.5c-2.9-1.3-5.8-2.7-8.8-4c-0.4-0.2-0.8-0.4-1.2-0.6c-1.8-0.8-3.6-1.6-5.3-2.4l0,0
	c-1.8-0.8-3.6-1.6-5.4-2.4c-1.5-0.6-2.9-1.3-4.4-1.9c-0.8-0.4-1.7-0.7-2.5-1.1c-1-0.5-2.1-0.9-3.1-1.4c-1-0.4-2.1-0.9-3.1-1.3
	c0,0,0,0,0,0V678.8c0,0,0,0,0,0c439.5,132.5,797.5,449.8,969.5,897c37.9,98.8,66,201.1,84.1,305.3
	C1063.1,1935.2,1071.4,1988.8,1078.5,2041.9z"/>
<path fill="#DE0000" d="M147.7,2039.7c0.8,0.7,1.6,1.5,2.4,2.2H0v-116.7h0c3.6,2.3,7.1,4.6,10.7,6.9c1.5,1,3,2,4.5,3
	c1.7,1.1,3.3,2.2,5,3.3c3.3,2.2,6.6,4.5,9.9,6.8c1.7,1.1,3.3,2.3,4.9,3.4c1.6,1.1,3.3,2.3,4.9,3.5c2.3,1.6,4.5,3.2,6.7,4.8
	c0.5,0.3,0.9,0.7,1.4,1c1.8,1.3,3.5,2.5,5.2,3.8c0.4,0.3,0.8,0.6,1.3,0.9c0.2,0.2,0.4,0.3,0.6,0.5c1.4,1,2.7,2,4.1,3
	c1.8,1.4,3.7,2.8,5.5,4.1c0.3,0.2,0.5,0.4,0.8,0.6c0.2,0.1,0.4,0.3,0.6,0.5c2.3,1.7,4.5,3.4,6.8,5.2c1.6,1.2,3.3,2.5,4.9,3.8
	c0.4,0.3,0.8,0.6,1.2,0.9c1.7,1.3,3.5,2.7,5.2,4.1c1.1,0.9,2.2,1.8,3.4,2.7c3.1,2.5,6.2,4.9,9.2,7.4c1.3,1,2.6,2.1,3.9,3.2
	c0,0,0,0,0,0c2,1.7,4,3.3,6,5c1.2,1,2.5,2.1,3.7,3.1c1.5,1.3,3,2.5,4.5,3.8c1.5,1.3,3,2.6,4.5,3.9c1.3,1.2,2.7,2.3,4,3.5
	c1.2,1.1,2.5,2.2,3.7,3.3c1.7,1.5,3.4,3,5.1,4.5c1.6,1.4,3.2,2.9,4.8,4.3c0.6,0.5,1.2,1.1,1.8,1.6c0.8,0.7,1.5,1.4,2.2,2
	c1.1,1,2.1,2,3.2,2.9C145.5,2037.5,146.6,2038.6,147.7,2039.7C147.7,2039.6,147.7,2039.6,147.7,2039.7z"/>
<path fill="#FFA500" d="M910.1,2041.9H258.4c-1-1.8-2-3.7-3-5.5c-0.7-1.3-1.4-2.6-2.1-3.9c-1.3-2.4-2.6-4.8-3.9-7.2
	c-0.7-1.3-1.5-2.7-2.2-4c-4.3-7.8-8.7-15.7-13.2-23.5c-1.2-2.1-2.4-4.2-3.6-6.3c-1-1.8-2.1-3.6-3.1-5.4c-1.4-2.4-2.7-4.7-4.1-7.1
	c-0.2-0.4-0.5-0.8-0.7-1.2c-0.5-0.8-1-1.7-1.5-2.5c-1-1.8-2.1-3.6-3.2-5.4c-1.1-1.8-2.2-3.7-3.3-5.5c-1-1.8-2.1-3.5-3.1-5.2
	c-0.8-1.4-1.7-2.8-2.5-4.2c-1.3-2.2-2.6-4.4-4-6.5c-1.1-1.8-2.2-3.6-3.3-5.4c-1-1.6-1.9-3.2-2.9-4.8c-2.3-3.8-4.6-7.5-7-11.3
	c-2.2-3.6-4.5-7.1-6.7-10.7c-4.5-7.1-9.1-14.2-13.7-21.2c-1.1-1.8-2.3-3.5-3.5-5.3c-2.3-3.5-4.7-7.1-7-10.6
	c-1.2-1.8-2.4-3.5-3.5-5.3c-5.9-8.8-11.9-17.5-18-26.2c-1.2-1.7-2.4-3.5-3.7-5.2c-2.5-3.5-4.9-6.9-7.4-10.4
	c-1.2-1.7-2.5-3.5-3.7-5.2c-2.5-3.5-5.1-7.1-7.7-10.6c-1.2-1.6-2.4-3.2-3.6-4.9c-2.5-3.4-5.1-6.8-7.7-10.2c-1.3-1.7-2.6-3.4-3.9-5.1
	s-2.6-3.4-3.9-5.1c-1.3-1.7-2.6-3.4-3.9-5.1c-1.3-1.7-2.6-3.4-3.9-5.1c-2-2.5-4-5.1-5.9-7.6c-2-2.5-4-5-6-7.5c0,0,0,0,0-0.1
	c-1.1-1.4-2.3-2.8-3.4-4.3c-1.1-1.4-2.3-2.8-3.4-4.3c-2.2-2.8-4.5-5.5-6.7-8.2c-2.2-2.7-4.4-5.4-6.7-8.1c0,0-0.1-0.1-0.1-0.1
	c-1.3-1.6-2.7-3.2-4-4.8c-1.3-1.6-2.6-3.1-3.9-4.6c-0.1-0.1-0.1-0.2-0.2-0.3c-2-2.3-4-4.7-6-7c-0.1-0.1-0.2-0.3-0.4-0.4
	c-0.1-0.1-0.2-0.3-0.3-0.4c-2-2.3-3.9-4.6-5.9-6.8c-0.3-0.3-0.5-0.6-0.8-0.9c-1.1-1.3-2.3-2.6-3.5-4c-2.1-2.3-4.1-4.7-6.2-7
	c-1.5-1.7-3-3.4-4.5-5.1c-1.5-1.7-3-3.4-4.6-5.1c-2-2.2-4-4.4-6-6.6c-0.1-0.1-0.1-0.2-0.2-0.2c-2.3-2.5-4.6-5-6.9-7.4
	c0-0.1-0.1-0.1-0.2-0.2c0,0-0.1-0.1-0.1-0.1c-1.2-1.3-2.4-2.6-3.7-3.9c-0.2-0.2-0.4-0.4-0.5-0.6c0,0,0,0,0,0v-535.1c0,0,0,0,0,0
	c1,0.4,2.1,0.9,3.1,1.3c1,0.4,2.1,0.9,3.1,1.4c0.8,0.4,1.7,0.7,2.5,1.1c1.5,0.6,2.9,1.3,4.4,1.9c1.8,0.8,3.6,1.6,5.4,2.4l0,0
	c1.8,0.8,3.6,1.6,5.3,2.4c0.4,0.2,0.8,0.4,1.2,0.6c2.9,1.3,5.8,2.6,8.8,4c1.1,0.5,2.2,1,3.4,1.5c1.4,0.6,2.8,1.3,4.3,2
	c1.7,0.8,3.5,1.6,5.2,2.4c1.8,0.8,3.5,1.6,5.2,2.5c2.9,1.4,5.8,2.7,8.7,4.1c0.8,0.4,1.5,0.7,2.2,1.1c2.7,1.3,5.3,2.6,7.9,3.9
	c1.6,0.8,3.2,1.6,4.8,2.4c2.4,1.2,4.7,2.3,7.1,3.5l0.4,0.2c1.6,0.8,3.2,1.6,4.8,2.4c0.9,0.5,1.8,0.9,2.8,1.4
	c2.1,1.1,4.2,2.1,6.3,3.2c2.1,1.1,4.2,2.2,6.3,3.2c1.3,0.7,2.6,1.4,3.9,2c1.7,0.9,3.4,1.8,5.2,2.7c1.4,0.7,2.8,1.4,4.1,2.2
	c0.4,0.2,0.9,0.4,1.3,0.7c1.4,0.8,2.8,1.5,4.3,2.3c0.4,0.2,0.8,0.5,1.3,0.7c0.4,0.2,0.8,0.5,1.3,0.7c2.3,1.2,4.5,2.4,6.8,3.6
	c0.3,0.1,0.5,0.3,0.8,0.4c0.5,0.3,1.1,0.6,1.6,0.9c2.6,1.4,5.1,2.8,7.7,4.2c0.2,0.1,0.4,0.2,0.6,0.4c0,0,0,0,0.1,0
	c2.2,1.2,4.3,2.4,6.5,3.6c1.5,0.8,2.9,1.6,4.4,2.5c0.6,0.3,1.2,0.7,1.8,1c0.4,0.2,0.8,0.5,1.2,0.7c1.6,0.9,3.2,1.8,4.8,2.7
	c0.3,0.2,0.7,0.4,1.1,0.6c2.3,1.3,4.6,2.6,6.9,3.9c2.9,1.7,5.7,3.3,8.6,5c0.3,0.2,0.7,0.4,1,0.6c0,0,0,0,0,0
	c2.2,1.3,4.4,2.6,6.6,3.9c0.1,0.1,0.3,0.2,0.4,0.2c1.3,0.8,2.6,1.6,4,2.4c2.3,1.4,4.6,2.8,6.9,4.1c2.4,1.4,4.8,2.9,7.2,4.3
	c1.2,0.8,2.5,1.5,3.7,2.3c1.8,1.1,3.5,2.2,5.3,3.2c0.5,0.3,1,0.6,1.5,0.9c1.4,0.8,2.7,1.7,4,2.5c0.4,0.3,0.8,0.5,1.3,0.8
	c1.5,1,3.1,1.9,4.6,2.9c0,0,0.1,0.1,0.1,0.1c2.4,1.5,4.8,3,7.2,4.6c5.9,3.7,11.7,7.5,17.6,11.3c5.8,3.8,11.7,7.7,17.5,11.6
	c5.8,3.9,11.6,7.8,17.3,11.8c2.3,1.6,4.6,3.2,6.9,4.8c1.3,0.9,2.6,1.8,3.9,2.7c1.8,1.2,3.6,2.5,5.4,3.8c1.5,1,3,2.1,4.5,3.2
	c3.9,2.8,7.7,5.5,11.5,8.3c1.3,0.9,2.5,1.8,3.8,2.7c0,0,0.1,0.1,0.1,0.1c2.3,1.6,4.5,3.3,6.8,4.9c2.2,1.6,4.5,3.3,6.7,4.9
	c0.2,0.2,0.4,0.3,0.6,0.5c1.2,0.9,2.4,1.8,3.5,2.7c1.2,0.9,2.4,1.8,3.6,2.7c1.4,1.1,2.8,2.1,4.2,3.1c2.2,1.7,4.4,3.3,6.6,5
	c5.6,4.3,11.1,8.6,16.7,12.9c0,0,0,0,0,0c5.5,4.3,11.1,8.7,16.5,13.1c5.5,4.4,11,8.8,16.4,13.3c5.4,4.5,10.9,9,16.3,13.5
	c5.1,4.2,10.1,8.5,15.1,12.9c1.2,1.1,2.5,2.2,3.8,3.2c0.3,0.3,0.7,0.6,1,0.9c3.4,3,6.8,5.9,10.2,8.9c1.5,1.3,3,2.7,4.6,4
	c0.2,0.2,0.4,0.4,0.6,0.6c1.2,1,2.3,2,3.5,3.1c1.7,1.5,3.4,3,5.1,4.5c0.5,0.5,1.1,1,1.7,1.5c0.3,0.2,0.5,0.5,0.8,0.8
	c1.4,1.2,2.8,2.5,4.2,3.8c1,0.9,2,1.8,3,2.8c0.2,0.2,0.4,0.4,0.7,0.6c1.8,1.7,3.6,3.3,5.5,5c2,1.9,4.1,3.7,6.1,5.6
	c1,1,2.1,1.9,3.1,2.9c0.3,0.3,0.5,0.5,0.8,0.8c1.3,1.2,2.6,2.4,3.9,3.7c0.5,0.5,1,0.9,1.5,1.4c0.1,0.1,0.2,0.2,0.3,0.3
	c2,1.8,3.9,3.7,5.9,5.6c0.2,0.2,0.5,0.5,0.7,0.7c0.4,0.3,0.7,0.7,1.1,1.1c1.6,1.5,3.2,3,4.8,4.5c1.1,1,2.1,2,3.2,3.1
	c1.5,1.5,3,2.9,4.5,4.4c2.9,2.8,5.7,5.6,8.6,8.4c0.2,0.2,0.5,0.5,0.7,0.7c4.1,4,8.2,8.1,12.3,12.2c3.8,3.8,7.5,7.6,11.2,11.4
	c1.9,1.9,3.7,3.8,5.6,5.7c1.9,1.9,3.7,3.8,5.6,5.8c1.9,2,3.9,4,5.8,6c1.8,1.9,3.5,3.7,5.3,5.6c1.8,1.9,3.7,3.9,5.5,5.8
	c1.8,2,3.7,3.9,5.5,5.9c0.2,0.2,0.4,0.4,0.5,0.6c0,0,0,0,0,0c2.1,2.2,4.1,4.4,6.1,6.6c2,2.2,4.1,4.4,6.1,6.7c1,1.1,2,2.2,3,3.3
	s2,2.2,3,3.3c2,2.2,4,4.5,6,6.7c2,2.2,4,4.5,6,6.7s4,4.5,6,6.8c4,4.5,7.9,9.1,11.9,13.7c2,2.3,3.9,4.6,5.9,6.9
	c2,2.3,3.9,4.6,5.9,6.9c2,2.3,3.9,4.6,5.8,6.9c1.9,2.3,3.9,4.6,5.8,7c3.9,4.6,7.7,9.3,11.5,14c1,1.2,1.9,2.3,2.9,3.5
	c1,1.2,1.9,2.3,2.8,3.5c1.9,2.3,3.8,4.7,5.7,7.1c3.5,4.3,6.9,8.7,10.3,13c3.4,4.4,6.8,8.7,10.2,13.1c2.3,2.9,4.5,5.9,6.7,8.8
	c0.3,0.4,0.6,0.8,0.9,1.2c0,0,0.1,0.1,0.1,0.1c1.5,2,3,3.9,4.4,5.9c0.4,0.5,0.8,1,1.2,1.5c1.7,2.2,3.3,4.5,5,6.7
	c1.8,2.4,3.6,4.9,5.4,7.3c3.6,4.9,7.2,9.8,10.8,14.7c1.8,2.5,3.6,4.9,5.3,7.4c1.4,2,2.9,4,4.3,6c0.1,0.2,0.3,0.4,0.5,0.7
	c0.2,0.3,0.5,0.7,0.7,1c0,0.1,0.1,0.1,0.1,0.2c1.7,2.4,3.3,4.7,5,7.1c1.5,2.2,3.1,4.4,4.6,6.6c0.5,0.7,1,1.4,1.5,2.1
	c1.5,2.1,2.9,4.2,4.4,6.3c1.7,2.5,3.4,5,5.2,7.6c1.7,2.5,3.4,5,5.1,7.6c1.7,2.5,3.3,5,5,7.4c0.1,0.1,0.1,0.2,0.2,0.2c0,0,0,0,0,0
	c1.7,2.5,3.3,5,5,7.5c1.6,2.4,3.1,4.8,4.7,7.2c0.1,0.1,0.2,0.3,0.3,0.4c0.1,0.1,0.2,0.2,0.2,0.4c1.6,2.5,3.2,5,4.8,7.4
	c1.7,2.6,3.3,5.1,5,7.7c3.3,5.2,6.6,10.3,9.8,15.5c1.6,2.6,3.2,5.2,4.9,7.8c1.4,2.3,2.8,4.6,4.2,6.9c0.1,0.1,0.2,0.3,0.2,0.4
	c0.3,0.5,0.6,0.9,0.9,1.4c0.2,0.4,0.5,0.8,0.7,1.2c0.9,1.5,1.8,3,2.8,4.5c0.1,0.1,0.1,0.2,0.2,0.3c2.1,3.4,4.1,6.8,6.2,10.3
	c0.3,0.5,0.7,1.1,1,1.6c2.5,4.2,5.1,8.5,7.6,12.8c1.6,2.7,3.1,5.3,4.7,8c1.5,2.7,3.1,5.3,4.6,8c1.2,2.1,2.4,4.2,3.6,6.3
	c0,0,0,0,0,0.1c1.2,2.1,2.4,4.2,3.6,6.4c1.8,3.2,3.6,6.5,5.4,9.7s3.6,6.5,5.4,9.7c1,1.8,1.9,3.5,2.9,5.3c2.1,3.8,4.2,7.7,6.3,11.6
	c1.4,2.5,2.7,5,4,7.5c1.3,2.4,2.5,4.8,3.8,7.1c3.1,5.8,6.1,11.6,9.1,17.5c1.4,2.8,2.8,5.5,4.2,8.2c0.8,1.6,1.6,3.2,2.4,4.8
	c0.1,0.3,0.3,0.6,0.4,0.8c0.7,1.4,1.4,2.9,2.2,4.3c0.9,1.8,1.8,3.5,2.6,5.3c0.5,1,1,2,1.5,3.1c0.9,1.8,1.8,3.6,2.7,5.4
	c2.9,6,5.8,11.9,8.7,17.9C908.5,2038.6,909.3,2040.2,910.1,2041.9z"/>
<rect y="1.9" fill="none" width="1920" height="2040"/>
</svg>
