<?xml version="1.0" encoding="utf-8"?>
<!-- Generator: Adobe Illustrator 27.5.0, SVG Export Plug-In . SVG Version: 6.00 Build 0)  -->
<svg version="1.1" id="Layer_1" xmlns="http://www.w3.org/2000/svg" xmlns:xlink="http://www.w3.org/1999/xlink" x="0px" y="0px"
	 viewBox="0 0 1605.7 32.7" enable-background="new 0 0 1605.7 32.7" xml:space="preserve">
<g>
	<defs>
		<rect id="SVGID_1_" width="1605.7" height="32.7"/>
	</defs>
	<clipPath id="SVGID_00000065060877150687566610000008894957700337633922_">
		<use xlink:href="#SVGID_1_"  overflow="visible"/>
	</clipPath>
	<g id="Group_629" transform="translate(0)" clip-path="url(#SVGID_00000065060877150687566610000008894957700337633922_)">
		<path id="Path_753" fill="#0094DA" d="M2101.3,182c35.7-23.3,93.1-74.8,0-123.5C1984.4-2.5,1815.9-26.1,1645.8-31
			c-12.5-0.1-24.9-0.2-37.3-0.2c-87.6,0-169.9,2.5-247.2,7c-682.9,70.4-774,205.4-783.9,225.7l10.3,1.8l48.1,7.9l-7.3-1.6l8.9,1.9
			l11.7,1.9c1.8-9.5,36.1-140.7,530.5-202.8c155.6-19.5,294.3-25.3,414.3-21.5c0.7,0,1.4,0,2.1,0.1c27,0.9,53.1,2.3,78.2,4.1
			c203.7,14.9,343.9,59.1,410.3,108.1C2134.5,130.6,2135.2,157.9,2101.3,182"/>
		<path id="Path_754" fill="#F74C6B" d="M1345.9-23.2c5.2-0.3,10.3-0.6,15.6-0.9c77.2-4.5,159.6-7,247.2-7c12.3,0,24.7,0.1,37.3,0.2
			c6.9,0.1,13.7,0.1,20.6,0.2c597.2,7.7,812.4,200,519.5,276.4c68.1-15.3,130.6-34.9,183-59.9c14.7-7,26.1-14.4,34.4-22.1
			c123.3-115-463.1-293.5-1241.3-196.1C607.1,37,348.1,163.3,347.5,164c0.1,0,34.6,5.7,60.8,10.1c15.9,2.6,28.7,4.7,28.9,4.7
			l8.9,1.4C475.6,163.9,761.3,13.4,1345.9-23.2"/>
		<path id="Path_755" fill="#DC0000" d="M1361.4-24.1c-5.2,0.3-10.4,0.6-15.6,0.9C761.3,13.4,475.6,163.9,446.1,180.2l131.4,21.4
			c0,0,0-0.1,0-0.1C587.4,181.3,678.5,46.3,1361.4-24.1"/>
		<path id="Path_756" fill="#DC0000" d="M1374.3,19.5c-69.9,10.6-129.2,26.3-170.2,45.8c21.3-8.2,47.5-15.3,77.5-21
			c14-2.7,28.9-5.1,44.5-7.2c45.3-6,96.7-9.4,151.3-9.4c19.8,0,40.1,0.4,60.7,1.3c7.5,0.3,15,0.7,22.5,1.2
			c159.7,9.5,296.7,53.5,339.1,100.7c-3.4-6.3-10.4-12.6-21.6-19.1c0,0,87.6,41.7,66.8,82.8c-20.8,41.1-149.7,81.7-581.9,79.8
			c-25,0.1-41.7-0.2-46.5-0.3c-1,0-1.5,0-1.5,0h-0.1l-0.1,0l1.7,0.1c23.4,1.2,308.4,14.8,527.7-18.7
			c120.5-18.4,215.2-43.5,257.1-73.4c33.9-24.2,33.2-51.4-16.5-80.7c-17-10-39.6-20.2-68.6-30.7c-92.9-33.4-199.8-52.9-306.3-61.2
			c-54.1-4.2-108.3-5.7-162.6-4.4c-13,0.3-25.9,0.8-38.6,1.4c-9.5,0.5-18.9,1-28.2,1.6c-4.9,0.4-11.9,1-20.8,1.8
			c-1.6,0.1-3.1,0.3-4.8,0.4c-12.8,1.2-29,2.9-47.6,5.1C1397,16.7,1386,18,1374.3,19.5"/>
		<path id="Path_757" fill="#0040A9" d="M1465.7,8.9c7.5-0.5,15-0.9,22.7-1.4c0,0-2.8,0.2-7.8,0.6c9.3-0.6,18.7-1.2,28.2-1.6
			c12.7-0.6,25.6-1.1,38.6-1.4c54.2-1.3,108.5,0.1,162.6,4.4c106.5,8.3,213.4,27.8,306.3,61.2c29,10.4,51.7,20.7,68.6,30.7
			c-66.5-48.9-206.6-93.2-410.3-108.1c-25.1-1.8-51.2-3.2-78.2-4.1c-0.7,0-1.4,0-2.1-0.1c-120-3.9-258.7,1.9-414.3,21.5
			C685.4,72.6,651.1,203.8,649.3,213.3l0.4,0.1l7.8,1.3C693.8,183.9,888.2,44.3,1465.7,8.9"/>
		<path id="Path_758" fill="#FFA500" d="M1666.4-30.8c-6.9-0.1-13.7-0.1-20.6-0.2c170.1,4.8,338.6,28.4,455.4,89.5
			c93,48.7,35.6,100.2,0,123.5c-41.9,29.9-136.6,55-257.1,73.4c-219.4,33.5-504.4,19.9-527.7,18.7l-1.7-0.1l0.2,0h-0.7l0,0l-0.3,0
			l-0.1,0l0.3,0l0.4,0.1l1.9,0.3l3.6,0.6c97.4,12.5,201.9,19.5,305.6,20.2l34.5,0.2c164.3-1.3,361.2-12.9,525.8-49.9
			C2478.9,169.2,2263.6-23.1,1666.4-30.8"/>
		<path id="Path_759" fill="#FFA500" d="M1465.7,8.9C888.2,44.3,693.8,183.9,657.5,214.7l61.9,10.1L875,250.1l1.2,0.2
			c8.7-80.5,104.7-133,190.4-164.2c30-10.9,58.7-19.2,82-25.2c28.7-7.3,49.2-11.2,53.6-12c-0.7,0.2-1.4,0.3-2.2,0.5
			c1.1-0.2,1.9-0.4,2.4-0.5c61.8-13.5,122.4-23,171.9-29.4c11.7-1.5,22.7-2.9,32.9-4.1c18.6-2.2,34.8-3.9,47.6-5.1
			c1.7-0.2,3.2-0.3,4.8-0.4c8.9-0.8,15.9-1.4,20.8-1.8c5.1-0.4,7.8-0.6,7.8-0.6C1480.7,7.9,1473.2,8.4,1465.7,8.9"/>
		<path id="Path_760" fill="#F74C6B" d="M984,155.9c1.9-1.1,3.9-2.2,5.9-3.4c29.6-16.7,65.8-33.1,109.8-49c6.2-2.2,12.5-4.5,19-6.7
			c3.6-1.2,7-2.4,10.7-3.6c315.1-104.3,811.5-33,818.9,64.2c3.3-21.2-4.9-43.8-29.1-67.7c-6.8-6.7-16-13-27.4-18.9
			C1721.5-17.8,1066.7-13.6,873,184.1C734.8,325,860.2,444.7,861.2,445.2c0.1,0,29-3,50.9-5.3c13.2-1.4,23.9-2.5,24-2.5l7.4-0.8
			C925.2,421.8,764.5,283.3,984,155.9"/>
		<path id="Path_761" fill="#FFA500" d="M1129.4,93.2c-3.7,1.2-7.1,2.4-10.7,3.6c95-28.2,227.3-45.3,409.2-31.5
			c144.9,11,220.2,51.1,249.4,71c39.3,24.8,42.6,56.5,19.3,89c-42.4,59.2-212.8,103.3-226.9,106.9l-1,0.3l0,0l-0.4,0.1l0,0l-0.1,0.1
			l0,0l0.2,0l0.3,0l1.6-0.2l3-0.3c74.2-10.5,140.6-25.6,194-44.1l17.8-6.1c79.8-30.6,155.1-73.2,163-124.4
			C1940.9,60.1,1444.5-11.2,1129.4,93.2"/>
		<path id="Path_762" fill="#0094DA" d="M-417.4-54.1c-21,24.3-46.2,77.4,75.6,122.1c153,56.2,334.1,73.5,505.2,72.1
			c12.4-0.3,24.8-0.7,36.9-1.2c86.6-3.1,166.5-8.6,240.1-15.8c632.2-94.2,639.6-231,637-251.4l-11.3-1.4l-52.4-6l8.2,1.4l-10-1.6
			l-12.8-1.5c4,9.5,50.5,140.4-400.5,219.6c-141.9,24.9-275.5,35.7-396.6,36.2l-2.1,0c-27.3,0.1-53.9-0.3-79.8-1.2
			c-210.6-7.4-376.2-46.1-472-92.1C-418.7-2.1-436.1-29-417.4-54.1"/>
		<path id="Path_763" fill="#F74C6B" d="M455.3,121.6c-4.9,0.5-9.8,1-14.8,1.5c-73.6,7.2-153.5,12.7-240.1,15.8
			c-12.2,0.4-24.5,0.8-36.9,1.2c-6.8,0.2-13.6,0.4-20.5,0.6C-452.3,154.6-782.9-27.9-540-114c-58,17.6-107.8,39.2-144.3,65.8
			c-10.3,7.5-17,15.2-20.5,23.1C-756.3,93-67.2,248.5,642.8,124.1c506.2-88.6,685-222.9,685.2-223.6c-0.1,0-37.8-4.4-66.3-7.8
			c-17.3-2-31.2-3.6-31.5-3.6l-9.7-1.1C1201.4-94.7,1011,64.4,455.3,121.6"/>
		<path id="Path_764" fill="#DC0000" d="M440.5,123.1c5-0.5,9.9-1,14.8-1.5c555.7-57.2,746.1-216.3,765.3-233.5l-143-16.5l0,0.1
			C1080.1-107.9,1072.7,28.8,440.5,123.1"/>
		<path id="Path_765" fill="#DC0000" d="M401,80.4c62.7-13,149.1-15.5,177.7-36.3c-16.1,8.9-75.1,1.7-101.3,8.4
			c-12.2,3.2-25.5,6.1-39.6,8.7C396.7,68.8,348,74,294,76c-19.6,0.7-39.9,1-60.8,0.9c-7.6-0.1-15.3-0.2-23-0.4
			C46.4,72.9-116,34.3-186.7-10.8c7.2,6.1,18,12.1,33.1,18.1c0,0-112.1-38-116.7-79.5c-4.6-41.4,98-86.2,526.6-99.9
			c24.7-1,41.3-1.3,46.2-1.4l1.5,0h0.1l0.1,0c0,0-0.7,0-1.8,0c-23.8-0.3-314-3.5-510.4,37.5c-107.9,22.5-186.1,50.8-209.3,81.8
			c-18.8,25.1-1.4,52.1,65.8,79.2c22.9,9.3,51.6,18.6,86.7,27.9c112.3,29.7,230,45.1,340.4,49.5c54.5,2.2,109,1.7,163.4-1.6
			c12.7-0.8,25.1-1.7,37.3-2.8c9.1-0.8,18.1-1.7,26.9-2.6c4.6-0.6,11.2-1.4,19.5-2.5c1.4-0.2,2.9-0.4,4.4-0.6
			c12-1.7,26.9-3.9,44-6.7C380.4,84.1,390.4,82.3,401,80.4"/>
		<path id="Path_766" fill="#0040A9" d="M317.2,94.2c-7.1,0.7-16.5,1.6-23.8,2.3c0,0,4.9-0.4,9.7-1c-8.8,1-17.8,1.8-26.9,2.6
			c-12.2,1.1-24.6,2-37.3,2.8c-54.4,3.3-109,3.8-163.4,1.6c-110.4-4.4-228-19.8-340.4-49.5c-35.1-9.3-63.7-18.6-86.7-27.9
			c95.7,46,261.4,84.7,472,92.1c25.9,0.9,52.6,1.3,79.8,1.2l2.1,0c121.1-0.5,254.6-11.2,396.6-36.2
			c451-79.2,404.5-210.2,400.5-219.6l-0.5-0.1l-8.5-1C973.4-106.7,866.6,38.4,317.2,94.2"/>
		<path id="Path_767" fill="#0040A9" d="M-200.6-89.9c21.7-14.5,52.5-26.5,88.4-36.4c116.6-32.3,286.6-42.6,368.5-45.8
			c-428.6,13.7-531.2,58.5-526.6,99.9c4.6,41.4,116.7,79.5,116.7,79.5c-15.1-6-25.9-12-33.1-18.1C-227.5-36.8-237.9-65-200.6-89.9"
			/>
		<path id="Path_768" fill="#FFA500" d="M143,140.7c6.9-0.2,13.6-0.4,20.5-0.6C-7.7,141.5-188.8,124.2-341.8,68
			c-121.8-44.8-96.6-97.8-75.6-122.1c23.2-31,101.4-59.3,209.3-81.9c196.4-41,486.6-37.9,510.4-37.5l1.8,0l-0.1,0l0.7,0l0,0l0.2,0
			l0.1,0l-0.3,0l-0.4,0l-2.1-0.2l-3.9-0.5c-104.6-8.9-209.6-11.9-314.6-8.9l-34.2,1c-161.6,7.2-349.3,25.8-489.4,68.3
			C-782.9-27.9-452.3,154.6,143,140.7"/>
		<path id="Path_769" fill="#FFA500" d="M317.2,94.2c549.3-55.9,656.1-200.9,673.1-232.6l-67.4-7.8l-169.3-19.5l-1.3-0.1
			C793-85.9,730.2-30.5,664.6,3.4c-21.2,10.8-43.2,20.1-65.7,27.9c-23.9,8.3-41.8,12.8-45.7,13.8c0.6-0.2,1.2-0.4,1.9-0.5
			c-0.9,0.2-1.7,0.5-2.1,0.6c-52.9,15.6-214,45.6-226,47.3c-1.5,0.2-3,0.4-4.4,0.6c-8.3,1.1-14.9,2-19.5,2.5c-4.8,0.6-9.7,1-9.7,1
			C300.7,95.8,310.1,95,317.2,94.2"/>
		<path id="Path_770" fill="#0094DA" d="M-69-20.5C-28-1.9,71,35,221,40.7c188.4,7.1,308.7-14.6,385.4-45.9c5.1-2.4,10-4.9,14.7-7.3
			c33.7-17.3,59.5-34.9,78.6-52.4C797-235.2,514.9-320.1,471.2-332.1l-8.1,1.2l-37,5.6l6.7-0.6l-7.9,0.8l-9,1.4
			c21.6,5.1,316.7,76.9,272.3,205.6c-14,40.5-53.6,70.9-108.9,92.7c-0.3,0.1-0.6,0.3-1,0.4c-12.5,4.9-25.7,9.4-39.7,13.5
			C425.3,21.4,267.5,27.3,127,16.2C39.1,11.5-25.3-1.8-69-20.5"/>
		<path id="Path_771" fill="#F74C6B" d="M703.6-68.5c-1.2,1.2-2.5,2.4-3.8,3.5c-19.1,17.5-44.9,35.1-78.6,52.4
			c-4.7,2.4-9.6,4.9-14.7,7.3c-2.8,1.3-5.5,2.7-8.3,4C350.4,113.3-184.1,60.6-251-35.3c9.7,21.1,31.7,43.2,70.2,65.9
			c12.3,7.1,25.3,13,38.7,17.8C80.6,129.8,725.5,102.1,796-100.4C846.4-244.7,649.1-358.6,647.9-359c-0.1,0-26.8,4-47.1,7.1
			c-12.2,1.8-22.1,3.3-22.2,3.4l-6.8,1C598.9-333.6,842.6-202.4,703.6-68.5"/>
		<path id="Path_772" fill="#DC0000" d="M592.3-84c2.1-19.1-12.1-38.6-42.1-56.4c11,8.3,17.6,17,19.6,25.8c0.9,4.1,0.8,8.3-0.3,12.4
			c-3.2,12-15.1,23.8-36.1,34.6c-8.5,4.4-17.4,8.2-26.4,11.4c-3.7,1.3-7.5,2.6-11.5,3.9c-83.7,26.9-239.7,32.3-366.8,17.3
			c17.6,2.6,35.4,4.3,53.2,5.2c0,0-131.5-3.3-220.2-27.8C-127-82.2-172.7-127.9-2-212.6c9.5-5,16.5-8.1,18.6-9.1l0.6-0.3l0,0l0,0
			c0,0-0.4,0.1-0.9,0.3c-11.8,4-153.3,53.8-159,113.8c-3.1,33,19.5,64.2,73.6,87.3C-25.3-1.8,39.1,11.5,127,16.2
			c30,1.6,62.8,2.2,98.5,1.6C339.7,15.9,426.5,4.4,487-12.6c31.3-8.8,55.4-19,72.7-30.1c4-2.5,7.9-5.3,11.5-8.3c2.5-2,4.8-4.1,7-6.4
			c1-1.2,2.3-2.9,3.7-5c0.3-0.4,0.5-0.8,0.8-1.2c2.5-3.8,4.6-7.8,6.4-11.9C590.4-78.3,591.4-81.1,592.3-84"/>
		<path id="Path_773" fill="#0040A9" d="M582.2-60.7c-1.8,1.7-3.6,3.4-5.5,5.2c0,0,0.6-0.6,1.6-1.9c-2.2,2.3-4.6,4.4-7,6.4
			c-3.7,3-7.5,5.8-11.5,8.3c-17.3,11.1-41.5,21.3-72.7,30.1c-60.5,17-147.3,28.5-261.6,30.4c-35.7,0.6-68.4,0-98.5-1.6
			c140.5,11.1,298.3,5.2,411.6-27.8c14-4.1,27.2-8.6,39.7-13.5l1-0.4c55.3-21.9,94.9-52.2,108.9-92.7
			c44.3-128.7-250.7-200.5-272.3-205.6l-0.3,0l-6,0.9C467.8-300.3,721-192.6,582.2-60.7"/>
		<path id="Path_774" fill="#FFA500" d="M598.1-1.2c2.9-1.3,5.6-2.7,8.3-4c-76.7,31.3-197,53-385.4,45.9C71,35-28-1.9-69-20.5
			c-54-23.1-76.7-54.3-73.6-87.3c5.7-60.1,147.2-109.8,159-113.8c0.5-0.2,0.9-0.3,0.9-0.3l0,0l0.3-0.1l0,0l0.1-0.1l0,0l-0.2,0
			l-0.3,0l-1.5,0.2l-2.8,0.4c-67,13.1-123.4,30.4-164.9,50.6l-13.8,6.7c-60.2,33.2-108.5,78-85,128.9
			C-184.1,60.6,350.4,113.3,598.1-1.2"/>
		<path id="Path_775" fill="#FFA500" d="M1611.5,4.8c0,0-155.6-5.2-382.7,26.6l94.6-5.3l180.4-13.9L1611.5,4.8z"/>
		<path id="Path_776" fill="#DC0000" d="M1611.5,4.8c0,0-271.2,0-497.8,59.1c0,0,233-52.5,466.8-47.5"/>
	</g>
</g>
</svg>
