<?xml version="1.0" encoding="utf-8"?>
<!-- Generator: Adobe Illustrator 27.5.0, SVG Export Plug-In . SVG Version: 6.00 Build 0)  -->
<svg version="1.1" id="popup-cloud" xmlns="http://www.w3.org/2000/svg" xmlns:xlink="http://www.w3.org/1999/xlink" x="0px"
	 y="0px" viewBox="0 0 857.6 341.6" enable-background="new 0 0 857.6 341.6" xml:space="preserve">
<g>
	<path fill="#FFFFFF" d="M744,188.1C744,188.2,744,188.2,744,188.1C745.4,188.1,744.7,188.1,744,188.1z"/>
	<path fill="#FFFFFF" d="M744,188.2C742.5,188.2,743.3,188.2,744,188.2c2-48.9-47.5-124.1-129.8-128.5c-29.3-2.7-59.6,4.4-83,13.5
		C480.4,1.4,395.2-0.7,363.3,0.1c-85.1,0-176.9,52.9-203.9,135.3c-6.8-1.1-13.8-1.7-20.7-1.7C62.1,133.7,0,201.2,0,284.3
		c0,19.6,3.5,38.9,10.4,57.2H854c2.3-9.8,3.5-19.9,3.5-30C857.6,243.5,806.7,188.2,744,188.2z"/>
</g>
</svg>
