<?xml version="1.0" encoding="utf-8"?>
<!-- Generator: Adobe Illustrator 27.5.0, SVG Export Plug-In . SVG Version: 6.00 Build 0)  -->
<svg version="1.1" id="Layer_1" xmlns="http://www.w3.org/2000/svg" xmlns:xlink="http://www.w3.org/1999/xlink" x="0px" y="0px"
	 viewBox="0 0 808.3 327.6" style="enable-background:new 0 0 808.3 327.6;" xml:space="preserve">
<style type="text/css">
	.st0{clip-path:url(#SVGID_00000013873230800607339830000011812498943347734959_);}
	.st1{fill:#FFA500;}
	.st2{fill:#0040A8;}
	.st3{fill:#FC4A6A;}
	.st4{fill:#DE0000;}
	.st5{fill:#0094DA;}
</style>
<g id="Group_719" transform="translate(-117.379 -2.345)">
	<g>
		<defs>
			<path id="SVGID_1_" d="M449.7,88.7c-21.8-12.9-46.6-19.6-72-19.6c-68.4,0-126.3,49.1-145.3,116.7c-2.6-0.2-5.3-0.3-8-0.3
				c-59.1,0-107.1,52.1-107.1,116.3c0,9.5,1.1,19,3.3,28.3h795.2c6.5-17.2,9.8-35.5,9.8-54c0-78.4-58.5-141.9-130.7-141.9
				c-6.5,0-13.1,0.5-19.5,1.6C750.1,57.9,681.8,2.3,601.5,2.3C538.6,2.3,483,36.5,449.7,88.7"/>
		</defs>
		<clipPath id="SVGID_00000139974350590393365610000006689083648956952204_">
			<use xlink:href="#SVGID_1_"  style="overflow:visible;"/>
		</clipPath>
		
			<g id="Group_718" transform="translate(117.379 2.345)" style="clip-path:url(#SVGID_00000139974350590393365610000006689083648956952204_);">
			<path id="Path_808" class="st1" d="M811.2,344.7c-6,1.1-12,2.4-18,3.8c-42,9.9-81.9,27.2-117.9,50.9
				c-9.2-26.1-82.2-142.2-232.5-214.7c-85.9-41.5-212.6-44.7-379-13.8c0,0,5.7-2.4,16.2-6.1C161.3,136,533.3,28.4,813.2,344.3
				C812.6,344.4,811.9,344.5,811.2,344.7L811.2,344.7"/>
			<path id="Path_809" class="st2" d="M815.3,344c-37-66.7-216.1-344.8-607.5-292.3C151.6,59.1,96.3,72.8,43.1,92.5
				c21-10,42.1-19.3,63.4-27.8c229.1-91.5,471.8-94.8,620.1-30.5c227.8,98.7,308.7,289.1,320.8,345.3
				C976.1,342.6,894.5,330.1,815.3,344"/>
			<path id="Path_810" class="st3" d="M258.3,261c-36.2-7-73.3-9.3-110.1-6.9C-130,271.7-292.3,474-382.4,654.5
				c-26.4,53.2-48.9,108.3-67.4,164.8c-20.6,62.8-30.2,108.4-32.3,119.3c0,0.1,0,0.2,0,0.2l0,0.1c-0.1,0.6-0.2,1.1-0.3,1.5
				c0,0.1,0,0.3-0.1,0.3l-0.1,0.4c0,0,0-0.2,0.1-0.7c0-0.1,0-0.2,0-0.3c0.1-1.2,0.5-3.5,0.9-6.8C-471.1,862-380.3,324,63.7,170.9
				c160-55.2,291.5-24.2,379,13.8c161.2,69.9,223.4,188.6,232.5,214.7c-41.7,27.5-77.3,63.1-104.8,104.7
				C514.4,409.2,415.3,291.9,258.3,261"/>
			<path id="Path_811" class="st4" d="M-454.7,855.3c-0.3,0.9-0.6,1.7-0.9,2.6c-0.8,2.1-1.6,4.3-2.3,6.4l-0.1,0.2l-23,71.8l-0.9,2.8
				l-0.5,1.6l-0.1,0.3l-0.1,0.2l0.1-0.4c0-0.1,0-0.2,0.1-0.4c0.1-0.4,0.2-0.8,0.3-1.5l0-0.1c0-0.1,0-0.2,0-0.2
				c2.2-10.9,11.7-56.4,32.3-119.3c18.5-56.5,41-111.6,67.4-164.8C-292.3,474-130,271.7,148.3,254.1c36.8-2.5,73.8-0.2,110.1,6.9
				c157,30.9,256,148.2,312.1,243c-0.4,0.6-0.8,1.1-1.1,1.6C11.3,200.4-363.8,611-454.7,855.3"/>
			<path id="Path_812" class="st5" d="M813.2,344.3C533.3,28.4,161.3,136,79.9,164.8c-456.1,146.3-551,697.2-561.5,768.7
				c-0.5,3.3-0.8,5.6-0.9,6.8l0,0.3l-0.1,0.7l-0.1-2.1l0.2,1c1.1-88.9,11.7-170.8,30.1-246C-378.7,392.9-179.2,199,43.1,92.5
				c53.2-19.7,108.5-33.4,164.7-40.8C599.2-0.8,778.3,277.3,815.3,344C814.6,344.1,813.9,344.2,813.2,344.3"/>
		</g>
	</g>
</g>
</svg>
