<?xml version="1.0" encoding="utf-8"?>
<!-- Generator: Adobe Illustrator 27.5.0, SVG Export Plug-In . SVG Version: 6.00 Build 0)  -->
<svg version="1.1" id="clouds-wide" xmlns="http://www.w3.org/2000/svg" xmlns:xlink="http://www.w3.org/1999/xlink" x="0px"
	 y="0px" viewBox="0 0 1876.1 187.6" enable-background="new 0 0 1876.1 187.6" xml:space="preserve">
<path fill="#FFFFFF" d="M1876.1,150.4c-37.3-22.7-81.6-35.8-129-35.8c-40.3,0-78.2,9.4-111.6,26.1c-56.3-46.8-129.8-75.1-210.2-75.1
	c-90.2,0-171.7,35.6-230,93c-55.4-41.6-126.1-66.5-203.1-66.5c-37.3,0-73.1,5.9-106.5,16.6C826.7,42.2,738.8,0,640.6,0
	C527.2,0,427.5,56.4,370.3,141.4c-51.3-33.2-113-52.5-179.5-52.5c-71.5,0-137.5,22.4-190.8,60.2v38.5h1876.1V150.4z"/>
</svg>
