<?xml version="1.0" encoding="utf-8"?>
<!-- Generator: Adobe Illustrator 27.5.0, SVG Export Plug-In . SVG Version: 6.00 Build 0)  -->
<svg version="1.1" id="clouds-wide" xmlns="http://www.w3.org/2000/svg" xmlns:xlink="http://www.w3.org/1999/xlink" x="0px"
	 y="0px" viewBox="0 0 1877 188" style="enable-background:new 0 0 1877 188;" xml:space="preserve">
<style type="text/css">
	.st0{fill:#FFFFFF;}
</style>
<path class="st0" d="M1877,150.7c-37.4-22.7-82.5-35.9-130-35.9c-40.3,0-78.1,9.5-111.5,26.2c-56.3-46.9-129.8-75.2-210.1-75.2
	c-90.1,0-171.6,35.7-229.9,93.2c-55.3-41.6-126-66.6-203-66.6c-37.3,0-73.1,5.9-106.4,16.7C827.2,42.3,739.4,0,641.2,0
	c-113.4,0-213,56.5-270.1,141.7c-51.2-33.2-113-52.6-179.4-52.6c-71.4,0-138.4,22.4-191.7,60.3V188h1877V150.7z"/>
</svg>
