<?xml version="1.0" encoding="utf-8"?>
<!-- Generator: Adobe Illustrator 27.6.1, SVG Export Plug-In . SVG Version: 6.00 Build 0)  -->
<svg version="1.1" id="clouds-wide" xmlns="http://www.w3.org/2000/svg" xmlns:xlink="http://www.w3.org/1999/xlink" x="0px"
	 y="0px" viewBox="0 0 1877 188" style="enable-background:new 0 0 1877 188;" xml:space="preserve">
<style type="text/css">
	.st0{fill:#FFFFFF;}
</style>
<path class="st0" d="M1877,37.3c-37.4,22.7-81.6,35.9-129.1,35.9c-40.3,0-78.2-9.5-111.6-26.2c-56.4,46.9-129.9,75.2-210.3,75.2
	c-90.2,0-171.8-35.7-230.1-93.2c-55.4,41.6-126.1,66.6-203.2,66.6c-37.3,0-73.2-5.9-106.5-16.7c-59,66.7-146.9,109-245.1,109
	c-113.5,0-213.2-56.5-270.4-141.7c-51.3,33.2-113.1,52.6-179.6,52.6C119.4,98.9,53.4,76.5,0,38.6V0h1877V37.3z"/>
</svg>
