<?xml version="1.0" encoding="utf-8"?>
<!-- Generator: Adobe Illustrator 27.5.0, SVG Export Plug-In . SVG Version: 6.00 Build 0)  -->
<svg version="1.1" id="clouds-wide" xmlns="http://www.w3.org/2000/svg" xmlns:xlink="http://www.w3.org/1999/xlink" x="0px"
	 y="0px" viewBox="0 0 1877 188" enable-background="new 0 0 1877 188" xml:space="preserve">
<g>
	<path fill="#FFFFFF" d="M1646.3,35.3c-57.2,47.5-131.8,76.3-213.4,76.3c-91.5,0-174.2-36.2-233.5-94.5
		c-56.2,42.2-127.9,67.6-206.1,67.6c-37.9,0-74.2-6-108.1-16.9c-59.8,67.6-149,110.6-248.7,110.6c-115.1,0-216.3-57.3-274.3-143.8
		C310.3,68.3,247.6,88,180.1,88C113.3,88,51.3,66.5-0.4,33.4L0,188h1877V33.4c-34.8,18.2-75.1,28.5-117.4,28.5
		C1718.7,61.9,1680.2,52.3,1646.3,35.3z"/>
</g>
</svg>
