<svg version="1.1" id="clouds-wide" xmlns="http://www.w3.org/2000/svg" xmlns:xlink="http://www.w3.org/1999/xlink" x="0px"
	 y="0px" viewBox="0 0 1876 188" style="enable-background:new 0 0 1876 188;" xml:space="preserve">
<style type="text/css">
	.st0{fill:#FFFFFF;}
</style>
<path class="st0" d="M0,37.3C37.4,60,82.5,73.2,130,73.2c40.3,0,78.1-9.5,111.5-26.2c56.3,46.9,129.8,75.2,210.1,75.2
	c90.1,0,171.6-35.7,229.9-93.2c55.3,41.6,126,66.6,203,66.6c37.3,0,73.1-5.9,106.4-16.7c58.9,66.8,146.7,109.1,244.9,109.1
	c113.4,0,213-56.5,270.1-141.7c51.2,33.2,113,52.6,179.4,52.6c71.4,0,138.4-22.4,191.7-60.3V0H0V37.3z"/>
</svg>
