<?xml version="1.0" encoding="utf-8"?>
<!-- Generator: Adobe Illustrator 27.6.1, SVG Export Plug-In . SVG Version: 6.00 Build 0)  -->
<svg version="1.1" id="clouds-wide" xmlns="http://www.w3.org/2000/svg" xmlns:xlink="http://www.w3.org/1999/xlink" x="0px"
	 y="0px" viewBox="0 0 1877 205.3" style="enable-background:new 0 0 1877 205.3;" xml:space="preserve">
<style type="text/css">
	.st0{fill:#FFFFFF;}
</style>
<path class="st0" d="M1877,40.8c-37.4,24.8-81.6,39.2-129.1,39.2c-40.3,0-78.2-10.4-111.6-28.6c-56.4,51.2-129.9,82.2-210.3,82.2
	c-90.2,0-171.8-39-230.1-101.8c-55.4,45.5-126.1,72.8-203.2,72.8c-37.3,0-73.2-6.4-106.5-18.2c-59,72.9-146.9,119.1-245.1,119.1
	c-113.5,0-213.2-61.7-270.4-154.8c-51.3,36.3-113.1,57.5-179.6,57.5C119.4,108.1,53.4,82.2,0,40.8V0h1877V40.8z"/>
</svg>
