<svg version="1.1" id="clouds-wide" xmlns="http://www.w3.org/2000/svg" xmlns:xlink="http://www.w3.org/1999/xlink" x="0px"
	 y="0px" viewBox="0 0 1877 188" enable-background="new 0 0 1877 188" xml:space="preserve">
<path fill="#FFFFFF" d="M1878,150.7c-37.4-22.7-82.6-35.9-130.1-35.9c-40.3,0-78.2,9.5-111.6,26.2c-56.4-46.9-129.9-75.2-210.3-75.2
	c-90.2,0-171.8,35.7-230.1,93.2c-55.4-41.6-126.1-66.6-203.2-66.6c-37.3,0-73.2,5.9-106.5,16.7C827.1,42.3,739.2,0,640.9,0
	C527.4,0,427.7,56.5,370.5,141.7c-51.3-33.2-113.1-52.6-179.6-52.6c-71.5,0-138.5,22.4-191.9,60.3V188h1879V150.7z"/>
</svg>
