<?xml version="1.0" encoding="utf-8"?>
<!-- Generator: Adobe Illustrator 27.5.0, SVG Export Plug-In . SVG Version: 6.00 Build 0)  -->
<svg version="1.1" id="icon-globe" xmlns="http://www.w3.org/2000/svg" xmlns:xlink="http://www.w3.org/1999/xlink" x="0px" y="0px"
	 viewBox="0 0 84.4 72.3" enable-background="new 0 0 84.4 72.3" xml:space="preserve">
<g id="Group_822" transform="translate(0)">
	<g>
		<defs>
			<rect id="SVGID_1_" width="84.4" height="72.3"/>
		</defs>
		<clipPath id="SVGID_00000137823164475703663300000009417890566621914539_">
			<use xlink:href="#SVGID_1_"  overflow="visible"/>
		</clipPath>
		<g id="Group_821" transform="translate(0)" clip-path="url(#SVGID_00000137823164475703663300000009417890566621914539_)">
			<path id="Path_916" fill="#FFFFFF" d="M7.4,36.1C7.4,16.9,23,1.4,42.2,1.4S77,16.9,77,36.1S61.4,70.9,42.2,70.9c0,0,0,0,0,0
				C23,70.9,7.4,55.3,7.4,36.1"/>
			<path id="Path_917" fill="#041E42" d="M42.2,72.3c-20,0-36.1-16.2-36.1-36.1c0-9.6,3.8-18.8,10.6-25.5c14.1-14.1,37-14.1,51.1,0
				s14.1,37,0,51.1C61,68.5,51.8,72.3,42.2,72.3 M42.2,2.7c-18.4,0-33.4,15-33.4,33.4c0,8.9,3.5,17.4,9.8,23.6c13,13,34.2,13,47.2,0
				s13-34.2,0-47.2c0,0,0,0,0,0C59.6,6.2,51.1,2.7,42.2,2.7"/>
			<path id="Path_918" fill="#041E42" d="M31.2,59.6h-1c-0.9,0-1.8-0.3-2.5-0.9l-7.1-5.8c-0.1-0.1-0.2-0.2-0.3-0.3l-4.6-4.6
				c-0.2-0.2-0.6-0.4-0.9-0.4H9.2v-2.7h5.6c1.1,0,2.1,0.4,2.8,1.2l4.6,4.6c0,0,0.1,0.1,0.1,0.1l7.1,5.8c0.2,0.2,0.5,0.3,0.8,0.3h1
				c0.7,0,1.3-0.6,1.3-1.3c0-0.3-0.1-0.7-0.4-0.9l-1.8-1.8c-1.5-1.6-1.5-4.1,0.1-5.7c0.6-0.6,1.4-1,2.2-1.1c0.6-0.1,1.1-0.6,1.1-1.2
				L34,32.5c0-0.5,0.1-1.1,0.3-1.5l4-8.9c0.3-0.6,0-1.4-0.6-1.7c-0.1,0-0.1-0.1-0.2-0.1l-10.1-2.7c-0.3-0.1-0.6,0-0.9,0.1l-7.3,3.8
				c-1.1,0.6-2.4,0.6-3.6,0.1l-4.3-2l1.2-2.5l4.3,2c0.4,0.2,0.8,0.2,1.1,0l7.3-3.9c0.9-0.5,1.9-0.6,2.9-0.3l10.1,2.7
				c2.1,0.6,3.4,2.8,2.8,4.9c-0.1,0.2-0.1,0.4-0.2,0.6l-4,8.9c-0.1,0.2-0.1,0.3-0.1,0.5l-0.3,12.4c0,2-1.5,3.6-3.4,3.9
				c-0.7,0.1-1.2,0.8-1.1,1.5c0,0.3,0.2,0.5,0.4,0.7l1.8,1.8c1.5,1.6,1.5,4.1-0.1,5.7C33.3,59.2,32.3,59.6,31.2,59.6"/>
			<path id="Path_919" fill="#041E42" d="M36.1,70.8l-2.4-1.4l3.5-6.1c1.5-2.6,4-4.5,6.9-5.1l9.9-2.3c2-0.5,4.1-0.4,6,0.3l7.7,2.6
				l-0.9,2.6l-7.7-2.6c-1.4-0.5-3-0.6-4.5-0.2l-9.9,2.3c-2.2,0.5-4.1,1.9-5.2,3.9L36.1,70.8z"/>
			<path id="Path_920" fill="#041E42" d="M73.8,47.7l-3-9.7c-0.7-2.2-2.7-3.7-5-3.7h-2.4c-4,0-7.4-3-7.9-7.1l-0.7-6.4
				c-0.3-2.3,0.5-4.6,2.1-6.3l6.1-6.4l2,1.9L59,16.4c-1,1.1-1.6,2.6-1.4,4.1l0.7,6.4c0.3,2.6,2.5,4.6,5.2,4.6h2.4
				c3.5,0,6.6,2.3,7.6,5.6l3,9.7L73.8,47.7z"/>
			<path id="Path_921" fill="#00A5DF" d="M64.7,44.7L64.3,42c4.5-0.5,8.9-1.5,13.2-3c4.1-1.6,4.2-2.8,4.2-2.9c0-0.6-1.3-2-6-3.5
				l0.8-2.6c5.3,1.7,7.9,3.7,7.9,6.1c0,2.1-2,3.9-6,5.5C74,43.1,69.3,44.2,64.7,44.7"/>
			<path id="Path_922" fill="#00A5DF" d="M42.2,46.1c-9.8,0.1-19.5-0.7-29.2-2.6c-8.8-1.9-13-4.3-13-7.5c0-2.4,2.4-4.3,7.3-5.9
				l0.9,2.6c-4.3,1.4-5.4,2.8-5.4,3.3c0,0.9,2.3,3,10.9,4.8c9.4,1.8,19,2.6,28.6,2.5c4.5,0,9-0.2,13.2-0.5l0.2,2.7
				C51.3,46,46.8,46.1,42.2,46.1"/>
			<path id="Path_923" fill="#00A5DF" d="M52,37.2l7.1,7l-7,7.1L52,37.2z"/>
			<path id="Path_924" fill="#041E42" d="M78.3,36.1h-2.7c0-18.4-15-33.4-33.4-33.4S8.8,17.7,8.8,36.1H6.1C6.1,16.2,22.2,0,42.2,0
				C62.2,0,78.3,16.2,78.3,36.1"/>
		</g>
	</g>
</g>
</svg>
