<?xml version="1.0" encoding="utf-8"?>
<!-- Generator: Adobe Illustrator 27.5.0, SVG Export Plug-In . SVG Version: 6.00 Build 0)  -->
<svg version="1.1" id="icon-flask" xmlns="http://www.w3.org/2000/svg" xmlns:xlink="http://www.w3.org/1999/xlink" x="0px" y="0px"
	 viewBox="0 0 108.7 112.2" enable-background="new 0 0 108.7 112.2" xml:space="preserve">
<g>
	<defs>
		<rect id="SVGID_1_" width="108.7" height="112.2"/>
	</defs>
	<clipPath id="SVGID_00000069359099832409783160000011358456257791949751_">
		<use xlink:href="#SVGID_1_"  overflow="visible"/>
	</clipPath>
	<g id="Group_817" clip-path="url(#SVGID_00000069359099832409783160000011358456257791949751_)">
		<path id="Path_893" fill="#FFFFFF" d="M17.2,110h65.4c5.2,0,9.4-4.2,9.4-9.4c0-1.7-0.4-3.3-1.3-4.7L63.1,48V12.5h5.6V2.1H31.2
			v10.3h5.6V48L9.1,95.9c-2.6,4.5-1.1,10.3,3.5,12.9C14,109.6,15.6,110,17.2,110"/>
		<path id="Path_894" fill="#041E42" d="M82.6,112.2H17.2c-6.4,0-11.6-5.2-11.6-11.6c0-2,0.5-4,1.5-5.8l27.4-47.4V14.6h-5.6V0h41.8
			v14.6h-5.6v32.8l27.4,47.4c3.2,5.5,1.3,12.6-4.2,15.8C86.7,111.6,84.7,112.2,82.6,112.2 M33.3,10.3h5.6v38.2L10.9,97
			c-2,3.5-0.8,7.9,2.7,10c1.1,0.6,2.4,1,3.6,1h65.4c4,0,7.3-3.3,7.3-7.3c0-1.3-0.3-2.5-1-3.6L61,48.6V10.3h5.6V4.3H33.3V10.3z"/>
		<path id="Path_895" fill="#FFFFFF" d="M76.8,100.2H23.1c-1.4,0-2.5-1.1-2.5-2.5c0-0.4,0.1-0.9,0.3-1.2l19-32.3
			c9.2-0.1,8.3,5.6,16,5.8c2.4-0.1,4.8-0.6,7.1-1.7L79,96.4c0.7,1.2,0.3,2.7-0.9,3.4C77.7,100,77.2,100.2,76.8,100.2"/>
		<path id="Path_896" fill="#041E42" d="M76.8,102.3H23.1c-2.6,0-4.6-2.1-4.6-4.6c0-0.8,0.2-1.6,0.6-2.3L38.6,62l1.2,0
			c3.7-0.2,7.4,1.1,10.2,3.5c1.6,1.5,3.7,2.3,5.8,2.3c2.1-0.1,4.2-0.6,6.1-1.5l1.8-0.8l1,1.7l16.1,28.1c1.3,2.2,0.5,5-1.7,6.3
			C78.4,102.1,77.6,102.3,76.8,102.3 M41.1,66.3L22.8,97.5c-0.1,0.1-0.1,0.2,0,0.3c0.1,0.1,0.2,0.2,0.3,0.2h53.7
			c0.2,0,0.4-0.2,0.4-0.4c0-0.1,0-0.1,0-0.2L62,70.9c-2,0.7-4.1,1.1-6.2,1.1c-3.1,0-6-1.1-8.3-3.2C45.7,67.3,43.4,66.4,41.1,66.3"/>
		<path id="Path_897" fill="#FFFFFF" d="M54.3,36.8c0,3-2.4,5.3-5.3,5.3s-5.3-2.4-5.3-5.3s2.4-5.3,5.3-5.3S54.3,33.9,54.3,36.8
			L54.3,36.8"/>
		<path id="Path_898" fill="#041E42" d="M48.9,44.3c-4.1,0-7.5-3.3-7.5-7.5c0-4.1,3.3-7.5,7.5-7.5c4.1,0,7.5,3.3,7.5,7.5
			C56.4,40.9,53,44.3,48.9,44.3 M48.9,33.6c-1.8,0-3.2,1.4-3.2,3.2c0,1.8,1.4,3.2,3.2,3.2c1.8,0,3.2-1.4,3.2-3.2
			C52.1,35,50.7,33.6,48.9,33.6"/>
		<path id="Path_899" fill="#FFFFFF" d="M55.5,16.9c0,1.9-1.5,3.4-3.4,3.4c-1.9,0-3.4-1.5-3.4-3.4c0-1.9,1.5-3.4,3.4-3.4l0,0
			C54,13.5,55.5,15,55.5,16.9"/>
		<path id="Path_900" fill="#041E42" d="M52.1,22.4c-3.1,0-5.5-2.5-5.5-5.5s2.5-5.5,5.5-5.5c3.1,0,5.5,2.5,5.5,5.5l0,0
			C57.6,20,55.1,22.4,52.1,22.4 M52.1,15.6c-0.7,0-1.3,0.6-1.3,1.3c0,0.7,0.6,1.3,1.3,1.3c0.7,0,1.3-0.6,1.3-1.3v0
			C53.4,16.2,52.8,15.6,52.1,15.6"/>
		<line id="Line_23" fill="none" x1="1.1" y1="23.9" x2="107.6" y2="88.4"/>
		
			<rect id="Rectangle_398" x="52.2" y="-6.1" transform="matrix(0.5183 -0.8552 0.8552 0.5183 -21.8318 73.5513)" fill="#E10600" width="4.3" height="124.6"/>
	</g>
</g>
</svg>
