<?xml version="1.0" encoding="utf-8"?>
<!-- Generator: Adobe Illustrator 27.6.1, SVG Export Plug-In . SVG Version: 6.00 Build 0)  -->
<svg version="1.1" id="icon-person-blue" xmlns="http://www.w3.org/2000/svg" xmlns:xlink="http://www.w3.org/1999/xlink" x="0px"
	 y="0px" viewBox="0 0 204.6 195.2" style="enable-background:new 0 0 204.6 195.2;" xml:space="preserve">
<style type="text/css">
	.st0{fill:#0040A8;}
</style>
<path id="path_00000021806643912445862380000015494355696605094571_" class="st0" d="M69.8,33.9c0,18.7,15.2,33.9,33.9,33.9
	s33.9-15.2,33.9-33.9S122.4,0,103.7,0c0,0,0,0,0,0C85,0,69.8,15.2,69.8,33.9C69.8,33.9,69.8,33.9,69.8,33.9"/>
<path id="path" class="st0" d="M191.2,137.6c-7.9-13.7-19.2-25.2-32.7-33.4c-15.7-9.6-35.2-15.9-57.9-18.5c-16.5-1.9-39.6-7-50-29
	c-7.2-15.2-6.9-34.5-6.7-48.5c0-1.1,0-2.2,0-3.2c0-2.3-1.8-4.2-4.1-4.2c0,0,0,0,0,0H4.3C2,0.6,0.2,2.5,0.1,4.8c0,0.9,0,1.8,0,2.7
	C-0.2,24.8-0.6,51,11,75.4c6.7,14.2,17.1,26.4,30.1,35.2c5.7,3.8,11.8,7.1,18.2,9.6c0.7,0.3,1.1,0.9,1.1,1.7v68.8
	c0,2.5,2,4.6,4.6,4.6h0h68.3c2.5,0,4.6-2,4.6-4.6l0,0v-44c0-1,0.8-1.8,1.8-1.8c0.4,0,0.8,0.1,1.1,0.4c5,3.8,9.1,8.6,12.3,14
	c6.5,11.3,7.5,23.8,7.7,31.9c0.1,2.3,1.9,4.1,4.2,4.1l35.4,0c2.3,0,4.2-1.9,4.2-4.2c0,0,0,0,0-0.1
	C204.5,179.3,203,158.3,191.2,137.6"/>
</svg>
