<?xml version="1.0" encoding="utf-8"?>
<!-- Generator: Adobe Illustrator 27.6.1, SVG Export Plug-In . SVG Version: 6.00 Build 0)  -->
<svg version="1.1" id="icon-cloud-blue" xmlns="http://www.w3.org/2000/svg" xmlns:xlink="http://www.w3.org/1999/xlink" x="0px"
	 y="0px" viewBox="0 0 247.9 187.9" style="enable-background:new 0 0 247.9 187.9;" xml:space="preserve">
<style type="text/css">
	.st0{fill:#0994DA;}
</style>
<path id="cloud" class="st0" d="M247.9,92.6C247.2,40.7,204.5-0.7,152.6,0C125,0.4,99,12.9,81.4,34.3c-1.2,1.4-3,2.3-4.8,2.3h-0.9
	C33.9,36.5,0,70.4,0,112.2s33.9,75.7,75.6,75.7c12.1,0,24-2.9,34.7-8.4c1.4-0.7,3.1-0.8,4.5-0.1c47.2,21.6,103,0.8,124.6-46.4
	C245.2,120.3,248.1,106.5,247.9,92.6 M154,142.1h-0.3c-10,0-19.6-3.2-27.7-9l-10.6-7.6c-3.1-2.2-7.3-2-10.1,0.5l-9.8,8.7
	c-12.4,10.9-31.2,9.7-42.1-2.7s-9.7-31.2,2.7-42.1c5.5-4.8,12.5-7.4,19.7-7.4c6.9,0.2,13.7,1.5,20.1,4c0.9,0.4,1.9,0.6,2.8,0.6
	c2.7,0,5.1-1.4,6.4-3.8l0.1-0.1c1.8-3.9,3.9-7.8,6.2-11.5l0.1-0.1c10.6-16.1,26.5-25.7,42.6-25.7c26.6,0,48.1,21.6,48.1,48.1
	C202.1,120.5,180.6,142,154,142.1"/>
</svg>
