<svg version="1.1" class="search" xmlns="http://www.w3.org/2000/svg" xmlns:xlink="http://www.w3.org/1999/xlink" x="0px" y="0px"
	 viewBox="0 0 41.2 41.2" xml:space="preserve">
<path class="search-path" fill="currentColor" d="M16.9,0C7.6,0,0,7.5,0,16.9
	s7.5,16.9,16.9,16.9c3.6,0,7.1-1.1,10-3.2l9.9,9.9c1,1,2.7,1,3.7,0s1-2.7,0-3.7l-9.8-9.8c5.5-7.5,3.8-18.1-3.7-23.6
	C24,1.1,20.5,0,16.9,0z M16.9,5.3c6.4,0,11.6,5.2,11.6,11.6s-5.2,11.6-11.6,11.6c-6.4,0-11.6-5.2-11.6-11.6
	C5.3,10.5,10.4,5.3,16.9,5.3C16.9,5.3,16.9,5.3,16.9,5.3"/>
</svg>
