<?xml version="1.0" encoding="utf-8"?>
<!-- Generator: Adobe Illustrator 27.5.0, SVG Export Plug-In . SVG Version: 6.00 Build 0)  -->
<svg version="1.1" id="icon-recycle" xmlns="http://www.w3.org/2000/svg" xmlns:xlink="http://www.w3.org/1999/xlink" x="0px"
	 y="0px" viewBox="0 0 77 72.3" enable-background="new 0 0 77 72.3" xml:space="preserve">
<g id="Group_820" transform="translate(0.001)">
	<g>
		<defs>
			<rect id="SVGID_1_" x="0" width="77" height="72.3"/>
		</defs>
		<clipPath id="SVGID_00000042008480583012775190000008723656694767040645_">
			<use xlink:href="#SVGID_1_"  overflow="visible"/>
		</clipPath>
		<g id="Group_819" transform="translate(-0.001)" clip-path="url(#SVGID_00000042008480583012775190000008723656694767040645_)">
			<path id="Path_901" fill="#041E42" d="M64.1,47c-2.6,0-5.2-0.9-7.2-2.6c-3.2-2.7-8-2.7-11.2,0c-4.2,3.4-10.2,3.4-14.4,0
				c-3.2-2.7-8-2.7-11.2,0c-2,1.7-4.6,2.6-7.2,2.6c-2.6,0-5.2-0.9-7.2-2.6c-1.6-1.4-3.6-2.1-5.6-2.1v-2.7c2.6,0,5.2,0.9,7.2,2.6
				c1.6,1.4,3.6,2.1,5.6,2.1c2.1,0,4.1-0.7,5.6-2.1c2-1.7,4.6-2.6,7.2-2.6c2.6,0,5.2,0.9,7.2,2.6c3.2,2.7,8,2.7,11.2,0
				c4.2-3.4,10.2-3.4,14.4,0c3.2,2.7,8,2.7,11.2,0c2-1.7,4.6-2.6,7.2-2.6v2.7c-2.1,0-4.1,0.7-5.6,2.1C69.3,46.1,66.8,47,64.1,47"/>
			<path id="Path_902" fill="#041E42" d="M64.1,56.3c-2.6,0-5.2-0.9-7.2-2.6c-3.2-2.7-8-2.7-11.2,0c-4.2,3.4-10.2,3.4-14.4,0
				c-3.2-2.7-8-2.7-11.2,0c-2,1.7-4.6,2.6-7.2,2.6c-2.6,0-5.2-0.9-7.2-2.6c-1.6-1.4-3.6-2.1-5.6-2.1v-2.7c2.6,0,5.2,0.9,7.2,2.6
				c1.6,1.4,3.6,2.1,5.6,2.1c2.1,0,4.1-0.7,5.6-2.1c2-1.7,4.6-2.6,7.2-2.6c2.6,0,5.2,0.9,7.2,2.6c3.2,2.7,8,2.7,11.2,0
				c4.2-3.4,10.2-3.4,14.4,0c3.2,2.7,8,2.7,11.2,0c2-1.7,4.6-2.6,7.2-2.6v2.7c-2.1,0-4.1,0.7-5.6,2.1C69.3,55.4,66.8,56.4,64.1,56.3
				"/>
			<path id="Path_903" fill="#041E42" d="M64.1,65.6c-2.6,0-5.2-0.9-7.2-2.6c-3.2-2.7-8-2.7-11.2,0c-4.2,3.4-10.2,3.4-14.4,0
				c-3.2-2.7-8-2.7-11.2,0c-2,1.7-4.6,2.6-7.2,2.6c-2.6,0-5.2-0.9-7.2-2.6C4.1,61.7,2.1,61,0,61v-2.7c2.6,0,5.2,0.9,7.2,2.6
				c1.6,1.4,3.6,2.1,5.6,2.1c2.1,0,4.1-0.7,5.6-2.1c2-1.7,4.6-2.6,7.2-2.6c2.6,0,5.2,0.9,7.2,2.6c3.2,2.7,8,2.7,11.2,0
				c4.2-3.4,10.2-3.4,14.4,0c3.2,2.7,8,2.7,11.2,0c2-1.7,4.6-2.6,7.2-2.6V61c-2.1,0-4.1,0.7-5.6,2.1C69.3,64.8,66.8,65.7,64.1,65.6"
				/>
			<path id="Path_904" fill="#FFFFFF" d="M59.1,70.9H17.8l-5.6-56.3h52.6L59.1,70.9z"/>
			<path id="Path_905" fill="#041E42" d="M60.4,72.3H16.6l-5.9-59.1h55.6L60.4,72.3z M19.1,69.5h38.8L63.2,16H13.7L19.1,69.5z"/>
			<rect id="Rectangle_400" x="7.8" y="3.8" fill="#FFFFFF" width="61.4" height="10.8"/>
			<path id="Path_906" fill="#041E42" d="M70.6,16H6.4V2.4h64.1V16z M9.2,13.2h58.7V5.2H9.2L9.2,13.2z"/>
			<rect id="Rectangle_401" x="31.3" y="1.4" fill="#FFFFFF" width="14.4" height="2.4"/>
			<rect id="Rectangle_402" x="29.9" fill="#041E42" width="17.1" height="5.2"/>
			<path id="Path_907" fill="#FFFFFF" d="M35.8,29.8C43,28.3,50,32.9,51.4,40.1c0.1,0.6,0.2,1.1,0.2,1.7"/>
			<path id="Path_908" fill="#FFB600" d="M50.3,41.9c-0.5-6.5-6.1-11.4-12.7-11c-0.5,0-1,0.1-1.5,0.2l-0.6-2.7
				c7.9-1.6,15.6,3.5,17.2,11.4c0.1,0.6,0.2,1.3,0.3,1.9L50.3,41.9z"/>
			<path id="Path_909" fill="#FFB600" d="M38.5,34.9l-5.4-5.4l5.4-5.4V34.9z"/>
			<path id="Path_910" fill="#FFFFFF" d="M28.7,51.7c-4.9-5.4-4.5-13.8,0.9-18.7c0.4-0.4,0.9-0.8,1.4-1.1"/>
			<path id="Path_911" fill="#FFB600" d="M27.7,52.6c-5.4-6-5-15.2,1-20.6c0.5-0.4,1-0.8,1.5-1.2l1.6,2.3c-5.4,3.7-6.7,11.1-3,16.5
				c0.3,0.4,0.6,0.8,1,1.2L27.7,52.6z"/>
			<path id="Path_912" fill="#FFB600" d="M31.7,46.8l-1.9,7.3l-7.3-1.9L31.7,46.8z"/>
			<path id="Path_913" fill="#FFFFFF" d="M51.2,46.3c-2,7-9.3,11.1-16.3,9.1c-0.6-0.2-1.1-0.4-1.6-0.6"/>
			<path id="Path_914" fill="#FFB600" d="M38.4,57.3c-2,0-3.9-0.4-5.7-1.2l1.1-2.5c6,2.6,13-0.2,15.6-6.2c0.2-0.5,0.4-1,0.5-1.5
				l2.6,0.7C50.8,53,45,57.3,38.4,57.3"/>
			<path id="Path_915" fill="#FFB600" d="M45.5,46.4l7.2-2.3l2.3,7.2L45.5,46.4z"/>
		</g>
	</g>
</g>
</svg>
