<?xml version="1.0" encoding="utf-8"?>
<!-- Generator: Adobe Illustrator 27.6.1, SVG Export Plug-In . SVG Version: 6.00 Build 0)  -->
<svg version="1.1" id="icon-packaging-orange" xmlns="http://www.w3.org/2000/svg" xmlns:xlink="http://www.w3.org/1999/xlink"
	 x="0px" y="0px" viewBox="0 0 180.7 206.5" style="enable-background:new 0 0 180.7 206.5;" xml:space="preserve">
<style type="text/css">
	.st0{fill:#FDA500;}
</style>
<path id="path_00000019659032550333090610000005776738490854328192_" class="st0" d="M145,0c1.5,0,2.8,1.3,2.8,2.8c0,0,0,0.1,0,0.1
	c-1.5,29.5-25.1,53.1-54.6,54.5c-1,0-1.9,0.1-2.9,0.1s-1.9,0-2.9-0.1C58,56,34.4,32.4,32.9,2.9C32.8,1.4,34,0.1,35.5,0
	c0,0,0.1,0,0.1,0h0c24.9,0,46.9,16,54.7,39.6C98.1,16,120.1,0,145,0L145,0z"/>
<path id="path" class="st0" d="M87.1,205.8l-84.7-39c-1.4-0.7-2.4-2.1-2.4-3.7v-110C0,50.8,1.8,49,4.1,49c0.6,0,1.2,0.1,1.7,0.4
	l81.3,37.4c2.1,1,4.5,1,6.5,0l81.3-37.4c2-0.9,4.5,0,5.4,2c0.2,0.5,0.4,1.1,0.4,1.7v110c0,1.6-0.9,3-2.4,3.7l-84.7,39
	C91.5,206.7,89.1,206.7,87.1,205.8 M42,139.9l45,20.7c2.1,1,4.5,1,6.5,0l45-20.7c1.4-0.7,2.4-2.1,2.4-3.7v-22.6
	c0-2.3-1.8-4.1-4.1-4.1c-0.6,0-1.2,0.1-1.7,0.4L93.6,129c-2.1,1-4.5,1-6.5,0l-41.6-19.2c-2-0.9-4.5,0-5.4,2
	c-0.2,0.5-0.4,1.1-0.4,1.7v22.6C39.7,137.8,40.6,139.3,42,139.9"/>
</svg>
