<?xml version="1.0" encoding="utf-8"?>
<!-- Generator: Adobe Illustrator 27.6.1, SVG Export Plug-In . SVG Version: 6.00 Build 0)  -->
<svg version="1.1" id="drop-red" xmlns="http://www.w3.org/2000/svg" xmlns:xlink="http://www.w3.org/1999/xlink" x="0px" y="0px"
	 viewBox="0 0 154.6 202.5" style="enable-background:new 0 0 154.6 202.5;" xml:space="preserve">
<style type="text/css">
	.st0{fill:#FB4A6A;}
</style>
<path id="drop" class="st0" d="M123,48.5c-9-12.3-18.9-24-29.6-34.9l-12.2-12c-2.2-2.1-5.6-2.1-7.8,0l-12.2,12
	c-0.4,0.4-6.6,6.5-14.8,16.2c0,0,0,0,0,0L46,30.3c-0.2,0.3-0.5,0.6-0.7,0.9c-1.7,2.1-3.4,4.1-5.1,6.1h0c-0.5,0.6-1,1.3-1.5,1.9
	c-2.8,3.6-5.5,7.1-8,10.6c-0.3,0.4-0.6,0.8-0.9,1.3c-0.7,0.9-1.3,1.8-1.9,2.8c-0.3,0.4-0.6,0.9-0.9,1.3c-0.4,0.5-0.8,1.1-1.1,1.7
	c-0.5,0.7-1,1.4-1.4,2.2l-0.1,0.1c-0.4,0.6-0.8,1.2-1.2,1.8c-0.2,0.3-0.4,0.5-0.5,0.8c-0.3,0.5-0.7,1-1,1.6
	c-0.5,0.7-0.9,1.4-1.3,2.1c-6.6,10.8-3.2,24.9,7.6,31.5c3.6,2.2,7.7,3.3,11.9,3.3c7.7,0,14.5-4.4,19.5-10.9
	c4.9-6.3,12.6-18.2,15-21.3c1.3-1.7,3.7-2,5.4-0.7c0.2,0.2,0.5,0.4,0.7,0.7c2,2.5,4.4,5.7,6.1,7.9c19.5,26.9,22.4,42.4,22.4,49.3
	c0.1,17.4-14,31.6-31.4,31.7c-17.4,0.1-31.6-14-31.7-31.4c0-0.1,0-0.2,0-0.4c0-1.2,0.1-2.3,0.2-3.5c0.1-0.7-0.4-1.3-1.1-1.3
	c-0.3,0-0.5,0-0.7,0.2c-13.7,7.8-31.2,2.9-39-10.8c-0.4-0.6-0.7-1.3-1-1.9c-0.3-0.6-1-0.9-1.6-0.6c-0.3,0.2-0.6,0.5-0.7,0.8
	C0.7,113.7,0,119.5,0,125.2c0,42.7,34.6,77.3,77.3,77.3s77.3-34.6,77.3-77.3C154.6,103,144,77.2,123,48.5"/>
</svg>
