<?xml version="1.0" encoding="utf-8"?>
<!-- Generator: Adobe Illustrator 27.5.0, SVG Export Plug-In . SVG Version: 6.00 Build 0)  -->
<svg version="1.1" id="note-rainbow_00000024689114968872857930000000729876339901330575_"
	 xmlns="http://www.w3.org/2000/svg" xmlns:xlink="http://www.w3.org/1999/xlink" x="0px" y="0px" viewBox="0 0 49 46.2"
	 enable-background="new 0 0 49 46.2" xml:space="preserve">
<g>
	<path fill="#FFA500" d="M11.5,3.1v2.8c4.3,1.3,8.2,2.9,11.6,4.6h10.1C25.7,6.7,18.1,4.5,11.5,3.1z"/>
	<path fill="#FFA500" d="M43.7,17V30c-0.1,0-0.3-0.1-0.4-0.1c-0.2-0.1-0.5-0.1-0.7-0.2c2.6,4.1,4.5,8,5.7,11.2
		c0-0.1,0.1-0.2,0.1-0.3c0-0.1,0.1-0.2,0.1-0.3c0.3-0.9,0.4-1.9,0.4-2.9V21.3C47.3,19.7,45.5,18.3,43.7,17z"/>
</g>
<path fill="#0040A9" d="M31.7,0c7,3.4,12.6,7.7,17.3,12.2V0l0,0H31.7z"/>
<g>
	<path fill="#F74C6B" d="M41.8,46.1c3.1-0.4,5.7-2.5,6.7-5.5c0-0.1,0-0.1,0.1-0.2c-1.1-3.1-2.8-6.7-5.2-10.6
		c-1.2-0.4-2.6-0.6-3.9-0.4c-4.6,0.7-7.8,4.9-7.1,9.5C33,43.6,37.2,46.7,41.8,46.1z"/>
	<path fill="#F74C6B" d="M23.6,10.6c-3.8-2.4-7.9-4.3-12.1-5.8v16.1c1.9,1.3,3.7,2.6,5.3,4.1c0-4.6,0-9.2,0-13.8v-0.6H23.6z"/>
</g>
<path fill="#DC0000" d="M5.7,45.7c3.1,1,6.6,0.2,8.8-2.3c1.5-1.6,2.3-3.8,2.2-6c0-4.2,0-8.3,0-12.5c-1.6-1.4-3.4-2.8-5.3-4.1V30
	l-0.4-0.1c-4.4-1.5-9.1,0.9-10.6,5.3C-1,39.5,1.3,44.3,5.7,45.7z"/>
<path fill="#0094DA" d="M49,21.3v-9.1C44.4,7.7,38.7,3.4,31.7,0H12v0c-0.1,0-0.3,0-0.5,0v3.1c6.6,1.3,14.2,3.6,21.7,7.5h10.5V17
	C45.5,18.3,47.3,19.7,49,21.3z"/>
</svg>
