<?xml version="1.0" encoding="utf-8"?>
<!-- Generator: Adobe Illustrator 27.5.0, SVG Export Plug-In . SVG Version: 6.00 Build 0)  -->
<svg version="1.1" id="note-grey" xmlns="http://www.w3.org/2000/svg" xmlns:xlink="http://www.w3.org/1999/xlink" x="0px" y="0px"
	 viewBox="0 0 49 46.2" enable-background="new 0 0 49 46.2" xml:space="preserve">
<path id="note-grey_00000141442108546827111440000008609220001485363357_" fill="#C8C8C8" d="M12,0c-0.1,0-0.3,0-0.5,0V30l-0.4-0.1
	c-4.4-1.5-9.1,0.9-10.6,5.3c-1.5,4.4,0.9,9.1,5.3,10.6c3.1,1,6.6,0.2,8.8-2.3c1.5-1.6,2.3-3.8,2.2-6c0-8.8,0-17.5,0-26.3v-0.6h26.9
	V30c-0.1,0-0.3-0.1-0.4-0.1c-1.3-0.4-2.6-0.6-3.9-0.4c-4.6,0.7-7.8,4.9-7.1,9.5c0.7,4.6,4.9,7.8,9.5,7.1c3.1-0.4,5.7-2.5,6.7-5.5
	c0-0.1,0.1-0.2,0.1-0.3c0.3-0.9,0.4-1.9,0.4-2.9V0l0,0L12,0"/>
</svg>
