<?xml version="1.0" encoding="utf-8"?>
<!-- Generator: Adobe Illustrator 27.5.0, SVG Export Plug-In . SVG Version: 6.00 Build 0)  -->
<svg version="1.1" id="btm-clouds" xmlns="http://www.w3.org/2000/svg" xmlns:xlink="http://www.w3.org/1999/xlink" x="0px" y="0px"
	 viewBox="0 0 1919.9 792" style="enable-background:new 0 0 1919.9 792;" xml:space="preserve">
<style type="text/css">
	.st0{fill:#009AE1;}
</style>
<path id="right" class="st0" d="M650.8,242.4c-79.2-14.3-156.8-4.5-225,24C376,152.8,269.3,64.3,134.3,40
	c-45.8-8.2-91-8.4-134.3-1.6v734.8c0.7,0.1,1.4,0.3,2,0.4c79.2,14.3,156.8,4.5,225-24c6.4,14.6,13.8,28.8,22,42.5h677
	c19.6-34.5,33.8-72.8,41.2-113.9C1003.7,475.6,862.1,280.5,650.8,242.4z"/>
<path id="left" class="st0" d="M1919.9,0c-126.7,26.2-236.2,96.7-310,193.8c-32.5-8.1-65.8-12.2-99.3-12.2v0
	c-215.7,0-390.6,167.7-390.6,374.5c0,89.4,32.7,171.5,87.3,235.9h712.6V0z"/>
</svg>
