<?xml version="1.0" encoding="utf-8"?>
<!-- Generator: Adobe Illustrator 27.5.0, SVG Export Plug-In . SVG Version: 6.00 Build 0)  -->
<svg version="1.1" id="Layer_1" xmlns="http://www.w3.org/2000/svg" xmlns:xlink="http://www.w3.org/1999/xlink" x="0px" y="0px"
	 viewBox="0 0 933.9 457.7" enable-background="new 0 0 933.9 457.7" xml:space="preserve">
<g id="Group_1672" transform="translate(150.388 -3273.946)">
	<g id="Group_1440" transform="translate(-1549 2145.336)" opacity="0.3">
		<g id="Group_1439">
			<g>
				<g>
					<defs>
						<rect id="SVGID_1_" x="1278.6" y="1128.6" width="1053.9" height="457.7"/>
					</defs>
					<clipPath id="SVGID_00000057124413874696143390000006165760674874011573_">
						<use xlink:href="#SVGID_1_"  overflow="visible"/>
					</clipPath>
					<g id="Group_1438" clip-path="url(#SVGID_00000057124413874696143390000006165760674874011573_)">
						<path id="Path_2208" fill="#009AE1" d="M2237.8,1434L2237.8,1434c16.4-93.1-45.9-181.9-139-198.3
							c-54.5-9.6-110.3,7.8-149.8,46.7c-28.4-89.2-112-153.8-210.6-153.8c-77.2,0-148.7,40.2-188.8,106.1
							c-16.4-3.8-33.1-5.7-49.9-5.7c-122.1,0-221,99-221,221c0,20.5,2.8,36.2,8,48.1c3.9,32.8,17.8,63.5,39.7,88.2h999.3l0,0
							c2.7-7.3,4.6-14.8,5.7-22.5l0,0C2340.3,1502.4,2299,1444.9,2237.8,1434"/>
					</g>
				</g>
			</g>
		</g>
	</g>
	<g id="Group_1671">
		<g>
			<g>
				<defs>
					<path id="SVGID_00000075120659125215049660000005355249817207340943_" d="M-1548.4,5525.4c-16.4-3.8-33.1-5.7-49.9-5.7
						c-122.1,0-221,99-221,221c0,20.5,2.8,36.2,8,48.1c3.9,32.8,17.8,63.5,39.7,88.2h999.3l0,0c2.7-7.3,4.6-14.8,5.7-22.5l0,0
						c9.1-61.4-32.3-118.9-93.5-129.8l0,0c16.3-93.2-46.1-182-139.3-198.3c-9.7-1.7-19.5-2.6-29.4-2.6c-45-0.1-88.2,17.6-120.1,49.2
						c-28.4-89.2-112-153.8-210.6-153.8C-1436.8,5419.2-1508.3,5459.4-1548.4,5525.4"/>
				</defs>
				<clipPath id="SVGID_00000056395874045544078790000015605678262987209882_">
					<use xlink:href="#SVGID_00000075120659125215049660000005355249817207340943_"  overflow="visible"/>
				</clipPath>
				
					<g id="Group_1443" transform="translate(-1549 2145.336)" clip-path="url(#SVGID_00000056395874045544078790000015605678262987209882_)">
					<path id="Path_2210" fill="#999999" d="M1195.9,1321.1c0,0,124.5,150,350.1,16.3c219.1-129.8,275.5,180.9,500.3,22.9
						c159.2-111.9,232-58.6,318.8,7.4l30.7,447.1l-1277.7-17.7L1195.9,1321.1z"/>
				</g>
			</g>
		</g>
		<path id="Path_2218" fill="#009AE1" d="M374.1,3492.7c0,10.4-8.5,18.9-18.9,18.9s-18.9-8.5-18.9-18.9s8.5-18.9,18.9-18.9
			S374.1,3482.3,374.1,3492.7L374.1,3492.7"/>
		<path id="Path_2219" fill="#009AE1" d="M330.1,3453.3c0,4.8-3.9,8.6-8.6,8.6s-8.6-3.9-8.6-8.6c0-4.8,3.9-8.6,8.6-8.6l0,0
			C326.3,3444.7,330.1,3448.5,330.1,3453.3"/>
		<path id="Path_2222" fill="#009AE1" d="M783.5,3692.4c0,5.6-0.4,11.2-1.2,16.8l0,0c-1.1,7.7-3,15.2-5.7,22.4l0,0h-999.2
			c-22-24.6-35.8-55.4-39.7-88.1c-5.2-11.9-8-27.6-8-48.1c0-23.6,3.7-47.1,11.2-69.6c59.2,19.7,145.6,22.4,256.2-43.2
			c219.1-129.8,275.5,180.9,500.3,22.9c63.2-44.4,112.9-62.8,155.1-64.7c25.3,30.6,39.1,69.1,39,108.8c0,9.9-0.9,19.8-2.6,29.6l0,0
			C743.6,3589.1,783.5,3636.7,783.5,3692.4"/>
		<path id="Path_2223" fill="#004894" d="M57.8,3584.4c0,10.4-8.5,18.9-18.9,18.9s-18.9-8.5-18.9-18.9s8.5-18.9,18.9-18.9
			C49.4,3565.5,57.8,3573.9,57.8,3584.4L57.8,3584.4"/>
		<path id="Path_2224" fill="#004894" d="M116.4,3635.6c0,4.1-3.3,7.5-7.5,7.5s-7.5-3.3-7.5-7.5c0-4.1,3.3-7.5,7.5-7.5l0,0
			C113.1,3628.1,116.4,3631.5,116.4,3635.6L116.4,3635.6"/>
		<path id="Path_2225" fill="#004894" d="M-16.1,3662.7c0,7.1-5.8,12.9-12.9,12.9s-12.9-5.8-12.9-12.9c0-7.1,5.8-12.9,12.9-12.9
			S-16.1,3655.6-16.1,3662.7L-16.1,3662.7"/>
	</g>
</g>
</svg>
