<?xml version="1.0" encoding="utf-8"?>
<!-- Generator: Adobe Illustrator 27.5.0, SVG Export Plug-In . SVG Version: 6.00 Build 0)  -->
<svg version="1.1" id="Layer_1" xmlns="http://www.w3.org/2000/svg" xmlns:xlink="http://www.w3.org/1999/xlink" x="0px" y="0px"
	 viewBox="0 0 1053.9 457.7" enable-background="new 0 0 1053.9 457.7" xml:space="preserve">
<g id="Group_1672" transform="translate(150.388 -3273.946)">
	<g id="Group_1440" transform="translate(-1549 2145.336)" opacity="0.3">
		<g id="Group_1439">
			<g>
				<defs>
					<rect id="SVGID_1_" x="1398.6" y="1128.6" width="1053.9" height="457.7"/>
				</defs>
				<clipPath id="SVGID_00000098223085100106080790000004601150627417097861_">
					<use xlink:href="#SVGID_1_"  overflow="visible"/>
				</clipPath>
				<g id="Group_1438" clip-path="url(#SVGID_00000098223085100106080790000004601150627417097861_)">
					<path id="Path_2208" fill="#009AE1" d="M2357.8,1434L2357.8,1434c16.4-93.1-45.9-181.9-139-198.3
						c-54.5-9.6-110.3,7.8-149.8,46.7c-28.4-89.2-112-153.8-210.6-153.8c-77.2,0-148.7,40.2-188.8,106.1
						c-16.4-3.8-33.1-5.7-49.9-5.7c-122.1,0-221,99-221,221c0,20.5,2.8,36.2,8,48.1c3.9,32.8,17.8,63.5,39.7,88.2h999.3v0
						c2.7-7.3,4.6-14.8,5.7-22.5v0C2460.3,1502.4,2419,1444.9,2357.8,1434"/>
				</g>
			</g>
		</g>
	</g>
	<g id="Group_1671">
		<g>
			<defs>
				<path id="SVGID_00000116193348552556714450000000993837144965960378_" d="M120.6,3380.1c-16.4-3.8-33.1-5.7-49.9-5.7
					c-122.1,0-221,99-221,221c0,20.5,2.8,36.2,8,48.1c3.9,32.8,17.8,63.5,39.7,88.2h999.3v0c2.7-7.3,4.6-14.8,5.7-22.5v0
					c9.1-61.4-32.3-118.9-93.5-129.8h0c16.3-93.2-46.1-182-139.3-198.3c-9.7-1.7-19.5-2.6-29.4-2.6c-45-0.1-88.2,17.6-120.1,49.2
					c-28.4-89.2-112-153.8-210.6-153.8C232.2,3273.9,160.7,3314.1,120.6,3380.1"/>
			</defs>
			<clipPath id="SVGID_00000008150077144983975130000008478370865598443944_">
				<use xlink:href="#SVGID_00000116193348552556714450000000993837144965960378_"  overflow="visible"/>
			</clipPath>
			
				<g id="Group_1443" transform="translate(-1549 2145.336)" clip-path="url(#SVGID_00000008150077144983975130000008478370865598443944_)">
				<path id="Path_2210" fill="#999999" d="M1315.9,1321.1c0,0,124.5,150,350.1,16.3c219.1-129.8,275.5,180.9,500.3,22.9
					c159.2-111.9,232-58.6,318.8,7.4l30.7,447.1l-1277.7-17.7L1315.9,1321.1z"/>
			</g>
		</g>
		<path id="Path_2218" fill="#009AE1" d="M494.1,3492.7c0,10.4-8.5,18.9-18.9,18.9s-18.9-8.5-18.9-18.9c0-10.4,8.5-18.9,18.9-18.9
			C485.6,3473.8,494.1,3482.3,494.1,3492.7L494.1,3492.7"/>
		<path id="Path_2219" fill="#009AE1" d="M450.1,3453.3c0,4.8-3.9,8.6-8.6,8.6s-8.6-3.9-8.6-8.6c0-4.8,3.9-8.6,8.6-8.6c0,0,0,0,0,0
			C446.3,3444.7,450.1,3448.5,450.1,3453.3"/>
		<path id="Path_2222" fill="#009AE1" d="M903.5,3692.4c0,5.6-0.4,11.2-1.2,16.8v0c-1.1,7.7-3,15.2-5.7,22.4v0h-999.2
			c-22-24.6-35.8-55.4-39.7-88.1c-5.2-11.9-8-27.6-8-48.1c0-23.6,3.7-47.1,11.2-69.6c59.2,19.7,145.6,22.4,256.2-43.2
			c219.1-129.8,275.5,180.9,500.3,22.9c63.2-44.4,112.9-62.8,155.1-64.7c25.3,30.6,39.1,69.1,39,108.8c0,9.9-0.9,19.8-2.6,29.6h0
			C863.6,3589.1,903.5,3636.7,903.5,3692.4"/>
		<path id="Path_2223" fill="#004894" d="M177.8,3584.4c0,10.4-8.5,18.9-18.9,18.9c-10.4,0-18.9-8.5-18.9-18.9
			c0-10.4,8.5-18.9,18.9-18.9C169.4,3565.5,177.8,3573.9,177.8,3584.4L177.8,3584.4"/>
		<path id="Path_2224" fill="#004894" d="M236.4,3635.6c0,4.1-3.3,7.5-7.5,7.5s-7.5-3.3-7.5-7.5c0-4.1,3.3-7.5,7.5-7.5c0,0,0,0,0,0
			C233.1,3628.1,236.4,3631.5,236.4,3635.6L236.4,3635.6"/>
		<path id="Path_2225" fill="#004894" d="M103.9,3662.7c0,7.1-5.8,12.9-12.9,12.9s-12.9-5.8-12.9-12.9c0-7.1,5.8-12.9,12.9-12.9
			C98.1,3649.8,103.9,3655.6,103.9,3662.7C103.9,3662.7,103.9,3662.7,103.9,3662.7"/>
	</g>
</g>
</svg>
