<?xml version="1.0" encoding="utf-8"?>
<!-- Generator: Adobe Illustrator 27.5.0, SVG Export Plug-In . SVG Version: 6.00 Build 0)  -->
<svg version="1.1" id="Layer_1" xmlns="http://www.w3.org/2000/svg" xmlns:xlink="http://www.w3.org/1999/xlink" x="0px" y="0px"
	 viewBox="0 0 846.3 778.4" enable-background="new 0 0 846.3 778.4" xml:space="preserve">
<g id="Group_1673" transform="translate(-996.516 -4106.406)">
	<rect id="Rectangle_754" x="1139.1" y="4531.4" fill="#999999" width="746.1" height="353.4"/>
	<path id="Path_2165" fill="#808080" d="M1885.2,4569.4l-746.1-38h746.1L1885.2,4569.4z"/>
	<path id="Path_2168" fill="#999999" d="M1844.6,4470.1h-748.2l132.8-363.2h615.4L1844.6,4470.1z"/>
	<rect id="Rectangle_755" x="1021.3" y="4444.7" fill="#B8B8B8" width="863.8" height="86.7"/>
	<rect id="Rectangle_756" x="1021.3" y="4501.2" fill="#D9D9D9" width="863.8" height="30.2"/>
	<g id="Group_1418" transform="translate(-1549 2145.336)" opacity="0.5">
		<g id="Group_1417">
			<g>
				<defs>
					<rect id="SVGID_1_" x="2797.1" y="1961.1" width="89.7" height="338.8"/>
				</defs>
				<clipPath id="SVGID_00000150067580526710376400000016308726019200673680_">
					<use xlink:href="#SVGID_1_"  overflow="visible"/>
				</clipPath>
				<g id="Group_1416" clip-path="url(#SVGID_00000150067580526710376400000016308726019200673680_)">
					
						<line id="Line_218" fill="none" stroke="#B0B0B0" stroke-width="4" stroke-miterlimit="10" x1="2884.8" y1="1961.6" x2="2799" y2="2299.4"/>
				</g>
			</g>
		</g>
	</g>
	<g id="Group_1421" transform="translate(-1549 2145.336)" opacity="0.5">
		<g id="Group_1420">
			<g>
				<defs>
					<rect id="SVGID_00000175298043388114016140000012118368770570897842_" x="2947.6" y="1961.2" width="66.1" height="338.6"/>
				</defs>
				<clipPath id="SVGID_00000141417925634388011040000018312363944429582743_">
					<use xlink:href="#SVGID_00000175298043388114016140000012118368770570897842_"  overflow="visible"/>
				</clipPath>
				<g id="Group_1419" clip-path="url(#SVGID_00000141417925634388011040000018312363944429582743_)">
					
						<line id="Line_219" fill="none" stroke="#B0B0B0" stroke-width="4" stroke-miterlimit="10" x1="3011.7" y1="1961.6" x2="2949.5" y2="2299.4"/>
				</g>
			</g>
		</g>
	</g>
	<g id="Group_1424" transform="translate(-1549 2145.336)" opacity="0.5">
		<g id="Group_1423">
			<g>
				<defs>
					<rect id="SVGID_00000101079003431820851000000016057717757765279387_" x="3096.7" y="1961.3" width="46.8" height="338.3"/>
				</defs>
				<clipPath id="SVGID_00000128451236330325330010000001349192521609139892_">
					<use xlink:href="#SVGID_00000101079003431820851000000016057717757765279387_"  overflow="visible"/>
				</clipPath>
				<g id="Group_1422" clip-path="url(#SVGID_00000128451236330325330010000001349192521609139892_)">
					
						<line id="Line_220" fill="none" stroke="#B0B0B0" stroke-width="4" stroke-miterlimit="10" x1="3141.5" y1="1961.6" x2="3098.7" y2="2299.4"/>
				</g>
			</g>
		</g>
	</g>
	<g id="Group_1427" transform="translate(-1549 2145.336)" opacity="0.5">
		<g id="Group_1426">
			<g>
				<defs>
					<rect id="SVGID_00000031897451264379219200000014552336435353138606_" x="3249.7" y="1961.4" width="25.1" height="338.1"/>
				</defs>
				<clipPath id="SVGID_00000023241026242236101720000007497938882373523859_">
					<use xlink:href="#SVGID_00000031897451264379219200000014552336435353138606_"  overflow="visible"/>
				</clipPath>
				<g id="Group_1425" clip-path="url(#SVGID_00000023241026242236101720000007497938882373523859_)">
					
						<line id="Line_221" fill="none" stroke="#B0B0B0" stroke-width="4" stroke-miterlimit="10" x1="3272.8" y1="1961.6" x2="3251.7" y2="2299.4"/>
				</g>
			</g>
		</g>
	</g>
	<path id="Path_2169" fill="#009AE1" d="M1021.3,4481.5c0,0,118.1-23.9,312.1,0c167.1,20.6,249.2-23.9,357.8-6.1
		c71.1,11.7,155.6,0.8,155.6,0.8l-4.4,25h-821.1V4481.5z"/>
	<rect id="Rectangle_761" x="1021.3" y="4444.7" fill="#D9D9D9" width="33" height="86.7"/>
	<path id="Path_2170" fill="#004894" d="M1622.8,4386.6c-0.2,9.3,7.2,17.1,16.5,17.3s17.1-7.2,17.3-16.5c0-0.3,0-0.5,0-0.8
		c0-9.3-16.9-30.6-16.9-30.6S1622.8,4377.3,1622.8,4386.6"/>
	<rect id="Rectangle_762" x="1309.6" y="4630" fill="#666666" width="551.7" height="254.9"/>
	<rect id="Rectangle_763" x="1329.7" y="4648.2" fill="#FFFFFF" width="517.8" height="236.7"/>
	<g id="Group_1430" transform="translate(-1549 2145.336)" opacity="0.24">
		<g id="Group_1429">
			<g>
				<defs>
					<rect id="SVGID_00000135661383536107466960000014288841816309878150_" x="2878.7" y="2502.8" width="517.8" height="236.6"/>
				</defs>
				<clipPath id="SVGID_00000055678821749041675270000013553639484390286521_">
					<use xlink:href="#SVGID_00000135661383536107466960000014288841816309878150_"  overflow="visible"/>
				</clipPath>
				<g id="Group_1428" clip-path="url(#SVGID_00000055678821749041675270000013553639484390286521_)">
					<rect id="Rectangle_764" x="2878.7" y="2502.8" fill="#009AE1" width="517.8" height="236.7"/>
				</g>
			</g>
		</g>
	</g>
	<rect id="Rectangle_766" x="1398.7" y="4648.2" fill="#666666" width="5.6" height="236.7"/>
	<rect id="Rectangle_767" x="1471.9" y="4648.2" fill="#666666" width="5.6" height="236.7"/>
	<rect id="Rectangle_768" x="1311.9" y="4715" fill="#666666" width="527.8" height="5.6"/>
	<rect id="Rectangle_769" x="1311.9" y="4784.4" fill="#666666" width="527.8" height="5.6"/>
	<rect id="Rectangle_770" x="1370.8" y="4850.9" fill="#808080" width="280.1" height="5.3"/>
	<rect id="Rectangle_771" x="1545" y="4648.2" fill="#666666" width="5.6" height="236.7"/>
	<rect id="Rectangle_772" x="1618.2" y="4648.2" fill="#666666" width="5.6" height="236.7"/>
	<rect id="Rectangle_773" x="1691.4" y="4648.2" fill="#666666" width="5.6" height="236.7"/>
	<rect id="Rectangle_774" x="1764.6" y="4648.2" fill="#666666" width="5.6" height="236.7"/>
</g>
<path fill="#FFFFFF" d="M1013.3,778.2c-38.5-48.9-98.2-80.3-165.3-80.3c-53.4,0-102,19.9-139.1,52.6
	c-39.9-28.2-88.6-44.8-141.2-44.8c-43.1,0-83.7,11.2-118.9,30.8c-55.4-45.1-126.1-72.2-203.2-72.2c-98.5,0-186.6,44.2-245.7,113.9
	H1013.3z"/>
</svg>
