
<svg version="1.1" class="star" xmlns="http://www.w3.org/2000/svg" xmlns:xlink="http://www.w3.org/1999/xlink" x="0px" y="0px"
	 viewBox="0 0 50 64.7" enable-background="new 0 0 50 64.7" xml:space="preserve">
<path id="star-outline" fill="#FFFFFF" d="M1.5,34l1,0.3C16,38.7,18.7,49.1,23.1,62.5l0.3,0.8c0.4,1.1,1.6,1.7,2.7,1.4
	c0.6-0.2,1.1-0.7,1.4-1.4l0-0.1c4.3-13.6,7.3-24.2,21.1-28.5c1.1-0.3,1.7-1.5,1.4-2.6c-0.2-0.7-0.7-1.2-1.4-1.4l-0.9-0.3
	C34.1,26.1,31.3,15.7,27,2.4l-0.3-0.9c-0.4-1.1-1.6-1.7-2.7-1.4c-0.6,0.2-1.1,0.7-1.4,1.4l0,0C18.3,15.1,15.3,25.8,1.6,30l-0.1,0
	c-1.1,0.3-1.7,1.5-1.4,2.6C0.3,33.3,0.8,33.8,1.5,34"/>
</svg>
